IBM Plex Sans Hebrew-Thin.ufo
<glyph name="exclam" format="1">
  <advance width="252"/>
  <unicode hex="0021"/>
  <outline>
    <contour>
      <point x="132" y="176" type="line"/>
      <point x="137" y="415" type="line"/>
      <point x="137" y="698" type="line"/>
      <point x="115" y="698" type="line"/>
      <point x="115" y="415" type="line"/>
      <point x="120" y="176" type="line"/>
    </contour>
    <contour>
      <point x="126" y="-5" type="curve" smooth="yes"/>
      <point x="143" y="-5"/>
      <point x="153" y="4"/>
      <point x="153" y="20" type="curve" smooth="yes" name="hr01"/>
      <point x="153" y="28" type="line" smooth="yes"/>
      <point x="153" y="44"/>
      <point x="144" y="53"/>
      <point x="126" y="53" type="curve" smooth="yes"/>
      <point x="108" y="53"/>
      <point x="99" y="44"/>
      <point x="99" y="28" type="curve" smooth="yes"/>
      <point x="99" y="20" type="line" smooth="yes"/>
      <point x="99" y="4"/>
      <point x="109" y="-5"/>
    </contour>
  </outline>
</glyph>
<glyph name="numbersign" format="1">
  <advance width="712"/>
  <unicode hex="0023"/>
  <outline>
    <contour>
      <point x="389" y="0" type="line" name="hr00"/>
      <point x="410" y="0" type="line"/>
      <point x="448" y="220" type="line"/>
      <point x="603" y="220" type="line"/>
      <point x="603" y="239" type="line"/>
      <point x="451" y="239" type="line"/>
      <point x="488" y="459" type="line"/>
      <point x="642" y="459" type="line"/>
      <point x="642" y="478" type="line"/>
      <point x="492" y="478" type="line"/>
      <point x="530" y="698" type="line"/>
      <point x="509" y="698" type="line"/>
      <point x="471" y="478" type="line"/>
      <point x="285" y="478" type="line"/>
      <point x="323" y="698" type="line"/>
      <point x="302" y="698" type="line"/>
      <point x="264" y="478" type="line"/>
      <point x="109" y="478" type="line"/>
      <point x="109" y="459" type="line"/>
      <point x="261" y="459" type="line"/>
      <point x="224" y="239" type="line"/>
      <point x="70" y="239" type="line"/>
      <point x="70" y="220" type="line"/>
      <point x="220" y="220" type="line"/>
      <point x="182" y="0" type="line"/>
      <point x="203" y="0" type="line"/>
      <point x="241" y="220" type="line"/>
      <point x="427" y="220" type="line"/>
    </contour>
    <contour>
      <point x="244" y="239" type="line"/>
      <point x="282" y="459" type="line"/>
      <point x="468" y="459" type="line"/>
      <point x="430" y="239" type="line"/>
    </contour>
  </outline>
</glyph>
<glyph name="dollar" format="1">
  <advance width="547"/>
  <unicode hex="0024"/>
  <outline>
    <contour>
      <point x="288" y="-82" type="line" name="hr00"/>
      <point x="288" y="0" type="line"/>
      <point x="412" y="4"/>
      <point x="489" y="66"/>
      <point x="489" y="185" type="curve" smooth="yes"/>
      <point x="489" y="265"/>
      <point x="456" y="340"/>
      <point x="312" y="364" type="curve" smooth="yes"/>
      <point x="288" y="368" type="line"/>
      <point x="288" y="678" type="line"/>
      <point x="368" y="674"/>
      <point x="422" y="644"/>
      <point x="459" y="590" type="curve"/>
      <point x="477" y="603" type="line"/>
      <point x="441" y="656"/>
      <point x="381" y="694"/>
      <point x="288" y="698" type="curve"/>
      <point x="288" y="780" type="line"/>
      <point x="268" y="780" type="line"/>
      <point x="268" y="698" type="line"/>
      <point x="141" y="698"/>
      <point x="58" y="643"/>
      <point x="58" y="530" type="curve" smooth="yes"/>
      <point x="58" y="451"/>
      <point x="96" y="384"/>
      <point x="237" y="357" type="curve" smooth="yes"/>
      <point x="268" y="351" type="line"/>
      <point x="268" y="20" type="line"/>
      <point x="166" y="22"/>
      <point x="108" y="65"/>
      <point x="60" y="127" type="curve"/>
      <point x="42" y="114" type="line"/>
      <point x="91" y="50"/>
      <point x="157" y="2"/>
      <point x="268" y="0" type="curve"/>
      <point x="268" y="-82" type="line"/>
    </contour>
    <contour>
      <point x="467" y="184" type="curve" smooth="yes"/>
      <point x="467" y="80"/>
      <point x="403" y="24"/>
      <point x="288" y="20" type="curve"/>
      <point x="288" y="348" type="line"/>
      <point x="306" y="345" type="line" smooth="yes"/>
      <point x="390" y="331"/>
      <point x="467" y="299"/>
    </contour>
    <contour>
      <point x="80" y="530" type="curve" smooth="yes"/>
      <point x="80" y="629"/>
      <point x="150" y="678"/>
      <point x="268" y="678" type="curve"/>
      <point x="268" y="371" type="line"/>
      <point x="243" y="376" type="line" smooth="yes"/>
      <point x="155" y="394"/>
      <point x="80" y="425"/>
    </contour>
  </outline>
</glyph>
<glyph name="percent" format="1">
  <advance width="882"/>
  <unicode hex="0025"/>
  <outline>
    <contour>
      <point x="210" y="0" type="line"/>
      <point x="694" y="698" type="line"/>
      <point x="671" y="698" type="line"/>
      <point x="187" y="0" type="line"/>
    </contour>
    <contour>
      <point x="217" y="326" type="curve" smooth="yes"/>
      <point x="294" y="326"/>
      <point x="359" y="381"/>
      <point x="359" y="518" type="curve" smooth="yes"/>
      <point x="359" y="655"/>
      <point x="294" y="710"/>
      <point x="217" y="710" type="curve" smooth="yes" name="hr01"/>
      <point x="140" y="710"/>
      <point x="75" y="655"/>
      <point x="75" y="518" type="curve" smooth="yes"/>
      <point x="75" y="381"/>
      <point x="140" y="326"/>
    </contour>
    <contour>
      <point x="217" y="343" type="curve" smooth="yes"/>
      <point x="155" y="343"/>
      <point x="97" y="388"/>
      <point x="97" y="502" type="curve" smooth="yes"/>
      <point x="97" y="534" type="line" smooth="yes"/>
      <point x="97" y="648"/>
      <point x="155" y="693"/>
      <point x="217" y="693" type="curve" smooth="yes"/>
      <point x="279" y="693"/>
      <point x="337" y="648"/>
      <point x="337" y="534" type="curve" smooth="yes"/>
      <point x="337" y="502" type="line" smooth="yes"/>
      <point x="337" y="388"/>
      <point x="279" y="343"/>
    </contour>
    <contour>
      <point x="665" y="-12" type="curve" smooth="yes"/>
      <point x="742" y="-12"/>
      <point x="807" y="43"/>
      <point x="807" y="180" type="curve" smooth="yes"/>
      <point x="807" y="317"/>
      <point x="742" y="372"/>
      <point x="665" y="372" type="curve" smooth="yes"/>
      <point x="588" y="372"/>
      <point x="523" y="317"/>
      <point x="523" y="180" type="curve" smooth="yes"/>
      <point x="523" y="43"/>
      <point x="588" y="-12"/>
    </contour>
    <contour>
      <point x="665" y="5" type="curve" smooth="yes"/>
      <point x="603" y="5"/>
      <point x="545" y="50"/>
      <point x="545" y="164" type="curve" smooth="yes"/>
      <point x="545" y="196" type="line" smooth="yes"/>
      <point x="545" y="310"/>
      <point x="603" y="355"/>
      <point x="665" y="355" type="curve" smooth="yes"/>
      <point x="727" y="355"/>
      <point x="785" y="310"/>
      <point x="785" y="196" type="curve" smooth="yes"/>
      <point x="785" y="164" type="line" smooth="yes"/>
      <point x="785" y="50"/>
      <point x="727" y="5"/>
    </contour>
  </outline>
</glyph>
<glyph name="quotesingle" format="1">
  <advance width="220"/>
  <unicode hex="0027"/>
  <outline>
    <contour>
      <point x="120" y="490" type="line" name="hr00"/>
      <point x="120" y="740" type="line"/>
      <point x="100" y="740" type="line"/>
      <point x="100" y="490" type="line"/>
    </contour>
  </outline>
</glyph>
<glyph name="parenright" format="1">
  <advance width="332"/>
  <unicode hex="0029"/>
  <outline>
    <contour>
      <point x="227" y="311" type="curve" smooth="yes" name="hr00"/>
      <point x="227" y="515"/>
      <point x="135" y="675"/>
      <point x="43" y="760" type="curve"/>
      <point x="18" y="760" type="line"/>
      <point x="116" y="673"/>
      <point x="206" y="513"/>
      <point x="206" y="328" type="curve" smooth="yes"/>
      <point x="206" y="294" type="line" smooth="yes"/>
      <point x="206" y="109"/>
      <point x="116" y="-51"/>
      <point x="18" y="-138" type="curve"/>
      <point x="43" y="-138" type="line"/>
      <point x="135" y="-53"/>
      <point x="227" y="107"/>
    </contour>
  </outline>
</glyph>
<glyph name="asterisk" format="1">
  <advance width="362"/>
  <unicode hex="002A"/>
  <outline>
    <contour>
      <point x="181" y="565" type="line" name="hr00"/>
      <point x="274" y="436" type="line"/>
      <point x="289" y="447" type="line"/>
      <point x="194" y="575" type="line"/>
      <point x="345" y="621" type="line"/>
      <point x="339" y="640" type="line"/>
      <point x="189" y="590" type="line"/>
      <point x="191" y="747" type="line"/>
      <point x="171" y="747" type="line"/>
      <point x="173" y="590" type="line"/>
      <point x="23" y="640" type="line"/>
      <point x="17" y="621" type="line"/>
      <point x="168" y="575" type="line"/>
      <point x="73" y="447" type="line"/>
      <point x="88" y="436" type="line"/>
    </contour>
  </outline>
</glyph>
<glyph name="plus" format="1">
  <advance width="600"/>
  <unicode hex="002B"/>
  <outline>
    <contour>
      <point x="311" y="62" type="line" name="hr00"/>
      <point x="311" y="296" type="line"/>
      <point x="539" y="296" type="line"/>
      <point x="539" y="315" type="line"/>
      <point x="311" y="315" type="line"/>
      <point x="311" y="549" type="line"/>
      <point x="290" y="549" type="line"/>
      <point x="290" y="315" type="line"/>
      <point x="62" y="315" type="line"/>
      <point x="62" y="296" type="line"/>
      <point x="290" y="296" type="line"/>
      <point x="290" y="62" type="line"/>
    </contour>
  </outline>
</glyph>
<glyph name="hyphen" format="1">
  <advance width="395"/>
  <unicode hex="002D"/>
  <outline>
    <contour>
      <point x="312" y="295" type="line" name="hr00"/>
      <point x="312" y="315" type="line"/>
      <point x="83" y="315" type="line"/>
      <point x="83" y="295" type="line"/>
    </contour>
  </outline>
</glyph>
<glyph name="period" format="1">
  <advance width="240"/>
  <unicode hex="002E"/>
  <outline>
    <contour>
      <point x="120" y="-5" type="curve" smooth="yes" name="hr00"/>
      <point x="138" y="-5"/>
      <point x="147" y="4"/>
      <point x="147" y="20" type="curve" smooth="yes"/>
      <point x="147" y="28" type="line" smooth="yes"/>
      <point x="147" y="44"/>
      <point x="138" y="53"/>
      <point x="120" y="53" type="curve" smooth="yes"/>
      <point x="102" y="53"/>
      <point x="93" y="44"/>
      <point x="93" y="28" type="curve" smooth="yes"/>
      <point x="93" y="20" type="line" smooth="yes"/>
      <point x="93" y="4"/>
      <point x="102" y="-5"/>
    </contour>
  </outline>
</glyph>
<glyph name="slash" format="1">
  <advance width="313"/>
  <unicode hex="002F"/>
  <outline>
    <contour>
      <point x="33" y="-151" type="line" name="hr00"/>
      <point x="271" y="740" type="line"/>
      <point x="251" y="740" type="line"/>
      <point x="13" y="-151" type="line"/>
    </contour>
  </outline>
</glyph>
<glyph name="zero" format="1">
  <advance width="600"/>
  <unicode hex="0030"/>
  <outline>
    <contour>
      <point x="300" y="-12" type="curve" smooth="yes" name="hr00"/>
      <point x="446" y="-12"/>
      <point x="529" y="93"/>
      <point x="529" y="349" type="curve" smooth="yes"/>
      <point x="529" y="605"/>
      <point x="446" y="710"/>
      <point x="300" y="710" type="curve" smooth="yes"/>
      <point x="154" y="710"/>
      <point x="71" y="605"/>
      <point x="71" y="349" type="curve" smooth="yes"/>
      <point x="71" y="93"/>
      <point x="154" y="-12"/>
    </contour>
    <contour>
      <point x="300" y="8" type="curve" smooth="yes"/>
      <point x="167" y="8"/>
      <point x="95" y="112"/>
      <point x="95" y="317" type="curve" smooth="yes"/>
      <point x="95" y="381" type="line" smooth="yes"/>
      <point x="95" y="586"/>
      <point x="167" y="690"/>
      <point x="300" y="690" type="curve" smooth="yes"/>
      <point x="433" y="690"/>
      <point x="505" y="586"/>
      <point x="505" y="381" type="curve" smooth="yes"/>
      <point x="505" y="317" type="line" smooth="yes"/>
      <point x="505" y="112"/>
      <point x="433" y="8"/>
    </contour>
  </outline>
</glyph>
<glyph name="two" format="1">
  <advance width="600"/>
  <unicode hex="0032"/>
  <outline>
    <contour>
      <point x="521" y="20" type="line" name="hr00"/>
      <point x="112" y="20" type="line"/>
      <point x="370" y="279" type="line" smooth="yes"/>
      <point x="445" y="354"/>
      <point x="486" y="427"/>
      <point x="486" y="516" type="curve" smooth="yes"/>
      <point x="486" y="636"/>
      <point x="419" y="710"/>
      <point x="294" y="710" type="curve" smooth="yes"/>
      <point x="179" y="710"/>
      <point x="112" y="646"/>
      <point x="87" y="555" type="curve"/>
      <point x="107" y="551" type="line"/>
      <point x="134" y="636"/>
      <point x="190" y="690"/>
      <point x="294" y="690" type="curve" smooth="yes"/>
      <point x="405" y="690"/>
      <point x="462" y="622"/>
      <point x="462" y="532" type="curve" smooth="yes"/>
      <point x="462" y="502" type="line" smooth="yes"/>
      <point x="462" y="428"/>
      <point x="423" y="361"/>
      <point x="356" y="294" type="curve" smooth="yes"/>
      <point x="87" y="22" type="line"/>
      <point x="87" y="0" type="line"/>
      <point x="521" y="0" type="line"/>
    </contour>
  </outline>
</glyph>
<glyph name="three" format="1">
  <advance width="600"/>
  <unicode hex="0033"/>
  <outline>
    <contour>
      <point x="186" y="376" type="line"/>
      <point x="186" y="356" type="line"/>
      <point x="282" y="356" type="line" smooth="yes"/>
      <point x="395" y="356"/>
      <point x="466" y="293"/>
      <point x="466" y="198" type="curve" smooth="yes"/>
      <point x="466" y="170" type="line" smooth="yes"/>
      <point x="466" y="73"/>
      <point x="391" y="8"/>
      <point x="283" y="8" type="curve" smooth="yes"/>
      <point x="193" y="8"/>
      <point x="131" y="38"/>
      <point x="88" y="106" type="curve"/>
      <point x="70" y="95" type="line"/>
      <point x="116" y="22"/>
      <point x="186" y="-12"/>
      <point x="283" y="-12" type="curve" smooth="yes"/>
      <point x="410" y="-12"/>
      <point x="490" y="64"/>
      <point x="490" y="187" type="curve" smooth="yes"/>
      <point x="490" y="290"/>
      <point x="429" y="353"/>
      <point x="335" y="365" type="curve"/>
      <point x="335" y="368" type="line"/>
      <point x="417" y="384"/>
      <point x="475" y="437"/>
      <point x="475" y="536" type="curve" smooth="yes" name="hr01"/>
      <point x="475" y="642"/>
      <point x="401" y="710"/>
      <point x="287" y="710" type="curve" smooth="yes"/>
      <point x="187" y="710"/>
      <point x="123" y="664"/>
      <point x="95" y="599" type="curve"/>
      <point x="113" y="591" type="line"/>
      <point x="143" y="651"/>
      <point x="194" y="690"/>
      <point x="287" y="690" type="curve" smooth="yes"/>
      <point x="384" y="690"/>
      <point x="451" y="632"/>
      <point x="451" y="546" type="curve" smooth="yes"/>
      <point x="451" y="522" type="line" smooth="yes"/>
      <point x="451" y="436"/>
      <point x="381" y="376"/>
      <point x="280" y="376" type="curve" smooth="yes"/>
    </contour>
  </outline>
</glyph>
<glyph name="four" format="1">
  <advance width="600"/>
  <unicode hex="0034"/>
  <outline>
    <contour>
      <point x="432" y="0" type="line" name="hr00"/>
      <point x="432" y="160" type="line"/>
      <point x="550" y="160" type="line"/>
      <point x="550" y="179" type="line"/>
      <point x="432" y="179" type="line"/>
      <point x="432" y="698" type="line"/>
      <point x="407" y="698" type="line"/>
      <point x="47" y="181" type="line"/>
      <point x="47" y="160" type="line"/>
      <point x="412" y="160" type="line"/>
      <point x="412" y="0" type="line"/>
    </contour>
    <contour>
      <point x="410" y="670" type="line"/>
      <point x="412" y="670" type="line"/>
      <point x="412" y="179" type="line"/>
      <point x="69" y="179" type="line"/>
    </contour>
  </outline>
</glyph>
<glyph name="seven" format="1">
  <advance width="600"/>
  <unicode hex="0037"/>
  <outline>
    <contour>
      <point x="211" y="0" type="line" name="hr00"/>
      <point x="512" y="678" type="line"/>
      <point x="512" y="698" type="line"/>
      <point x="77" y="698" type="line"/>
      <point x="77" y="512" type="line"/>
      <point x="99" y="512" type="line"/>
      <point x="99" y="678" type="line"/>
      <point x="489" y="678" type="line"/>
      <point x="187" y="0" type="line"/>
    </contour>
  </outline>
</glyph>
<glyph name="eight" format="1">
  <advance width="600"/>
  <unicode hex="0038"/>
  <outline>
    <contour>
      <point x="300" y="-12" type="curve" smooth="yes"/>
      <point x="440" y="-12"/>
      <point x="528" y="64"/>
      <point x="528" y="180" type="curve" smooth="yes"/>
      <point x="528" y="279"/>
      <point x="469" y="348"/>
      <point x="374" y="364" type="curve"/>
      <point x="374" y="368" type="line"/>
      <point x="454" y="384"/>
      <point x="504" y="445"/>
      <point x="504" y="535" type="curve" smooth="yes"/>
      <point x="504" y="642"/>
      <point x="425" y="710"/>
      <point x="300" y="710" type="curve" smooth="yes"/>
      <point x="175" y="710"/>
      <point x="96" y="642"/>
      <point x="96" y="535" type="curve" smooth="yes"/>
      <point x="96" y="445"/>
      <point x="146" y="384"/>
      <point x="226" y="368" type="curve"/>
      <point x="226" y="364" type="line"/>
      <point x="131" y="348"/>
      <point x="72" y="279"/>
      <point x="72" y="180" type="curve" smooth="yes"/>
      <point x="72" y="64"/>
      <point x="160" y="-12"/>
    </contour>
    <contour>
      <point x="300" y="8" type="curve" smooth="yes"/>
      <point x="176" y="8"/>
      <point x="96" y="74"/>
      <point x="96" y="169" type="curve" smooth="yes"/>
      <point x="96" y="195" type="line" smooth="yes"/>
      <point x="96" y="290"/>
      <point x="176" y="356"/>
      <point x="300" y="356" type="curve" smooth="yes"/>
      <point x="424" y="356"/>
      <point x="504" y="290"/>
      <point x="504" y="195" type="curve" smooth="yes"/>
      <point x="504" y="169" type="line" smooth="yes"/>
      <point x="504" y="74"/>
      <point x="424" y="8"/>
    </contour>
    <contour>
      <point x="300" y="376" type="curve" smooth="yes"/>
      <point x="191" y="376"/>
      <point x="120" y="434"/>
      <point x="120" y="521" type="curve" smooth="yes" name="hr01"/>
      <point x="120" y="545" type="line" smooth="yes"/>
      <point x="120" y="632"/>
      <point x="191" y="690"/>
      <point x="300" y="690" type="curve" smooth="yes"/>
      <point x="409" y="690"/>
      <point x="480" y="632"/>
      <point x="480" y="545" type="curve" smooth="yes"/>
      <point x="480" y="521" type="line" smooth="yes"/>
      <point x="480" y="434"/>
      <point x="409" y="376"/>
    </contour>
  </outline>
</glyph>
<glyph name="equal" format="1">
  <advance width="600"/>
  <unicode hex="003D"/>
  <outline>
    <contour>
      <point x="538" y="385" type="line" name="hr00"/>
      <point x="538" y="404" type="line"/>
      <point x="62" y="404" type="line"/>
      <point x="62" y="385" type="line"/>
    </contour>
    <contour>
      <point x="538" y="207" type="line"/>
      <point x="538" y="226" type="line"/>
      <point x="62" y="226" type="line"/>
      <point x="62" y="207" type="line"/>
    </contour>
  </outline>
</glyph>
<glyph name="greater" format="1">
  <advance width="600"/>
  <unicode hex="003E"/>
  <outline>
    <contour>
      <point x="85" y="38" type="line" name="hr00"/>
      <point x="515" y="296" type="line"/>
      <point x="515" y="314" type="line"/>
      <point x="85" y="572" type="line"/>
      <point x="85" y="549" type="line"/>
      <point x="492" y="306" type="line"/>
      <point x="492" y="304" type="line"/>
      <point x="85" y="61" type="line"/>
    </contour>
  </outline>
</glyph>
<glyph name="question" format="1">
  <advance width="456"/>
  <unicode hex="003F"/>
  <outline>
    <contour>
      <point x="220" y="176" type="line"/>
      <point x="220" y="330" type="line"/>
      <point x="349" y="342"/>
      <point x="421" y="415"/>
      <point x="421" y="531" type="curve" smooth="yes"/>
      <point x="421" y="638"/>
      <point x="351" y="710"/>
      <point x="236" y="710" type="curve" smooth="yes" name="hr01"/>
      <point x="129" y="710"/>
      <point x="64" y="654"/>
      <point x="37" y="559" type="curve"/>
      <point x="57" y="554" type="line"/>
      <point x="82" y="641"/>
      <point x="137" y="691"/>
      <point x="236" y="691" type="curve" smooth="yes"/>
      <point x="338" y="691"/>
      <point x="398" y="630"/>
      <point x="398" y="542" type="curve" smooth="yes"/>
      <point x="398" y="516" type="line" smooth="yes"/>
      <point x="398" y="419"/>
      <point x="325" y="351"/>
      <point x="198" y="349" type="curve" name="hr02"/>
      <point x="198" y="176" type="line"/>
    </contour>
    <contour>
      <point x="209" y="-5" type="curve" smooth="yes"/>
      <point x="226" y="-5"/>
      <point x="236" y="4"/>
      <point x="236" y="20" type="curve" smooth="yes" name="hr03"/>
      <point x="236" y="28" type="line" smooth="yes"/>
      <point x="236" y="44"/>
      <point x="227" y="53"/>
      <point x="209" y="53" type="curve" smooth="yes"/>
      <point x="191" y="53"/>
      <point x="182" y="44"/>
      <point x="182" y="28" type="curve" smooth="yes"/>
      <point x="182" y="20" type="line" smooth="yes"/>
      <point x="182" y="4"/>
      <point x="192" y="-5"/>
    </contour>
  </outline>
</glyph>
<glyph name="at" format="1">
  <advance width="880"/>
  <unicode hex="0040"/>
  <outline>
    <contour>
      <point x="676" y="-103" type="line" name="hr00"/>
      <point x="440" y="-103" type="line" smooth="yes"/>
      <point x="240" y="-103"/>
      <point x="92" y="51"/>
      <point x="92" y="274" type="curve" smooth="yes"/>
      <point x="92" y="326" type="line" smooth="yes"/>
      <point x="92" y="539"/>
      <point x="242" y="692"/>
      <point x="442" y="692" type="curve" smooth="yes"/>
      <point x="637" y="692"/>
      <point x="788" y="557"/>
      <point x="788" y="352" type="curve" smooth="yes"/>
      <point x="788" y="305" type="line" smooth="yes"/>
      <point x="788" y="167"/>
      <point x="740" y="87"/>
      <point x="668" y="87" type="curve" smooth="yes"/>
      <point x="622" y="87"/>
      <point x="594" y="119"/>
      <point x="594" y="163" type="curve" smooth="yes"/>
      <point x="594" y="496" type="line"/>
      <point x="574" y="496" type="line"/>
      <point x="574" y="433" type="line"/>
      <point x="571" y="433" type="line"/>
      <point x="553" y="470"/>
      <point x="509" y="508"/>
      <point x="436" y="508" type="curve" smooth="yes"/>
      <point x="328" y="508"/>
      <point x="264" y="434"/>
      <point x="264" y="287" type="curve" smooth="yes"/>
      <point x="264" y="142"/>
      <point x="328" y="69"/>
      <point x="436" y="69" type="curve" smooth="yes"/>
      <point x="509" y="69"/>
      <point x="553" y="110"/>
      <point x="572" y="148" type="curve"/>
      <point x="575" y="148" type="line"/>
      <point x="580" y="101"/>
      <point x="616" y="69"/>
      <point x="668" y="69" type="curve" smooth="yes"/>
      <point x="769" y="69"/>
      <point x="810" y="185"/>
      <point x="810" y="330" type="curve" smooth="yes"/>
      <point x="810" y="576"/>
      <point x="643" y="710"/>
      <point x="442" y="710" type="curve" smooth="yes"/>
      <point x="231" y="710"/>
      <point x="70" y="554"/>
      <point x="70" y="300" type="curve" smooth="yes"/>
      <point x="70" y="30"/>
      <point x="234" y="-121"/>
      <point x="440" y="-121" type="curve" smooth="yes"/>
      <point x="676" y="-121" type="line"/>
    </contour>
    <contour>
      <point x="436" y="87" type="curve" smooth="yes"/>
      <point x="339" y="87"/>
      <point x="286" y="157"/>
      <point x="286" y="268" type="curve" smooth="yes"/>
      <point x="286" y="306" type="line" smooth="yes"/>
      <point x="286" y="420"/>
      <point x="339" y="490"/>
      <point x="436" y="490" type="curve" smooth="yes"/>
      <point x="509" y="490"/>
      <point x="574" y="439"/>
      <point x="574" y="362" type="curve" smooth="yes"/>
      <point x="574" y="212" type="line" smooth="yes"/>
      <point x="574" y="137"/>
      <point x="509" y="87"/>
    </contour>
  </outline>
</glyph>
<glyph name="A" format="1">
  <advance width="600"/>
  <unicode hex="0041"/>
  <outline>
    <contour>
      <point x="568" y="0" type="line" name="hr00"/>
      <point x="315" y="698" type="line"/>
      <point x="285" y="698" type="line"/>
      <point x="32" y="0" type="line"/>
      <point x="55" y="0" type="line"/>
      <point x="140" y="234" type="line"/>
      <point x="460" y="234" type="line"/>
      <point x="545" y="0" type="line"/>
    </contour>
    <contour>
      <point x="453" y="253" type="line"/>
      <point x="147" y="253" type="line"/>
      <point x="298" y="675" type="line"/>
      <point x="301" y="675" type="line"/>
    </contour>
    <contour>
      <point x="306.0" y="0.0" type="move" name="bottom"/>
    </contour>
    <contour>
      <point x="556.0" y="0.0" type="move" name="bottomright"/>
    </contour>
    <contour>
      <point x="299.0" y="698.0" type="move" name="top"/>
    </contour>
  </outline>
</glyph>
<glyph name="H" format="1">
  <advance width="692"/>
  <unicode hex="0048"/>
  <outline>
    <contour>
      <point x="562" y="0" type="line" name="hr00"/>
      <point x="584" y="0" type="line"/>
      <point x="584" y="698" type="line"/>
      <point x="562" y="698" type="line"/>
      <point x="562" y="364" type="line"/>
      <point x="130" y="364" type="line"/>
      <point x="130" y="698" type="line"/>
      <point x="108" y="698" type="line"/>
      <point x="108" y="0" type="line"/>
      <point x="130" y="0" type="line"/>
      <point x="130" y="344" type="line"/>
      <point x="562" y="344" type="line"/>
    </contour>
    <contour>
      <point x="346.0" y="0.0" type="move" name="bottom"/>
    </contour>
    <contour>
      <point x="346.0" y="698.0" type="move" name="top"/>
    </contour>
  </outline>
</glyph>
<glyph name="I" format="1">
  <advance width="372"/>
  <unicode hex="0049"/>
  <outline>
    <contour>
      <point x="304" y="0" type="line" name="hr00"/>
      <point x="304" y="19" type="line"/>
      <point x="197" y="19" type="line"/>
      <point x="197" y="679" type="line"/>
      <point x="304" y="679" type="line"/>
      <point x="304" y="698" type="line"/>
      <point x="68" y="698" type="line"/>
      <point x="68" y="679" type="line"/>
      <point x="175" y="679" type="line"/>
      <point x="175" y="19" type="line"/>
      <point x="68" y="19" type="line"/>
      <point x="68" y="0" type="line"/>
    </contour>
    <contour>
      <point x="185.0" y="0.0" type="move" name="bottom"/>
    </contour>
    <contour>
      <point x="300.0" y="0.0" type="move" name="bottomright"/>
    </contour>
    <contour>
      <point x="185.0" y="698.0" type="move" name="top"/>
    </contour>
  </outline>
</glyph>
<glyph name="K" format="1">
  <advance width="572"/>
  <unicode hex="004B"/>
  <outline>
    <contour>
      <point x="526" y="0" type="line" name="hr00"/>
      <point x="552" y="0" type="line"/>
      <point x="280" y="403" type="line"/>
      <point x="549" y="698" type="line"/>
      <point x="521" y="698" type="line"/>
      <point x="262" y="413" type="line"/>
      <point x="132" y="271" type="line"/>
      <point x="130" y="271" type="line"/>
      <point x="130" y="698" type="line"/>
      <point x="108" y="698" type="line"/>
      <point x="108" y="0" type="line"/>
      <point x="130" y="0" type="line"/>
      <point x="130" y="239" type="line"/>
      <point x="265" y="387" type="line"/>
    </contour>
    <contour>
      <point x="314.0" y="0.0" type="move" name="bottom"/>
    </contour>
    <contour>
      <point x="313.0" y="698.0" type="move" name="top"/>
    </contour>
  </outline>
</glyph>
<glyph name="M" format="1">
  <advance width="796"/>
  <unicode hex="004D"/>
  <outline>
    <contour>
      <point x="667" y="0" type="line" name="hr00"/>
      <point x="688" y="0" type="line"/>
      <point x="688" y="698" type="line"/>
      <point x="655" y="698" type="line"/>
      <point x="400" y="278" type="line"/>
      <point x="397" y="278" type="line"/>
      <point x="141" y="698" type="line"/>
      <point x="108" y="698" type="line"/>
      <point x="108" y="0" type="line"/>
      <point x="129" y="0" type="line"/>
      <point x="129" y="673" type="line"/>
      <point x="132" y="673" type="line"/>
      <point x="398" y="236" type="line"/>
      <point x="664" y="673" type="line"/>
      <point x="667" y="673" type="line"/>
    </contour>
    <contour>
      <point x="398.0" y="0.0" type="move" name="bottom"/>
    </contour>
    <contour>
      <point x="398.0" y="698.0" type="move" name="top"/>
    </contour>
  </outline>
</glyph>
<glyph name="N" format="1">
  <advance width="692"/>
  <unicode hex="004E"/>
  <outline>
    <contour>
      <point x="552" y="0" type="line" name="hr00"/>
      <point x="584" y="0" type="line"/>
      <point x="584" y="698" type="line"/>
      <point x="563" y="698" type="line"/>
      <point x="563" y="27" type="line"/>
      <point x="560" y="27" type="line"/>
      <point x="140" y="698" type="line"/>
      <point x="108" y="698" type="line"/>
      <point x="108" y="0" type="line"/>
      <point x="129" y="0" type="line"/>
      <point x="129" y="671" type="line"/>
      <point x="132" y="671" type="line"/>
    </contour>
    <contour>
      <point x="346.0" y="0.0" type="move" name="bottom"/>
    </contour>
    <contour>
      <point x="346.0" y="698.0" type="move" name="top"/>
    </contour>
  </outline>
</glyph>
<glyph name="T" format="1">
  <advance width="560"/>
  <unicode hex="0054"/>
  <outline>
    <contour>
      <point x="543" y="678" type="line" name="hr00"/>
      <point x="543" y="698" type="line"/>
      <point x="17" y="698" type="line"/>
      <point x="17" y="678" type="line"/>
      <point x="269" y="678" type="line"/>
      <point x="269" y="0" type="line"/>
      <point x="291" y="0" type="line"/>
      <point x="291" y="678" type="line"/>
    </contour>
    <contour>
      <point x="280.0" y="0.0" type="move" name="bottom"/>
    </contour>
    <contour>
      <point x="280.0" y="698.0" type="move" name="top"/>
    </contour>
  </outline>
</glyph>
<glyph name="Y" format="1">
  <advance width="546"/>
  <unicode hex="0059"/>
  <outline>
    <contour>
      <point x="284" y="0" type="line" name="hr00"/>
      <point x="284" y="294" type="line"/>
      <point x="525" y="698" type="line"/>
      <point x="501" y="698" type="line"/>
      <point x="275" y="320" type="line"/>
      <point x="272" y="320" type="line"/>
      <point x="46" y="698" type="line"/>
      <point x="21" y="698" type="line"/>
      <point x="262" y="294" type="line"/>
      <point x="262" y="0" type="line"/>
    </contour>
    <contour>
      <point x="273.0" y="0.0" type="move" name="bottom"/>
    </contour>
    <contour>
      <point x="272.0" y="698.0" type="move" name="top"/>
    </contour>
  </outline>
</glyph>
<glyph name="bracketleft" format="1">
  <advance width="301"/>
  <unicode hex="005B"/>
  <outline>
    <contour>
      <point x="232" y="-138" type="line" name="hr00"/>
      <point x="232" y="-120" type="line"/>
      <point x="128" y="-120" type="line"/>
      <point x="128" y="742" type="line"/>
      <point x="232" y="742" type="line"/>
      <point x="232" y="760" type="line"/>
      <point x="108" y="760" type="line"/>
      <point x="108" y="-138" type="line"/>
    </contour>
  </outline>
</glyph>
<glyph name="backslash" format="1">
  <advance width="313"/>
  <unicode hex="005C"/>
  <outline>
    <contour>
      <point x="294" y="-151" type="line" name="hr00"/>
      <point x="61" y="740" type="line"/>
      <point x="41" y="740" type="line"/>
      <point x="274" y="-151" type="line"/>
    </contour>
  </outline>
</glyph>
<glyph name="bracketright" format="1">
  <advance width="301"/>
  <unicode hex="005D"/>
  <outline>
    <contour>
      <point x="69" y="760" type="line" name="hr00"/>
      <point x="69" y="742" type="line"/>
      <point x="173" y="742" type="line"/>
      <point x="173" y="-120" type="line"/>
      <point x="69" y="-120" type="line"/>
      <point x="69" y="-138" type="line"/>
      <point x="193" y="-138" type="line"/>
      <point x="193" y="760" type="line"/>
    </contour>
  </outline>
</glyph>
<glyph name="asciicircum" format="1">
  <advance width="600"/>
  <unicode hex="005E"/>
  <outline>
    <contour>
      <point x="532" y="332" type="line" name="hr00"/>
      <point x="311" y="698" type="line"/>
      <point x="289" y="698" type="line"/>
      <point x="68" y="332" type="line"/>
      <point x="86" y="322" type="line"/>
      <point x="299" y="676" type="line"/>
      <point x="301" y="676" type="line"/>
      <point x="514" y="322" type="line"/>
    </contour>
  </outline>
</glyph>
<glyph name="underscore" format="1">
  <advance width="569"/>
  <unicode hex="005F"/>
  <outline>
    <contour>
      <point x="539" y="-141" type="line" name="hr00"/>
      <point x="539" y="-123" type="line"/>
      <point x="30" y="-123" type="line"/>
      <point x="30" y="-141" type="line"/>
    </contour>
  </outline>
</glyph>
<glyph name="grave" format="1">
  <advance width="600"/>
  <unicode hex="0060"/>
  <outline>
    <contour>
      <point x="317" y="587" type="line" name="hr00"/>
      <point x="332" y="597" type="line"/>
      <point x="221" y="751" type="line"/>
      <point x="202" y="739" type="line"/>
    </contour>
    <contour>
      <point x="300.0" y="540.0" type="move" name="_top"/>
    </contour>
  </outline>
</glyph>
<glyph name="a" format="1">
  <advance width="519"/>
  <unicode hex="0061"/>
  <outline>
    <contour>
      <point x="499" y="0" type="line"/>
      <point x="499" y="19" type="line"/>
      <point x="414" y="19" type="line"/>
      <point x="414" y="352" type="line" smooth="yes"/>
      <point x="414" y="459"/>
      <point x="359" y="518"/>
      <point x="249" y="518" type="curve" smooth="yes"/>
      <point x="155" y="518"/>
      <point x="106" y="477"/>
      <point x="78" y="412" type="curve"/>
      <point x="96" y="404" type="line"/>
      <point x="124" y="470"/>
      <point x="173" y="499"/>
      <point x="249" y="499" type="curve" smooth="yes"/>
      <point x="343" y="499"/>
      <point x="393" y="453"/>
      <point x="393" y="349" type="curve" smooth="yes"/>
      <point x="393" y="275" type="line"/>
      <point x="251" y="275" type="line" smooth="yes"/>
      <point x="106" y="275"/>
      <point x="61" y="214"/>
      <point x="61" y="130" type="curve" smooth="yes"/>
      <point x="61" y="39"/>
      <point x="120" y="-12"/>
      <point x="224" y="-12" type="curve" smooth="yes" name="hr01"/>
      <point x="317" y="-12"/>
      <point x="365" y="29"/>
      <point x="390" y="77" type="curve"/>
      <point x="393" y="77" type="line"/>
      <point x="393" y="29" type="line" smooth="yes"/>
      <point x="393" y="9"/>
      <point x="402" y="0"/>
      <point x="422" y="0" type="curve" smooth="yes" name="hr02"/>
    </contour>
    <contour>
      <point x="224" y="7" type="curve" smooth="yes" name="hr03"/>
      <point x="142" y="7"/>
      <point x="84" y="45"/>
      <point x="84" y="115" type="curve" smooth="yes"/>
      <point x="84" y="145" type="line" smooth="yes"/>
      <point x="84" y="212"/>
      <point x="133" y="257"/>
      <point x="252" y="257" type="curve" smooth="yes"/>
      <point x="393" y="257" type="line"/>
      <point x="393" y="148" type="line" smooth="yes"/>
      <point x="393" y="54"/>
      <point x="314" y="7"/>
    </contour>
    <contour>
      <point x="224.0" y="0.0" type="move" name="bottom"/>
    </contour>
    <contour>
      <point x="499.0" y="0.0" type="move" name="bottomright"/>
    </contour>
    <contour>
      <point x="249.0" y="540.0" type="move" name="top"/>
    </contour>
  </outline>
</glyph>
<glyph name="h" format="1">
  <advance width="556"/>
  <unicode hex="0068"/>
  <outline>
    <contour>
      <point x="105" y="0" type="line" name="hr00"/>
      <point x="126" y="0" type="line"/>
      <point x="126" y="362" type="line" smooth="yes"/>
      <point x="126" y="454"/>
      <point x="202" y="499"/>
      <point x="285" y="499" type="curve" smooth="yes"/>
      <point x="384" y="499"/>
      <point x="440" y="444"/>
      <point x="440" y="321" type="curve" smooth="yes"/>
      <point x="440" y="0" type="line"/>
      <point x="461" y="0" type="line"/>
      <point x="461" y="325" type="line" smooth="yes"/>
      <point x="461" y="451"/>
      <point x="400" y="518"/>
      <point x="287" y="518" type="curve" smooth="yes"/>
      <point x="196" y="518"/>
      <point x="147" y="475"/>
      <point x="129" y="430" type="curve"/>
      <point x="126" y="430" type="line"/>
      <point x="126" y="740" type="line"/>
      <point x="105" y="740" type="line"/>
    </contour>
    <contour>
      <point x="280.0" y="0.0" type="move" name="bottom"/>
    </contour>
    <contour>
      <point x="115.0" y="698.0" type="move" name="top"/>
    </contour>
  </outline>
</glyph>
<glyph name="j" format="1">
  <advance width="231"/>
  <unicode hex="006A"/>
  <outline>
    <contour>
      <point x="105" y="-181" type="line"/>
      <point x="20" y="-181" type="line"/>
      <point x="20" y="-200" type="line"/>
      <point x="97" y="-200" type="line" smooth="yes"/>
      <point x="117" y="-200"/>
      <point x="126" y="-191"/>
      <point x="126" y="-171" type="curve" smooth="yes"/>
      <point x="126" y="506" type="line"/>
      <point x="105" y="506" type="line"/>
    </contour>
    <contour>
      <point x="115" y="673" type="curve" smooth="yes"/>
      <point x="132" y="673"/>
      <point x="138" y="683"/>
      <point x="138" y="694" type="curve" smooth="yes" name="hr01"/>
      <point x="138" y="701" type="line" smooth="yes"/>
      <point x="138" y="712"/>
      <point x="132" y="722"/>
      <point x="115" y="722" type="curve" smooth="yes"/>
      <point x="98" y="722"/>
      <point x="92" y="712"/>
      <point x="92" y="701" type="curve" smooth="yes"/>
      <point x="92" y="694" type="line" smooth="yes"/>
      <point x="92" y="683"/>
      <point x="98" y="673"/>
    </contour>
  </outline>
</glyph>
<glyph name="u" format="1">
  <advance width="556"/>
  <unicode hex="0075"/>
  <outline>
    <contour>
      <point x="430" y="0" type="line"/>
      <point x="451" y="0" type="line"/>
      <point x="451" y="506" type="line"/>
      <point x="430" y="506" type="line"/>
      <point x="430" y="144" type="line" smooth="yes"/>
      <point x="430" y="52"/>
      <point x="354" y="7"/>
      <point x="271" y="7" type="curve" smooth="yes" name="hr01"/>
      <point x="172" y="7"/>
      <point x="116" y="62"/>
      <point x="116" y="185" type="curve" smooth="yes"/>
      <point x="116" y="506" type="line"/>
      <point x="95" y="506" type="line"/>
      <point x="95" y="181" type="line" smooth="yes"/>
      <point x="95" y="55"/>
      <point x="156" y="-12"/>
      <point x="269" y="-12" type="curve" smooth="yes"/>
      <point x="360" y="-12"/>
      <point x="409" y="31"/>
      <point x="427" y="76" type="curve" name="hr02"/>
      <point x="430" y="76" type="line"/>
    </contour>
    <contour>
      <point x="269.0" y="0.0" type="move" name="bottom"/>
    </contour>
    <contour>
      <point x="451.0" y="0.0" type="move" name="bottomright"/>
    </contour>
    <contour>
      <point x="273.0" y="540.0" type="move" name="top"/>
    </contour>
  </outline>
</glyph>
<glyph name="v" format="1">
  <advance width="452"/>
  <unicode hex="0076"/>
  <outline>
    <contour>
      <point x="213" y="0" type="line" name="hr00"/>
      <point x="239" y="0" type="line"/>
      <point x="427" y="506" type="line"/>
      <point x="406" y="506" type="line"/>
      <point x="228" y="24" type="line"/>
      <point x="225" y="24" type="line"/>
      <point x="47" y="506" type="line"/>
      <point x="25" y="506" type="line"/>
    </contour>
    <contour>
      <point x="226.0" y="0.0" type="move" name="bottom"/>
    </contour>
    <contour>
      <point x="226.0" y="540.0" type="move" name="top"/>
    </contour>
  </outline>
</glyph>
<glyph name="x" format="1">
  <advance width="470"/>
  <unicode hex="0078"/>
  <outline>
    <contour>
      <point x="58" y="0" type="line" name="hr00"/>
      <point x="234" y="239" type="line"/>
      <point x="236" y="239" type="line"/>
      <point x="412" y="0" type="line"/>
      <point x="436" y="0" type="line"/>
      <point x="248" y="255" type="line"/>
      <point x="431" y="506" type="line"/>
      <point x="407" y="506" type="line"/>
      <point x="236" y="271" type="line"/>
      <point x="234" y="271" type="line"/>
      <point x="63" y="506" type="line"/>
      <point x="39" y="506" type="line"/>
      <point x="222" y="255" type="line"/>
      <point x="34" y="0" type="line"/>
    </contour>
    <contour>
      <point x="236.0" y="0.0" type="move" name="bottom"/>
    </contour>
    <contour>
      <point x="236.0" y="540.0" type="move" name="top"/>
    </contour>
  </outline>
</glyph>
<glyph name="braceleft" format="1">
  <advance width="315"/>
  <unicode hex="007B"/>
  <outline>
    <contour>
      <point x="247" y="-138" type="line" name="hr00"/>
      <point x="247" y="-120" type="line"/>
      <point x="142" y="-120" type="line"/>
      <point x="142" y="201" type="line" smooth="yes"/>
      <point x="142" y="263"/>
      <point x="103" y="303"/>
      <point x="43" y="303" type="curve"/>
      <point x="43" y="319" type="line"/>
      <point x="103" y="319"/>
      <point x="142" y="359"/>
      <point x="142" y="421" type="curve" smooth="yes"/>
      <point x="142" y="742" type="line"/>
      <point x="247" y="742" type="line"/>
      <point x="247" y="760" type="line"/>
      <point x="147" y="760" type="line" smooth="yes"/>
      <point x="130" y="760"/>
      <point x="122" y="753"/>
      <point x="122" y="734" type="curve" smooth="yes"/>
      <point x="122" y="421" type="line" smooth="yes"/>
      <point x="122" y="361"/>
      <point x="85" y="335"/>
      <point x="25" y="335" type="curve"/>
      <point x="25" y="287" type="line"/>
      <point x="85" y="287"/>
      <point x="122" y="261"/>
      <point x="122" y="201" type="curve" smooth="yes"/>
      <point x="122" y="-112" type="line" smooth="yes"/>
      <point x="122" y="-131"/>
      <point x="130" y="-138"/>
      <point x="147" y="-138" type="curve" smooth="yes"/>
    </contour>
  </outline>
</glyph>
<glyph name="braceright" format="1">
  <advance width="315"/>
  <unicode hex="007D"/>
  <outline>
    <contour>
      <point x="68" y="760" type="line" name="hr00"/>
      <point x="68" y="742" type="line"/>
      <point x="173" y="742" type="line"/>
      <point x="173" y="421" type="line" smooth="yes"/>
      <point x="173" y="359"/>
      <point x="212" y="319"/>
      <point x="272" y="319" type="curve"/>
      <point x="272" y="303" type="line"/>
      <point x="212" y="303"/>
      <point x="173" y="263"/>
      <point x="173" y="201" type="curve" smooth="yes"/>
      <point x="173" y="-120" type="line"/>
      <point x="68" y="-120" type="line"/>
      <point x="68" y="-138" type="line"/>
      <point x="168" y="-138" type="line" smooth="yes"/>
      <point x="185" y="-138"/>
      <point x="193" y="-131"/>
      <point x="193" y="-112" type="curve" smooth="yes"/>
      <point x="193" y="201" type="line" smooth="yes"/>
      <point x="193" y="261"/>
      <point x="230" y="287"/>
      <point x="290" y="287" type="curve"/>
      <point x="290" y="335" type="line"/>
      <point x="230" y="335"/>
      <point x="193" y="361"/>
      <point x="193" y="421" type="curve" smooth="yes"/>
      <point x="193" y="734" type="line" smooth="yes"/>
      <point x="193" y="753"/>
      <point x="185" y="760"/>
      <point x="168" y="760" type="curve" smooth="yes"/>
    </contour>
  </outline>
</glyph>
<glyph name="asciitilde" format="1">
  <advance width="600"/>
  <unicode hex="007E"/>
  <outline>
    <contour>
      <point x="424" y="256" type="curve" smooth="yes" name="hr00"/>
      <point x="468" y="256"/>
      <point x="501" y="271"/>
      <point x="535" y="304" type="curve"/>
      <point x="522" y="318" type="line"/>
      <point x="490" y="288"/>
      <point x="464" y="276"/>
      <point x="425" y="276" type="curve" smooth="yes"/>
      <point x="389" y="276"/>
      <point x="364" y="287"/>
      <point x="306" y="313" type="curve" smooth="yes"/>
      <point x="244" y="341"/>
      <point x="214" y="352"/>
      <point x="176" y="352" type="curve" smooth="yes"/>
      <point x="132" y="352"/>
      <point x="99" y="337"/>
      <point x="65" y="304" type="curve"/>
      <point x="78" y="290" type="line"/>
      <point x="110" y="320"/>
      <point x="136" y="332"/>
      <point x="175" y="332" type="curve" smooth="yes"/>
      <point x="211" y="332"/>
      <point x="236" y="321"/>
      <point x="294" y="295" type="curve" smooth="yes"/>
      <point x="356" y="267"/>
      <point x="386" y="256"/>
    </contour>
  </outline>
</glyph>
<glyph name="exclamdown" format="1">
  <advance width="252"/>
  <unicode hex="00A1"/>
  <outline>
    <contour>
      <point x="120" y="330" type="line"/>
      <point x="115" y="91" type="line"/>
      <point x="115" y="-192" type="line"/>
      <point x="137" y="-192" type="line"/>
      <point x="137" y="91" type="line"/>
      <point x="132" y="330" type="line"/>
    </contour>
    <contour>
      <point x="126" y="511" type="curve" smooth="yes"/>
      <point x="109" y="511"/>
      <point x="99" y="502"/>
      <point x="99" y="486" type="curve" smooth="yes" name="hr01"/>
      <point x="99" y="478" type="line" smooth="yes"/>
      <point x="99" y="462"/>
      <point x="108" y="453"/>
      <point x="126" y="453" type="curve" smooth="yes"/>
      <point x="144" y="453"/>
      <point x="153" y="462"/>
      <point x="153" y="478" type="curve" smooth="yes"/>
      <point x="153" y="486" type="line" smooth="yes"/>
      <point x="153" y="502"/>
      <point x="143" y="511"/>
    </contour>
  </outline>
</glyph>
<glyph name="cent" format="1">
  <advance width="497"/>
  <unicode hex="00A2"/>
  <outline>
    <contour>
      <point x="273" y="-114" type="line" name="hr00"/>
      <point x="273" y="-12" type="line"/>
      <point x="358" y="-12"/>
      <point x="411" y="27"/>
      <point x="444" y="84" type="curve"/>
      <point x="428" y="95" type="line"/>
      <point x="396" y="41"/>
      <point x="349" y="8"/>
      <point x="273" y="7" type="curve"/>
      <point x="273" y="499" type="line"/>
      <point x="342" y="499"/>
      <point x="385" y="467"/>
      <point x="417" y="409" type="curve"/>
      <point x="435" y="418" type="line"/>
      <point x="404" y="477"/>
      <point x="351" y="517"/>
      <point x="273" y="518" type="curve"/>
      <point x="273" y="620" type="line"/>
      <point x="253" y="620" type="line"/>
      <point x="253" y="517" type="line"/>
      <point x="131" y="510"/>
      <point x="60" y="420"/>
      <point x="60" y="253" type="curve" smooth="yes"/>
      <point x="60" y="86"/>
      <point x="131" y="-4"/>
      <point x="253" y="-11" type="curve"/>
      <point x="253" y="-114" type="line"/>
    </contour>
    <contour>
      <point x="83" y="229" type="curve" smooth="yes"/>
      <point x="83" y="277" type="line" smooth="yes"/>
      <point x="83" y="406"/>
      <point x="144" y="491"/>
      <point x="253" y="498" type="curve"/>
      <point x="253" y="8" type="line"/>
      <point x="144" y="15"/>
      <point x="83" y="100"/>
    </contour>
  </outline>
</glyph>
<glyph name="currency" format="1">
  <advance width="586"/>
  <unicode hex="00A4"/>
  <outline>
    <contour>
      <point x="293" y="129" type="curve" smooth="yes" name="hr00"/>
      <point x="356" y="129"/>
      <point x="406" y="150"/>
      <point x="439" y="189" type="curve"/>
      <point x="549" y="78" type="line"/>
      <point x="564" y="93" type="line"/>
      <point x="452" y="206" type="line"/>
      <point x="474" y="240"/>
      <point x="486" y="289"/>
      <point x="486" y="349" type="curve" smooth="yes"/>
      <point x="486" y="409"/>
      <point x="474" y="458"/>
      <point x="452" y="492" type="curve"/>
      <point x="564" y="605" type="line"/>
      <point x="549" y="620" type="line"/>
      <point x="439" y="509" type="line"/>
      <point x="406" y="548"/>
      <point x="356" y="569"/>
      <point x="293" y="569" type="curve" smooth="yes"/>
      <point x="230" y="569"/>
      <point x="180" y="548"/>
      <point x="147" y="509" type="curve"/>
      <point x="37" y="620" type="line"/>
      <point x="22" y="605" type="line"/>
      <point x="134" y="492" type="line"/>
      <point x="112" y="458"/>
      <point x="100" y="409"/>
      <point x="100" y="349" type="curve" smooth="yes"/>
      <point x="100" y="289"/>
      <point x="112" y="240"/>
      <point x="134" y="206" type="curve"/>
      <point x="22" y="93" type="line"/>
      <point x="37" y="78" type="line"/>
      <point x="147" y="189" type="line"/>
      <point x="180" y="150"/>
      <point x="230" y="129"/>
    </contour>
    <contour>
      <point x="293" y="148" type="curve" smooth="yes"/>
      <point x="185" y="148"/>
      <point x="123" y="216"/>
      <point x="123" y="326" type="curve" smooth="yes"/>
      <point x="123" y="372" type="line" smooth="yes"/>
      <point x="123" y="482"/>
      <point x="185" y="550"/>
      <point x="293" y="550" type="curve" smooth="yes"/>
      <point x="401" y="550"/>
      <point x="463" y="482"/>
      <point x="463" y="372" type="curve" smooth="yes"/>
      <point x="463" y="326" type="line" smooth="yes"/>
      <point x="463" y="216"/>
      <point x="401" y="148"/>
    </contour>
  </outline>
</glyph>
<glyph name="yen" format="1">
  <advance width="580"/>
  <unicode hex="00A5"/>
  <outline>
    <contour>
      <point x="499" y="168" type="line" name="hr00"/>
      <point x="499" y="187" type="line"/>
      <point x="301" y="187" type="line"/>
      <point x="301" y="325" type="line"/>
      <point x="499" y="325" type="line"/>
      <point x="499" y="344" type="line"/>
      <point x="313" y="344" type="line"/>
      <point x="532" y="698" type="line"/>
      <point x="508" y="698" type="line"/>
      <point x="292" y="348" type="line"/>
      <point x="289" y="348" type="line"/>
      <point x="73" y="698" type="line"/>
      <point x="48" y="698" type="line"/>
      <point x="267" y="344" type="line"/>
      <point x="81" y="344" type="line"/>
      <point x="81" y="325" type="line"/>
      <point x="279" y="325" type="line"/>
      <point x="279" y="187" type="line"/>
      <point x="81" y="187" type="line"/>
      <point x="81" y="168" type="line"/>
      <point x="279" y="168" type="line"/>
      <point x="279" y="0" type="line"/>
      <point x="301" y="0" type="line"/>
      <point x="301" y="168" type="line"/>
    </contour>
  </outline>
</glyph>
<glyph name="brokenbar" format="1">
  <advance width="236"/>
  <unicode hex="00A6"/>
  <outline>
    <contour>
      <point x="128" y="401" type="line" name="hr00"/>
      <point x="128" y="760" type="line"/>
      <point x="108" y="760" type="line"/>
      <point x="108" y="401" type="line"/>
    </contour>
    <contour>
      <point x="128" y="-138" type="line"/>
      <point x="128" y="221" type="line"/>
      <point x="108" y="221" type="line"/>
      <point x="108" y="-138" type="line"/>
    </contour>
  </outline>
</glyph>
<glyph name="ordfeminine" format="1">
  <advance width="353"/>
  <unicode hex="00AA"/>
  <outline>
    <contour>
      <point x="329" y="383" type="line"/>
      <point x="282" y="383" type="line"/>
      <point x="282" y="601" type="line" smooth="yes"/>
      <point x="282" y="666"/>
      <point x="238" y="704"/>
      <point x="164" y="704" type="curve" smooth="yes"/>
      <point x="105" y="704"/>
      <point x="68" y="678"/>
      <point x="50" y="637" type="curve"/>
      <point x="65" y="629" type="line"/>
      <point x="83" y="670"/>
      <point x="120" y="687"/>
      <point x="164" y="687" type="curve" smooth="yes"/>
      <point x="226" y="687"/>
      <point x="263" y="658"/>
      <point x="263" y="598" type="curve" smooth="yes"/>
      <point x="263" y="542" type="line"/>
      <point x="167" y="542" type="line" smooth="yes"/>
      <point x="73" y="542"/>
      <point x="40" y="505"/>
      <point x="40" y="449" type="curve" smooth="yes"/>
      <point x="40" y="395"/>
      <point x="78" y="360"/>
      <point x="149" y="360" type="curve" smooth="yes" name="hr01"/>
      <point x="212" y="360"/>
      <point x="246" y="387"/>
      <point x="261" y="415" type="curve"/>
      <point x="263" y="415" type="line"/>
      <point x="263" y="385" type="line" smooth="yes"/>
      <point x="263" y="372"/>
      <point x="268" y="366"/>
      <point x="281" y="366" type="curve" smooth="yes" name="hr02"/>
      <point x="329" y="366" type="line"/>
    </contour>
    <contour>
      <point x="263" y="525" type="line"/>
      <point x="263" y="461" type="line" smooth="yes"/>
      <point x="263" y="404"/>
      <point x="210" y="377"/>
      <point x="149" y="377" type="curve" smooth="yes" name="hr03"/>
      <point x="96" y="377"/>
      <point x="61" y="400"/>
      <point x="61" y="443" type="curve" smooth="yes"/>
      <point x="61" y="456" type="line" smooth="yes"/>
      <point x="61" y="498"/>
      <point x="89" y="525"/>
      <point x="166" y="525" type="curve" smooth="yes"/>
    </contour>
  </outline>
</glyph>
<glyph name="logicalnot" format="1">
  <advance width="600"/>
  <unicode hex="00AC"/>
  <outline>
    <contour>
      <point x="522" y="104" type="line" name="hr00"/>
      <point x="522" y="315" type="line"/>
      <point x="62" y="315" type="line"/>
      <point x="62" y="296" type="line"/>
      <point x="501" y="296" type="line"/>
      <point x="501" y="104" type="line"/>
    </contour>
  </outline>
</glyph>
<glyph name="registered" format="1">
  <advance width="466"/>
  <unicode hex="00AE"/>
  <outline>
    <contour>
      <point x="233" y="298" type="curve" smooth="yes" name="hr00"/>
      <point x="348" y="298"/>
      <point x="431" y="382"/>
      <point x="431" y="504" type="curve" smooth="yes"/>
      <point x="431" y="626"/>
      <point x="348" y="710"/>
      <point x="233" y="710" type="curve" smooth="yes"/>
      <point x="118" y="710"/>
      <point x="35" y="626"/>
      <point x="35" y="504" type="curve" smooth="yes"/>
      <point x="35" y="382"/>
      <point x="118" y="298"/>
    </contour>
    <contour>
      <point x="233" y="314" type="curve" smooth="yes"/>
      <point x="130" y="314"/>
      <point x="54" y="390"/>
      <point x="54" y="494" type="curve" smooth="yes"/>
      <point x="54" y="514" type="line" smooth="yes"/>
      <point x="54" y="618"/>
      <point x="130" y="694"/>
      <point x="233" y="694" type="curve" smooth="yes"/>
      <point x="336" y="694"/>
      <point x="412" y="618"/>
      <point x="412" y="514" type="curve" smooth="yes"/>
      <point x="412" y="494" type="line" smooth="yes"/>
      <point x="412" y="390"/>
      <point x="336" y="314"/>
    </contour>
    <contour>
      <point x="184" y="488" type="line"/>
      <point x="247" y="488" type="line"/>
      <point x="299" y="397" type="line"/>
      <point x="318" y="397" type="line"/>
      <point x="264" y="489" type="line"/>
      <point x="292" y="490"/>
      <point x="312" y="511"/>
      <point x="312" y="547" type="curve" smooth="yes"/>
      <point x="312" y="591"/>
      <point x="288" y="609"/>
      <point x="249" y="609" type="curve" smooth="yes"/>
      <point x="168" y="609" type="line"/>
      <point x="168" y="397" type="line"/>
      <point x="184" y="397" type="line"/>
    </contour>
    <contour>
      <point x="184" y="503" type="line"/>
      <point x="184" y="594" type="line"/>
      <point x="248" y="594" type="line" smooth="yes"/>
      <point x="281" y="594"/>
      <point x="294" y="583"/>
      <point x="294" y="552" type="curve" smooth="yes"/>
      <point x="294" y="545" type="line" smooth="yes"/>
      <point x="294" y="515"/>
      <point x="281" y="503"/>
      <point x="248" y="503" type="curve" smooth="yes"/>
    </contour>
  </outline>
</glyph>
<glyph name="degree" format="1">
  <advance width="466"/>
  <unicode hex="00B0"/>
  <outline>
    <contour>
      <point x="233" y="374" type="curve" smooth="yes" name="hr00"/>
      <point x="325" y="374"/>
      <point x="395" y="447"/>
      <point x="395" y="542" type="curve" smooth="yes"/>
      <point x="395" y="637"/>
      <point x="325" y="710"/>
      <point x="233" y="710" type="curve" smooth="yes"/>
      <point x="140" y="710"/>
      <point x="71" y="637"/>
      <point x="71" y="542" type="curve" smooth="yes"/>
      <point x="71" y="447"/>
      <point x="140" y="374"/>
    </contour>
    <contour>
      <point x="233" y="393" type="curve" smooth="yes"/>
      <point x="147" y="393"/>
      <point x="92" y="460"/>
      <point x="92" y="542" type="curve" smooth="yes"/>
      <point x="92" y="624"/>
      <point x="147" y="691"/>
      <point x="233" y="691" type="curve" smooth="yes"/>
      <point x="319" y="691"/>
      <point x="374" y="623"/>
      <point x="374" y="542" type="curve" smooth="yes"/>
      <point x="374" y="461"/>
      <point x="319" y="393"/>
    </contour>
  </outline>
</glyph>
<glyph name="plusminus" format="1">
  <advance width="600"/>
  <unicode hex="00B1"/>
  <outline>
    <contour>
      <point x="311" y="115" type="line" name="hr00"/>
      <point x="311" y="349" type="line"/>
      <point x="539" y="349" type="line"/>
      <point x="539" y="368" type="line"/>
      <point x="311" y="368" type="line"/>
      <point x="311" y="602" type="line"/>
      <point x="290" y="602" type="line"/>
      <point x="290" y="368" type="line"/>
      <point x="62" y="368" type="line"/>
      <point x="62" y="349" type="line"/>
      <point x="290" y="349" type="line"/>
      <point x="290" y="115" type="line"/>
    </contour>
    <contour>
      <point x="538" y="0" type="line"/>
      <point x="538" y="19" type="line"/>
      <point x="62" y="19" type="line"/>
      <point x="62" y="0" type="line"/>
    </contour>
  </outline>
</glyph>
<glyph name="acute" format="1">
  <advance width="600"/>
  <unicode hex="00B4"/>
  <outline>
    <contour>
      <point x="397" y="739" type="line" name="hr00"/>
      <point x="378" y="751" type="line"/>
      <point x="267" y="597" type="line"/>
      <point x="282" y="587" type="line"/>
    </contour>
    <contour>
      <point x="300.0" y="540.0" type="move" name="_top"/>
    </contour>
  </outline>
</glyph>
<glyph name="mu" format="1">
  <advance width="566"/>
  <unicode hex="00B5"/>
  <outline>
    <contour>
      <point x="126" y="-200" type="line"/>
      <point x="126" y="-44" type="line"/>
      <point x="121" y="79" type="line"/>
      <point x="124" y="79" type="line"/>
      <point x="150" y="19"/>
      <point x="202" y="-12"/>
      <point x="279" y="-12" type="curve" smooth="yes"/>
      <point x="370" y="-12"/>
      <point x="419" y="31"/>
      <point x="437" y="76" type="curve"/>
      <point x="440" y="76" type="line"/>
      <point x="440" y="0" type="line" name="hr01"/>
      <point x="461" y="0" type="line"/>
      <point x="461" y="506" type="line"/>
      <point x="440" y="506" type="line"/>
      <point x="440" y="144" type="line" smooth="yes"/>
      <point x="440" y="52"/>
      <point x="364" y="7"/>
      <point x="281" y="7" type="curve" smooth="yes" name="hr02"/>
      <point x="182" y="7"/>
      <point x="126" y="62"/>
      <point x="126" y="185" type="curve" smooth="yes"/>
      <point x="126" y="506" type="line"/>
      <point x="105" y="506" type="line"/>
      <point x="105" y="-200" type="line"/>
    </contour>
  </outline>
</glyph>
<glyph name="paragraph" format="1">
  <advance width="591"/>
  <unicode hex="00B6"/>
  <outline>
    <contour>
      <point x="250" y="-149" type="line" name="hr00"/>
      <point x="271" y="-149" type="line"/>
      <point x="271" y="680" type="line"/>
      <point x="403" y="680" type="line"/>
      <point x="403" y="-149" type="line"/>
      <point x="424" y="-149" type="line"/>
      <point x="424" y="680" type="line"/>
      <point x="493" y="680" type="line"/>
      <point x="493" y="698" type="line"/>
      <point x="250" y="698" type="line" smooth="yes"/>
      <point x="141" y="698"/>
      <point x="51" y="631"/>
      <point x="51" y="514" type="curve" smooth="yes"/>
      <point x="51" y="397"/>
      <point x="141" y="330"/>
      <point x="250" y="330" type="curve"/>
    </contour>
  </outline>
</glyph>
<glyph name="periodcentered" format="1">
  <advance width="298"/>
  <unicode hex="00B7"/>
  <outline>
    <contour>
      <point x="149" y="277" type="curve" smooth="yes" name="hr00"/>
      <point x="166" y="277"/>
      <point x="176" y="286"/>
      <point x="176" y="302" type="curve" smooth="yes"/>
      <point x="176" y="310" type="line" smooth="yes"/>
      <point x="176" y="326"/>
      <point x="167" y="335"/>
      <point x="149" y="335" type="curve" smooth="yes"/>
      <point x="131" y="335"/>
      <point x="122" y="326"/>
      <point x="122" y="310" type="curve" smooth="yes"/>
      <point x="122" y="302" type="line" smooth="yes"/>
      <point x="122" y="286"/>
      <point x="132" y="277"/>
    </contour>
  </outline>
</glyph>
<glyph name="onesuperior" format="1">
  <advance width="373"/>
  <unicode hex="00B9"/>
  <outline>
    <contour>
      <point x="326" y="329" type="line" name="hr00"/>
      <point x="326" y="346" type="line"/>
      <point x="208" y="346" type="line"/>
      <point x="208" y="698" type="line"/>
      <point x="176" y="698" type="line"/>
      <point x="49" y="591" type="line"/>
      <point x="60" y="578" type="line"/>
      <point x="185" y="683" type="line"/>
      <point x="189" y="683" type="line"/>
      <point x="189" y="346" type="line"/>
      <point x="60" y="346" type="line"/>
      <point x="60" y="329" type="line"/>
    </contour>
  </outline>
</glyph>
<glyph name="questiondown" format="1">
  <advance width="456"/>
  <unicode hex="00BF"/>
  <outline>
    <contour>
      <point x="220" y="-204" type="curve" smooth="yes"/>
      <point x="327" y="-204"/>
      <point x="392" y="-148"/>
      <point x="419" y="-53" type="curve"/>
      <point x="399" y="-48" type="line"/>
      <point x="374" y="-135"/>
      <point x="319" y="-185"/>
      <point x="220" y="-185" type="curve" smooth="yes"/>
      <point x="118" y="-185"/>
      <point x="58" y="-124"/>
      <point x="58" y="-36" type="curve" smooth="yes"/>
      <point x="58" y="-10" type="line" smooth="yes"/>
      <point x="58" y="87"/>
      <point x="131" y="155"/>
      <point x="258" y="157" type="curve" name="hr01"/>
      <point x="258" y="330" type="line"/>
      <point x="236" y="330" type="line"/>
      <point x="236" y="176" type="line"/>
      <point x="107" y="164"/>
      <point x="35" y="91"/>
      <point x="35" y="-25" type="curve" smooth="yes"/>
      <point x="35" y="-132"/>
      <point x="105" y="-204"/>
    </contour>
    <contour>
      <point x="247" y="453" type="curve" smooth="yes"/>
      <point x="265" y="453"/>
      <point x="274" y="462"/>
      <point x="274" y="478" type="curve" smooth="yes"/>
      <point x="274" y="486" type="line" smooth="yes"/>
      <point x="274" y="502"/>
      <point x="264" y="511"/>
      <point x="247" y="511" type="curve" smooth="yes"/>
      <point x="230" y="511"/>
      <point x="220" y="502"/>
      <point x="220" y="486" type="curve" smooth="yes"/>
      <point x="220" y="478" type="line" smooth="yes"/>
      <point x="220" y="462"/>
      <point x="229" y="453"/>
    </contour>
  </outline>
</glyph>
<glyph name="AE" format="1">
  <advance width="861"/>
  <unicode hex="00C6"/>
  <outline>
    <contour>
      <point x="408" y="0" type="line" name="hr00"/>
      <point x="789" y="0" type="line"/>
      <point x="789" y="20" type="line"/>
      <point x="430" y="20" type="line"/>
      <point x="430" y="344" type="line"/>
      <point x="777" y="344" type="line"/>
      <point x="777" y="364" type="line"/>
      <point x="430" y="364" type="line"/>
      <point x="430" y="678" type="line"/>
      <point x="789" y="678" type="line"/>
      <point x="789" y="698" type="line"/>
      <point x="385" y="698" type="line"/>
      <point x="2" y="0" type="line"/>
      <point x="26" y="0" type="line"/>
      <point x="155" y="234" type="line"/>
      <point x="408" y="234" type="line"/>
    </contour>
    <contour>
      <point x="408" y="678" type="line"/>
      <point x="408" y="253" type="line"/>
      <point x="165" y="253" type="line"/>
      <point x="397" y="678" type="line"/>
    </contour>
    <contour>
      <point x="602.0" y="698.0" type="move" name="top"/>
    </contour>
  </outline>
</glyph>
<glyph name="multiply" format="1">
  <advance width="600"/>
  <unicode hex="00D7"/>
  <outline>
    <contour>
      <point x="481" y="110" type="line" name="hr00"/>
      <point x="495" y="123" type="line"/>
      <point x="313" y="305" type="line"/>
      <point x="495" y="487" type="line"/>
      <point x="481" y="500" type="line"/>
      <point x="300" y="318" type="line"/>
      <point x="119" y="500" type="line"/>
      <point x="105" y="487" type="line"/>
      <point x="287" y="305" type="line"/>
      <point x="105" y="123" type="line"/>
      <point x="119" y="110" type="line"/>
      <point x="300" y="292" type="line"/>
    </contour>
  </outline>
</glyph>
<glyph name="Thorn" format="1">
  <advance width="594"/>
  <unicode hex="00DE"/>
  <outline>
    <contour>
      <point x="130" y="0" type="line" name="hr00"/>
      <point x="130" y="166" type="line"/>
      <point x="376" y="166" type="line" smooth="yes"/>
      <point x="490" y="166"/>
      <point x="550" y="240"/>
      <point x="550" y="354" type="curve" smooth="yes"/>
      <point x="550" y="468"/>
      <point x="490" y="542"/>
      <point x="376" y="542" type="curve" smooth="yes"/>
      <point x="130" y="542" type="line"/>
      <point x="130" y="698" type="line"/>
      <point x="108" y="698" type="line"/>
      <point x="108" y="0" type="line"/>
    </contour>
    <contour>
      <point x="130" y="522" type="line"/>
      <point x="376" y="522" type="line" smooth="yes"/>
      <point x="479" y="522"/>
      <point x="526" y="451"/>
      <point x="526" y="375" type="curve" smooth="yes"/>
      <point x="526" y="333" type="line" smooth="yes"/>
      <point x="526" y="257"/>
      <point x="479" y="186"/>
      <point x="376" y="186" type="curve" smooth="yes"/>
      <point x="130" y="186" type="line"/>
    </contour>
  </outline>
</glyph>
<glyph name="eth" format="1">
  <advance width="544"/>
  <unicode hex="00F0"/>
  <outline>
    <contour>
      <point x="394" y="752" type="line" name="hr00"/>
      <point x="283" y="672" type="line"/>
      <point x="250" y="701"/>
      <point x="223" y="722"/>
      <point x="192" y="740" type="curve"/>
      <point x="156" y="740" type="line"/>
      <point x="198" y="719"/>
      <point x="242" y="686"/>
      <point x="269" y="662" type="curve"/>
      <point x="164" y="586" type="line"/>
      <point x="174" y="572" type="line"/>
      <point x="282" y="650" type="line"/>
      <point x="342" y="590"/>
      <point x="397" y="516"/>
      <point x="432" y="421" type="curve"/>
      <point x="429" y="419" type="line"/>
      <point x="393" y="472"/>
      <point x="339" y="500"/>
      <point x="270" y="500" type="curve" smooth="yes"/>
      <point x="145" y="500"/>
      <point x="60" y="407"/>
      <point x="60" y="248" type="curve" smooth="yes"/>
      <point x="60" y="83"/>
      <point x="145" y="-12"/>
      <point x="270" y="-12" type="curve" smooth="yes"/>
      <point x="395" y="-12"/>
      <point x="480" y="83"/>
      <point x="480" y="248" type="curve" smooth="yes"/>
      <point x="480" y="420"/>
      <point x="391" y="570"/>
      <point x="296" y="660" type="curve"/>
      <point x="404" y="738" type="line"/>
    </contour>
    <contour>
      <point x="270" y="7" type="curve" smooth="yes"/>
      <point x="161" y="7"/>
      <point x="83" y="87"/>
      <point x="83" y="218" type="curve" smooth="yes"/>
      <point x="83" y="270" type="line" smooth="yes"/>
      <point x="83" y="401"/>
      <point x="161" y="481"/>
      <point x="270" y="481" type="curve" smooth="yes"/>
      <point x="379" y="481"/>
      <point x="457" y="400"/>
      <point x="457" y="270" type="curve" smooth="yes"/>
      <point x="457" y="218" type="line" smooth="yes"/>
      <point x="457" y="88"/>
      <point x="379" y="7"/>
    </contour>
  </outline>
</glyph>
<glyph name="thorn" format="1">
  <advance width="565"/>
  <unicode hex="00FE"/>
  <outline>
    <contour>
      <point x="105" y="-200" type="line" name="hr00"/>
      <point x="126" y="-200" type="line"/>
      <point x="126" y="78" type="line"/>
      <point x="129" y="78" type="line"/>
      <point x="150" y="34"/>
      <point x="204" y="-12"/>
      <point x="293" y="-12" type="curve" smooth="yes"/>
      <point x="426" y="-12"/>
      <point x="505" y="77"/>
      <point x="505" y="253" type="curve" smooth="yes"/>
      <point x="505" y="429"/>
      <point x="426" y="518"/>
      <point x="293" y="518" type="curve" smooth="yes"/>
      <point x="204" y="518"/>
      <point x="150" y="472"/>
      <point x="129" y="428" type="curve"/>
      <point x="126" y="428" type="line"/>
      <point x="126" y="740" type="line"/>
      <point x="105" y="740" type="line"/>
    </contour>
    <contour>
      <point x="293" y="7" type="curve" smooth="yes"/>
      <point x="205" y="7"/>
      <point x="126" y="62"/>
      <point x="126" y="143" type="curve" smooth="yes"/>
      <point x="126" y="363" type="line" smooth="yes"/>
      <point x="126" y="444"/>
      <point x="205" y="499"/>
      <point x="293" y="499" type="curve" smooth="yes"/>
      <point x="414" y="499"/>
      <point x="482" y="414"/>
      <point x="482" y="277" type="curve" smooth="yes"/>
      <point x="482" y="229" type="line" smooth="yes"/>
      <point x="482" y="92"/>
      <point x="414" y="7"/>
    </contour>
  </outline>
</glyph>
<glyph name="Dcroat" format="1">
  <advance width="661"/>
  <unicode hex="0110"/>
  <outline>
    <contour>
      <point x="111" y="0" type="line" name="hr00"/>
      <point x="315" y="0" type="line" smooth="yes"/>
      <point x="501" y="0"/>
      <point x="591" y="118"/>
      <point x="591" y="349" type="curve" smooth="yes"/>
      <point x="591" y="580"/>
      <point x="501" y="698"/>
      <point x="315" y="698" type="curve" smooth="yes"/>
      <point x="111" y="698" type="line"/>
      <point x="111" y="378" type="line"/>
      <point x="28" y="378" type="line"/>
      <point x="28" y="359" type="line"/>
      <point x="111" y="359" type="line"/>
    </contour>
    <contour>
      <point x="133" y="20" type="line"/>
      <point x="133" y="359" type="line"/>
      <point x="305" y="359" type="line"/>
      <point x="305" y="378" type="line"/>
      <point x="133" y="378" type="line"/>
      <point x="133" y="678" type="line"/>
      <point x="316" y="678" type="line" smooth="yes"/>
      <point x="489" y="678"/>
      <point x="567" y="560"/>
      <point x="567" y="379" type="curve" smooth="yes"/>
      <point x="567" y="319" type="line" smooth="yes"/>
      <point x="567" y="138"/>
      <point x="489" y="20"/>
      <point x="316" y="20" type="curve" smooth="yes"/>
    </contour>
  </outline>
</glyph>
<glyph name="dotlessi" format="1">
  <advance width="231"/>
  <unicode hex="0131"/>
  <outline>
    <contour>
      <point x="126" y="0" type="line" name="hr00"/>
      <point x="126" y="506" type="line"/>
      <point x="105" y="506" type="line"/>
      <point x="105" y="0" type="line"/>
    </contour>
    <contour>
      <point x="115.0" y="540.0" type="move" name="top"/>
    </contour>
  </outline>
</glyph>
<glyph name="Lslash" format="1">
  <advance width="478"/>
  <unicode hex="0141"/>
  <outline>
    <contour>
      <point x="458" y="20" type="line" name="hr00"/>
      <point x="133" y="20" type="line"/>
      <point x="133" y="310" type="line"/>
      <point x="337" y="374" type="line"/>
      <point x="337" y="394" type="line"/>
      <point x="133" y="330" type="line"/>
      <point x="133" y="698" type="line"/>
      <point x="111" y="698" type="line"/>
      <point x="111" y="323" type="line"/>
      <point x="14" y="292" type="line"/>
      <point x="14" y="272" type="line"/>
      <point x="111" y="303" type="line"/>
      <point x="111" y="0" type="line"/>
      <point x="458" y="0" type="line"/>
    </contour>
  </outline>
</glyph>
<glyph name="lslash" format="1">
  <advance width="257"/>
  <unicode hex="0142"/>
  <outline>
    <contour>
      <point x="214" y="19" type="line" name="hr00"/>
      <point x="129" y="19" type="line"/>
      <point x="129" y="358" type="line"/>
      <point x="221" y="388" type="line"/>
      <point x="221" y="408" type="line"/>
      <point x="129" y="378" type="line"/>
      <point x="129" y="740" type="line"/>
      <point x="108" y="740" type="line"/>
      <point x="108" y="371" type="line"/>
      <point x="34" y="347" type="line"/>
      <point x="34" y="327" type="line"/>
      <point x="108" y="351" type="line"/>
      <point x="108" y="29" type="line" smooth="yes"/>
      <point x="108" y="9"/>
      <point x="117" y="0"/>
      <point x="137" y="0" type="curve" smooth="yes"/>
      <point x="214" y="0" type="line"/>
    </contour>
  </outline>
</glyph>
<glyph name="OE" format="1">
  <advance width="967"/>
  <unicode hex="0152"/>
  <outline>
    <contour>
      <point x="895" y="0" type="line"/>
      <point x="895" y="20" type="line"/>
      <point x="536" y="20" type="line"/>
      <point x="536" y="344" type="line"/>
      <point x="883" y="344" type="line"/>
      <point x="883" y="364" type="line"/>
      <point x="536" y="364" type="line"/>
      <point x="536" y="678" type="line"/>
      <point x="895" y="678" type="line"/>
      <point x="895" y="698" type="line"/>
      <point x="514" y="698" type="line"/>
      <point x="482" y="703"/>
      <point x="430" y="710"/>
      <point x="370" y="710" type="curve" smooth="yes" name="hr01"/>
      <point x="177" y="710"/>
      <point x="70" y="589"/>
      <point x="70" y="349" type="curve" smooth="yes"/>
      <point x="70" y="109"/>
      <point x="177" y="-12"/>
      <point x="370" y="-12" type="curve" smooth="yes"/>
      <point x="430" y="-12"/>
      <point x="482" y="-5"/>
      <point x="514" y="0" type="curve" name="hr02"/>
    </contour>
    <contour>
      <point x="370" y="8" type="curve" smooth="yes" name="hr03"/>
      <point x="198" y="8"/>
      <point x="94" y="117"/>
      <point x="94" y="328" type="curve" smooth="yes"/>
      <point x="94" y="370" type="line" smooth="yes"/>
      <point x="94" y="581"/>
      <point x="198" y="690"/>
      <point x="370" y="690" type="curve" smooth="yes"/>
      <point x="430" y="690"/>
      <point x="480" y="683"/>
      <point x="514" y="676" type="curve"/>
      <point x="514" y="22" type="line"/>
      <point x="480" y="15"/>
      <point x="430" y="8"/>
    </contour>
  </outline>
</glyph>
<glyph name="oe" format="1">
  <advance width="929"/>
  <unicode hex="0153"/>
  <outline>
    <contour>
      <point x="270" y="7" type="curve" smooth="yes" name="hr00"/>
      <point x="150" y="7"/>
      <point x="83" y="93"/>
      <point x="83" y="229" type="curve" smooth="yes"/>
      <point x="83" y="277" type="line" smooth="yes"/>
      <point x="83" y="413"/>
      <point x="150" y="499"/>
      <point x="270" y="499" type="curve" smooth="yes"/>
      <point x="390" y="499"/>
      <point x="457" y="413"/>
      <point x="457" y="277" type="curve" smooth="yes"/>
      <point x="457" y="229" type="line" smooth="yes"/>
      <point x="457" y="93"/>
      <point x="390" y="7"/>
    </contour>
    <contour>
      <point x="479" y="275" type="line"/>
      <point x="479" y="277" type="line" smooth="yes"/>
      <point x="479" y="413"/>
      <point x="546" y="499"/>
      <point x="664" y="499" type="curve" smooth="yes"/>
      <point x="773" y="499"/>
      <point x="846" y="412"/>
      <point x="846" y="279" type="curve" smooth="yes"/>
      <point x="846" y="275" type="line"/>
    </contour>
    <contour>
      <point x="668" y="-12" type="curve" smooth="yes"/>
      <point x="765" y="-12"/>
      <point x="831" y="41"/>
      <point x="861" y="124" type="curve"/>
      <point x="843" y="131" type="line"/>
      <point x="812" y="49"/>
      <point x="753" y="7"/>
      <point x="668" y="7" type="curve" smooth="yes"/>
      <point x="548" y="7"/>
      <point x="479" y="93"/>
      <point x="479" y="229" type="curve" smooth="yes"/>
      <point x="479" y="256" type="line"/>
      <point x="869" y="256" type="line"/>
      <point x="869" y="266" type="line" smooth="yes"/>
      <point x="869" y="421"/>
      <point x="786" y="518"/>
      <point x="664" y="518" type="curve" smooth="yes"/>
      <point x="565" y="518"/>
      <point x="497" y="463"/>
      <point x="470" y="362" type="curve"/>
      <point x="467" y="362" type="line"/>
      <point x="441" y="464"/>
      <point x="371" y="518"/>
      <point x="270" y="518" type="curve" smooth="yes"/>
      <point x="138" y="518"/>
      <point x="60" y="428"/>
      <point x="60" y="253" type="curve" smooth="yes"/>
      <point x="60" y="78"/>
      <point x="138" y="-12"/>
      <point x="270" y="-12" type="curve" smooth="yes"/>
      <point x="372" y="-12"/>
      <point x="440" y="42"/>
      <point x="466" y="146" type="curve"/>
      <point x="469" y="146" type="line"/>
      <point x="496" y="42"/>
      <point x="566" y="-12"/>
    </contour>
  </outline>
</glyph>
<glyph name="florin" format="1">
  <advance width="488"/>
  <unicode hex="0192"/>
  <outline>
    <contour>
      <point x="-3" y="-134" type="line" name="hr00"/>
      <point x="165" y="-134" type="line" smooth="yes"/>
      <point x="185" y="-134"/>
      <point x="197" y="-125"/>
      <point x="199" y="-105" type="curve" smooth="yes"/>
      <point x="240" y="311" type="line"/>
      <point x="450" y="311" type="line"/>
      <point x="452" y="330" type="line"/>
      <point x="242" y="330" type="line"/>
      <point x="277" y="679" type="line"/>
      <point x="462" y="679" type="line"/>
      <point x="464" y="698" type="line"/>
      <point x="288" y="698" type="line" smooth="yes"/>
      <point x="268" y="698"/>
      <point x="257" y="689"/>
      <point x="255" y="669" type="curve" smooth="yes"/>
      <point x="221" y="330" type="line"/>
      <point x="48" y="330" type="line"/>
      <point x="46" y="311" type="line"/>
      <point x="219" y="311" type="line"/>
      <point x="177" y="-115" type="line"/>
      <point x="-1" y="-115" type="line"/>
    </contour>
  </outline>
</glyph>
<glyph name="commaturnedtop" format="1">
  <advance width="600"/>
  <unicode hex="02BB"/>
  <outline>
    <contour>
      <point x="299" y="599" type="curve" smooth="yes" name="hr00"/>
      <point x="317" y="599"/>
      <point x="323" y="608"/>
      <point x="323" y="621" type="curve" smooth="yes"/>
      <point x="323" y="629" type="line" smooth="yes"/>
      <point x="323" y="640"/>
      <point x="317" y="649"/>
      <point x="295" y="649" type="curve"/>
      <point x="298" y="671"/>
      <point x="311" y="713"/>
      <point x="340" y="745" type="curve"/>
      <point x="322" y="745" type="line"/>
      <point x="296" y="716"/>
      <point x="277" y="666"/>
      <point x="277" y="632" type="curve" smooth="yes"/>
      <point x="277" y="621" type="line" smooth="yes"/>
      <point x="277" y="608"/>
      <point x="283" y="599"/>
    </contour>
    <contour>
      <point x="300.0" y="540.0" type="move" name="_top"/>
    </contour>
  </outline>
</glyph>
<glyph name="caronslovak" format="1">
  <advance width="600"/>
  <unicode hex="02BC"/>
  <outline>
    <contour>
      <point x="278" y="740" type="line" name="hr00"/>
      <point x="253" y="740" type="line"/>
      <point x="237" y="564" type="line"/>
      <point x="254" y="564" type="line"/>
    </contour>
    <contour>
      <point x="237.0" y="740.0" type="move" name="_topright"/>
    </contour>
  </outline>
</glyph>
<glyph name="circumflex" format="1">
  <advance width="600"/>
  <unicode hex="02C6"/>
  <outline>
    <contour>
      <point x="288" y="743" type="line" name="hr00"/>
      <point x="160" y="610" type="line"/>
      <point x="174" y="599" type="line"/>
      <point x="300" y="726" type="line"/>
      <point x="426" y="599" type="line"/>
      <point x="440" y="610" type="line"/>
      <point x="312" y="743" type="line"/>
    </contour>
    <contour>
      <point x="300.0" y="540.0" type="move" name="_top"/>
    </contour>
  </outline>
</glyph>
<glyph name="caron" format="1">
  <advance width="600"/>
  <unicode hex="02C7"/>
  <outline>
    <contour>
      <point x="312" y="603" type="line" name="hr00"/>
      <point x="440" y="736" type="line"/>
      <point x="426" y="747" type="line"/>
      <point x="300" y="620" type="line"/>
      <point x="174" y="747" type="line"/>
      <point x="160" y="736" type="line"/>
      <point x="288" y="603" type="line"/>
    </contour>
    <contour>
      <point x="300.0" y="540.0" type="move" name="_top"/>
    </contour>
  </outline>
</glyph>
<glyph name="breve" format="1">
  <advance width="600"/>
  <unicode hex="02D8"/>
  <outline>
    <contour>
      <point x="300" y="606" type="curve" smooth="yes" name="hr00"/>
      <point x="368" y="606"/>
      <point x="395" y="650"/>
      <point x="432" y="723" type="curve"/>
      <point x="416" y="730" type="line"/>
      <point x="401" y="703" type="line" smooth="yes"/>
      <point x="366" y="640"/>
      <point x="344" y="625"/>
      <point x="300" y="625" type="curve" smooth="yes"/>
      <point x="256" y="625"/>
      <point x="234" y="640"/>
      <point x="199" y="703" type="curve" smooth="yes"/>
      <point x="184" y="730" type="line"/>
      <point x="168" y="723" type="line"/>
      <point x="205" y="650"/>
      <point x="232" y="606"/>
    </contour>
    <contour>
      <point x="300.0" y="540.0" type="move" name="_top"/>
    </contour>
  </outline>
</glyph>
<glyph name="ring" format="1">
  <advance width="600"/>
  <unicode hex="02DA"/>
  <outline>
    <contour>
      <point x="300" y="589" type="curve" smooth="yes" name="hr00"/>
      <point x="354" y="589"/>
      <point x="390" y="626"/>
      <point x="390" y="680" type="curve" smooth="yes"/>
      <point x="390" y="734"/>
      <point x="354" y="771"/>
      <point x="300" y="771" type="curve" smooth="yes"/>
      <point x="246" y="771"/>
      <point x="210" y="734"/>
      <point x="210" y="680" type="curve" smooth="yes"/>
      <point x="210" y="626"/>
      <point x="246" y="589"/>
    </contour>
    <contour>
      <point x="300" y="607" type="curve" smooth="yes"/>
      <point x="257" y="607"/>
      <point x="230" y="634"/>
      <point x="230" y="675" type="curve" smooth="yes"/>
      <point x="230" y="685" type="line" smooth="yes"/>
      <point x="230" y="726"/>
      <point x="257" y="753"/>
      <point x="300" y="753" type="curve" smooth="yes"/>
      <point x="343" y="753"/>
      <point x="370" y="726"/>
      <point x="370" y="685" type="curve" smooth="yes"/>
      <point x="370" y="675" type="line" smooth="yes"/>
      <point x="370" y="634"/>
      <point x="343" y="607"/>
    </contour>
    <contour>
      <point x="300.0" y="540.0" type="move" name="_top"/>
    </contour>
  </outline>
</glyph>
<glyph name="hungarumlaut" format="1">
  <advance width="600"/>
  <unicode hex="02DD"/>
  <outline>
    <contour>
      <point x="335" y="739" type="line" name="hr00"/>
      <point x="316" y="751" type="line"/>
      <point x="205" y="597" type="line"/>
      <point x="220" y="587" type="line"/>
    </contour>
    <contour>
      <point x="495" y="739" type="line"/>
      <point x="476" y="751" type="line"/>
      <point x="365" y="597" type="line"/>
      <point x="380" y="587" type="line"/>
    </contour>
    <contour>
      <point x="300.0" y="540.0" type="move" name="_top"/>
    </contour>
  </outline>
</glyph>
<glyph name="pi" format="1">
  <advance width="590"/>
  <unicode hex="03C0"/>
  <outline>
    <contour>
      <point x="445" y="487" type="line" name="hr00"/>
      <point x="552" y="487" type="line"/>
      <point x="552" y="506" type="line"/>
      <point x="30" y="506" type="line"/>
      <point x="30" y="487" type="line"/>
      <point x="125" y="487" type="line"/>
      <point x="125" y="0" type="line"/>
      <point x="146" y="0" type="line"/>
      <point x="146" y="487" type="line"/>
      <point x="424" y="487" type="line"/>
      <point x="424" y="29" type="line" smooth="yes"/>
      <point x="424" y="9"/>
      <point x="433" y="0"/>
      <point x="453" y="0" type="curve" smooth="yes"/>
      <point x="520" y="0" type="line"/>
      <point x="520" y="19" type="line"/>
      <point x="445" y="19" type="line"/>
    </contour>
  </outline>
</glyph>
<glyph name="sheva-hb" format="1">
  <advance width="0"/>
  <unicode hex="05B0"/>
  <outline>
    <contour>
      <point x="0" y="-100" type="curve" smooth="yes" name="hr00"/>
      <point x="16" y="-100"/>
      <point x="21" y="-90"/>
      <point x="21" y="-80" type="curve" smooth="yes"/>
      <point x="21" y="-75" type="line" smooth="yes"/>
      <point x="21" y="-65"/>
      <point x="16" y="-55"/>
      <point x="0" y="-55" type="curve" smooth="yes"/>
      <point x="-16" y="-55"/>
      <point x="-21" y="-65"/>
      <point x="-21" y="-75" type="curve" smooth="yes"/>
      <point x="-21" y="-80" type="line" smooth="yes"/>
      <point x="-21" y="-90"/>
      <point x="-16" y="-100"/>
    </contour>
    <contour>
      <point x="0" y="-201" type="curve" smooth="yes"/>
      <point x="16" y="-201"/>
      <point x="21" y="-191"/>
      <point x="21" y="-181" type="curve" smooth="yes"/>
      <point x="21" y="-176" type="line" smooth="yes"/>
      <point x="21" y="-166"/>
      <point x="16" y="-156"/>
      <point x="0" y="-156" type="curve" smooth="yes"/>
      <point x="-16" y="-156"/>
      <point x="-21" y="-166"/>
      <point x="-21" y="-176" type="curve" smooth="yes"/>
      <point x="-21" y="-181" type="line" smooth="yes"/>
      <point x="-21" y="-191"/>
      <point x="-16" y="-201"/>
    </contour>
    <contour>
      <point x="0.0" y="0.0" type="move" name="_bottom_hebr"/>
    </contour>
  </outline>
</glyph>
<glyph name="hatafsegol-hb" format="1">
  <advance width="0"/>
  <unicode hex="05B1"/>
  <outline>
    <contour>
      <point x="-126" y="-100" type="curve" smooth="yes" name="hr00"/>
      <point x="-110" y="-100"/>
      <point x="-105" y="-90"/>
      <point x="-105" y="-80" type="curve" smooth="yes"/>
      <point x="-105" y="-75" type="line" smooth="yes"/>
      <point x="-105" y="-65"/>
      <point x="-110" y="-55"/>
      <point x="-126" y="-55" type="curve" smooth="yes"/>
      <point x="-142" y="-55"/>
      <point x="-147" y="-65"/>
      <point x="-147" y="-75" type="curve" smooth="yes"/>
      <point x="-147" y="-80" type="line" smooth="yes"/>
      <point x="-147" y="-90"/>
      <point x="-142" y="-100"/>
    </contour>
    <contour>
      <point x="-53" y="-201" type="curve" smooth="yes"/>
      <point x="-37" y="-201"/>
      <point x="-32" y="-191"/>
      <point x="-32" y="-181" type="curve" smooth="yes"/>
      <point x="-32" y="-176" type="line" smooth="yes"/>
      <point x="-32" y="-166"/>
      <point x="-37" y="-156"/>
      <point x="-53" y="-156" type="curve" smooth="yes"/>
      <point x="-69" y="-156"/>
      <point x="-74" y="-166"/>
      <point x="-74" y="-176" type="curve" smooth="yes"/>
      <point x="-74" y="-181" type="line" smooth="yes"/>
      <point x="-74" y="-191"/>
      <point x="-69" y="-201"/>
    </contour>
    <contour>
      <point x="20" y="-100" type="curve" smooth="yes"/>
      <point x="36" y="-100"/>
      <point x="41" y="-90"/>
      <point x="41" y="-80" type="curve" smooth="yes"/>
      <point x="41" y="-75" type="line" smooth="yes"/>
      <point x="41" y="-65"/>
      <point x="36" y="-55"/>
      <point x="20" y="-55" type="curve" smooth="yes"/>
      <point x="4" y="-55"/>
      <point x="-1" y="-65"/>
      <point x="-1" y="-75" type="curve" smooth="yes"/>
      <point x="-1" y="-80" type="line" smooth="yes"/>
      <point x="-1" y="-90"/>
      <point x="4" y="-100"/>
    </contour>
    <contour>
      <point x="126" y="-201" type="curve" smooth="yes"/>
      <point x="142" y="-201"/>
      <point x="147" y="-191"/>
      <point x="147" y="-181" type="curve" smooth="yes"/>
      <point x="147" y="-176" type="line" smooth="yes"/>
      <point x="147" y="-166"/>
      <point x="142" y="-156"/>
      <point x="126" y="-156" type="curve" smooth="yes"/>
      <point x="110" y="-156"/>
      <point x="105" y="-166"/>
      <point x="105" y="-176" type="curve" smooth="yes"/>
      <point x="105" y="-181" type="line" smooth="yes"/>
      <point x="105" y="-191"/>
      <point x="110" y="-201"/>
    </contour>
    <contour>
      <point x="126" y="-100" type="curve" smooth="yes"/>
      <point x="142" y="-100"/>
      <point x="147" y="-90"/>
      <point x="147" y="-80" type="curve" smooth="yes"/>
      <point x="147" y="-75" type="line" smooth="yes"/>
      <point x="147" y="-65"/>
      <point x="142" y="-55"/>
      <point x="126" y="-55" type="curve" smooth="yes"/>
      <point x="110" y="-55"/>
      <point x="105" y="-65"/>
      <point x="105" y="-75" type="curve" smooth="yes"/>
      <point x="105" y="-80" type="line" smooth="yes"/>
      <point x="105" y="-90"/>
      <point x="110" y="-100"/>
    </contour>
    <contour>
      <point x="0.0" y="0.0" type="move" name="_bottom_hebr"/>
    </contour>
  </outline>
</glyph>
<glyph name="hatafpatah-hb" format="1">
  <advance width="0"/>
  <unicode hex="05B2"/>
  <outline>
    <contour>
      <point x="104" y="-201" type="curve" smooth="yes"/>
      <point x="120" y="-201"/>
      <point x="125" y="-191"/>
      <point x="125" y="-181" type="curve" smooth="yes"/>
      <point x="125" y="-176" type="line" smooth="yes"/>
      <point x="125" y="-166"/>
      <point x="120" y="-156"/>
      <point x="104" y="-156" type="curve" smooth="yes"/>
      <point x="88" y="-156"/>
      <point x="83" y="-166"/>
      <point x="83" y="-176" type="curve" smooth="yes"/>
      <point x="83" y="-181" type="line" smooth="yes"/>
      <point x="83" y="-191"/>
      <point x="88" y="-201"/>
    </contour>
    <contour>
      <point x="104" y="-100" type="curve" smooth="yes"/>
      <point x="120" y="-100"/>
      <point x="125" y="-90"/>
      <point x="125" y="-80" type="curve" smooth="yes"/>
      <point x="125" y="-75" type="line" smooth="yes"/>
      <point x="125" y="-65"/>
      <point x="120" y="-55"/>
      <point x="104" y="-55" type="curve" smooth="yes"/>
      <point x="88" y="-55"/>
      <point x="83" y="-65"/>
      <point x="83" y="-75" type="curve" smooth="yes"/>
      <point x="83" y="-80" type="line" smooth="yes"/>
      <point x="83" y="-90"/>
      <point x="88" y="-100"/>
    </contour>
    <contour>
      <point x="-126" y="-87" type="line" name="hr01"/>
      <point x="42" y="-87" type="line"/>
      <point x="42" y="-69" type="line"/>
      <point x="-126" y="-69" type="line"/>
    </contour>
    <contour>
      <point x="0.0" y="0.0" type="move" name="_bottom_hebr"/>
    </contour>
  </outline>
</glyph>
<glyph name="hatafqamats-hb" format="1">
  <advance width="0"/>
  <unicode hex="05B3"/>
  <outline>
    <contour>
      <point x="-126" y="-87" type="line"/>
      <point x="-51" y="-87" type="line"/>
      <point x="-51" y="-192" type="line"/>
      <point x="-34" y="-192" type="line"/>
      <point x="-34" y="-87" type="line"/>
      <point x="42" y="-87" type="line"/>
      <point x="42" y="-69" type="line"/>
      <point x="-126" y="-69" type="line"/>
    </contour>
    <contour>
      <point x="104" y="-201" type="curve" smooth="yes"/>
      <point x="120" y="-201"/>
      <point x="125" y="-191"/>
      <point x="125" y="-181" type="curve" smooth="yes"/>
      <point x="125" y="-176" type="line" smooth="yes"/>
      <point x="125" y="-166"/>
      <point x="120" y="-156"/>
      <point x="104" y="-156" type="curve" smooth="yes"/>
      <point x="88" y="-156"/>
      <point x="83" y="-166"/>
      <point x="83" y="-176" type="curve" smooth="yes"/>
      <point x="83" y="-181" type="line" smooth="yes"/>
      <point x="83" y="-191"/>
      <point x="88" y="-201"/>
    </contour>
    <contour>
      <point x="104" y="-100" type="curve" smooth="yes" name="hr01"/>
      <point x="120" y="-100"/>
      <point x="125" y="-90"/>
      <point x="125" y="-80" type="curve" smooth="yes"/>
      <point x="125" y="-75" type="line" smooth="yes"/>
      <point x="125" y="-65"/>
      <point x="120" y="-55"/>
      <point x="104" y="-55" type="curve" smooth="yes"/>
      <point x="88" y="-55"/>
      <point x="83" y="-65"/>
      <point x="83" y="-75" type="curve" smooth="yes"/>
      <point x="83" y="-80" type="line" smooth="yes"/>
      <point x="83" y="-90"/>
      <point x="88" y="-100"/>
    </contour>
    <contour>
      <point x="0.0" y="0.0" type="move" name="_bottom_hebr"/>
    </contour>
  </outline>
</glyph>
<glyph name="hiriq-hb" format="1">
  <advance width="0"/>
  <unicode hex="05B4"/>
  <outline>
    <contour>
      <point x="0" y="-100" type="curve" smooth="yes" name="hr00"/>
      <point x="16" y="-100"/>
      <point x="21" y="-90"/>
      <point x="21" y="-80" type="curve" smooth="yes"/>
      <point x="21" y="-75" type="line" smooth="yes"/>
      <point x="21" y="-65"/>
      <point x="16" y="-55"/>
      <point x="0" y="-55" type="curve" smooth="yes"/>
      <point x="-16" y="-55"/>
      <point x="-21" y="-65"/>
      <point x="-21" y="-75" type="curve" smooth="yes"/>
      <point x="-21" y="-80" type="line" smooth="yes"/>
      <point x="-21" y="-90"/>
      <point x="-16" y="-100"/>
    </contour>
    <contour>
      <point x="0.0" y="0.0" type="move" name="_bottom_hebr"/>
    </contour>
  </outline>
</glyph>
<glyph name="tsere-hb" format="1">
  <advance width="0"/>
  <unicode hex="05B5"/>
  <outline>
    <contour>
      <point x="-73" y="-100" type="curve" smooth="yes" name="hr00"/>
      <point x="-57" y="-100"/>
      <point x="-52" y="-90"/>
      <point x="-52" y="-80" type="curve" smooth="yes"/>
      <point x="-52" y="-75" type="line" smooth="yes"/>
      <point x="-52" y="-65"/>
      <point x="-57" y="-55"/>
      <point x="-73" y="-55" type="curve" smooth="yes"/>
      <point x="-89" y="-55"/>
      <point x="-94" y="-65"/>
      <point x="-94" y="-75" type="curve" smooth="yes"/>
      <point x="-94" y="-80" type="line" smooth="yes"/>
      <point x="-94" y="-90"/>
      <point x="-89" y="-100"/>
    </contour>
    <contour>
      <point x="73" y="-100" type="curve" smooth="yes"/>
      <point x="89" y="-100"/>
      <point x="94" y="-90"/>
      <point x="94" y="-80" type="curve" smooth="yes"/>
      <point x="94" y="-75" type="line" smooth="yes"/>
      <point x="94" y="-65"/>
      <point x="89" y="-55"/>
      <point x="73" y="-55" type="curve" smooth="yes"/>
      <point x="57" y="-55"/>
      <point x="52" y="-65"/>
      <point x="52" y="-75" type="curve" smooth="yes"/>
      <point x="52" y="-80" type="line" smooth="yes"/>
      <point x="52" y="-90"/>
      <point x="57" y="-100"/>
    </contour>
    <contour>
      <point x="0.0" y="0.0" type="move" name="_bottom_hebr"/>
    </contour>
  </outline>
</glyph>
<glyph name="segol-hb" format="1">
  <advance width="0"/>
  <unicode hex="05B6"/>
  <outline>
    <contour>
      <point x="-73" y="-100" type="curve" smooth="yes" name="hr00"/>
      <point x="-57" y="-100"/>
      <point x="-52" y="-90"/>
      <point x="-52" y="-80" type="curve" smooth="yes"/>
      <point x="-52" y="-75" type="line" smooth="yes"/>
      <point x="-52" y="-65"/>
      <point x="-57" y="-55"/>
      <point x="-73" y="-55" type="curve" smooth="yes"/>
      <point x="-89" y="-55"/>
      <point x="-94" y="-65"/>
      <point x="-94" y="-75" type="curve" smooth="yes"/>
      <point x="-94" y="-80" type="line" smooth="yes"/>
      <point x="-94" y="-90"/>
      <point x="-89" y="-100"/>
    </contour>
    <contour>
      <point x="0" y="-201" type="curve" smooth="yes"/>
      <point x="16" y="-201"/>
      <point x="21" y="-191"/>
      <point x="21" y="-181" type="curve" smooth="yes"/>
      <point x="21" y="-176" type="line" smooth="yes"/>
      <point x="21" y="-166"/>
      <point x="16" y="-156"/>
      <point x="0" y="-156" type="curve" smooth="yes"/>
      <point x="-16" y="-156"/>
      <point x="-21" y="-166"/>
      <point x="-21" y="-176" type="curve" smooth="yes"/>
      <point x="-21" y="-181" type="line" smooth="yes"/>
      <point x="-21" y="-191"/>
      <point x="-16" y="-201"/>
    </contour>
    <contour>
      <point x="73" y="-100" type="curve" smooth="yes"/>
      <point x="89" y="-100"/>
      <point x="94" y="-90"/>
      <point x="94" y="-80" type="curve" smooth="yes"/>
      <point x="94" y="-75" type="line" smooth="yes"/>
      <point x="94" y="-65"/>
      <point x="89" y="-55"/>
      <point x="73" y="-55" type="curve" smooth="yes"/>
      <point x="57" y="-55"/>
      <point x="52" y="-65"/>
      <point x="52" y="-75" type="curve" smooth="yes"/>
      <point x="52" y="-80" type="line" smooth="yes"/>
      <point x="52" y="-90"/>
      <point x="57" y="-100"/>
    </contour>
    <contour>
      <point x="0.0" y="0.0" type="move" name="_bottom_hebr"/>
    </contour>
  </outline>
</glyph>
<glyph name="patah-hb" format="1">
  <advance width="0"/>
  <unicode hex="05B7"/>
  <outline>
    <contour>
      <point x="-84" y="-87" type="line" name="hr00"/>
      <point x="84" y="-87" type="line"/>
      <point x="84" y="-69" type="line"/>
      <point x="-84" y="-69" type="line"/>
    </contour>
    <contour>
      <point x="0.0" y="0.0" type="move" name="_bottom_hebr"/>
    </contour>
  </outline>
</glyph>
<glyph name="qamats-hb" format="1">
  <advance width="0"/>
  <unicode hex="05B8"/>
  <outline>
    <contour>
      <point x="-84" y="-87" type="line" name="hr00"/>
      <point x="-9" y="-87" type="line"/>
      <point x="-9" y="-192" type="line"/>
      <point x="9" y="-192" type="line"/>
      <point x="9" y="-87" type="line"/>
      <point x="84" y="-87" type="line"/>
      <point x="84" y="-69" type="line"/>
      <point x="-84" y="-69" type="line"/>
    </contour>
    <contour>
      <point x="0.0" y="0.0" type="move" name="_bottom_hebr"/>
    </contour>
  </outline>
</glyph>
<glyph name="qubuts-hb" format="1">
  <advance width="0"/>
  <unicode hex="05BB"/>
  <outline>
    <contour>
      <point x="-31" y="-100" type="curve" smooth="yes" name="hr00"/>
      <point x="-15" y="-100"/>
      <point x="-10" y="-90"/>
      <point x="-10" y="-80" type="curve" smooth="yes"/>
      <point x="-10" y="-75" type="line" smooth="yes"/>
      <point x="-10" y="-65"/>
      <point x="-15" y="-55"/>
      <point x="-31" y="-55" type="curve" smooth="yes"/>
      <point x="-47" y="-55"/>
      <point x="-52" y="-65"/>
      <point x="-52" y="-75" type="curve" smooth="yes"/>
      <point x="-52" y="-80" type="line" smooth="yes"/>
      <point x="-52" y="-90"/>
      <point x="-47" y="-100"/>
    </contour>
    <contour>
      <point x="21" y="-151" type="curve" smooth="yes"/>
      <point x="37" y="-151"/>
      <point x="42" y="-141"/>
      <point x="42" y="-131" type="curve" smooth="yes"/>
      <point x="42" y="-126" type="line" smooth="yes"/>
      <point x="42" y="-116"/>
      <point x="37" y="-106"/>
      <point x="21" y="-106" type="curve" smooth="yes"/>
      <point x="5" y="-106"/>
      <point x="0" y="-116"/>
      <point x="0" y="-126" type="curve" smooth="yes"/>
      <point x="0" y="-131" type="line" smooth="yes"/>
      <point x="0" y="-141"/>
      <point x="5" y="-151"/>
    </contour>
    <contour>
      <point x="73" y="-202" type="curve" smooth="yes"/>
      <point x="89" y="-202"/>
      <point x="94" y="-192"/>
      <point x="94" y="-182" type="curve" smooth="yes"/>
      <point x="94" y="-177" type="line" smooth="yes"/>
      <point x="94" y="-167"/>
      <point x="89" y="-157"/>
      <point x="73" y="-157" type="curve" smooth="yes"/>
      <point x="57" y="-157"/>
      <point x="52" y="-167"/>
      <point x="52" y="-177" type="curve" smooth="yes"/>
      <point x="52" y="-182" type="line" smooth="yes"/>
      <point x="52" y="-192"/>
      <point x="57" y="-202"/>
    </contour>
    <contour>
      <point x="0.0" y="0.0" type="move" name="_bottom_hebr"/>
    </contour>
  </outline>
</glyph>
<glyph name="dagesh-hb" format="1">
  <advance width="0"/>
  <unicode hex="05BC"/>
  <outline>
    <contour>
      <point x="0" y="275" type="curve" smooth="yes" name="hr00"/>
      <point x="16" y="275"/>
      <point x="21" y="285"/>
      <point x="21" y="295" type="curve" smooth="yes"/>
      <point x="21" y="300" type="line" smooth="yes"/>
      <point x="21" y="310"/>
      <point x="16" y="320"/>
      <point x="0" y="320" type="curve" smooth="yes"/>
      <point x="-16" y="320"/>
      <point x="-21" y="310"/>
      <point x="-21" y="300" type="curve" smooth="yes"/>
      <point x="-21" y="295" type="line" smooth="yes"/>
      <point x="-21" y="285"/>
      <point x="-16" y="275"/>
    </contour>
    <contour>
      <point x="0.0" y="297.0" type="move" name="_center_hebr"/>
    </contour>
  </outline>
</glyph>
<glyph name="maqaf-hb" format="1">
  <advance width="395"/>
  <unicode hex="05BE"/>
  <outline>
    <contour>
      <point x="83" y="576" type="line" name="hr00"/>
      <point x="312" y="576" type="line"/>
      <point x="312" y="596" type="line"/>
      <point x="83" y="596" type="line"/>
    </contour>
  </outline>
</glyph>
<glyph name="rafe-hb" format="1">
  <advance width="0"/>
  <unicode hex="05BF"/>
  <outline>
    <contour>
      <point x="-94" y="674" type="line" name="hr00"/>
      <point x="94" y="674" type="line"/>
      <point x="94" y="692" type="line"/>
      <point x="-94" y="692" type="line"/>
    </contour>
    <contour>
      <point x="0.0" y="506.0" type="move" name="_top_hebr"/>
    </contour>
  </outline>
</glyph>
<glyph name="shindot-hb" format="1">
  <advance width="0"/>
  <unicode hex="05C1"/>
  <outline>
    <contour>
      <point x="0" y="653" type="curve" smooth="yes" name="hr00"/>
      <point x="16" y="653"/>
      <point x="21" y="663"/>
      <point x="21" y="673" type="curve" smooth="yes"/>
      <point x="21" y="678" type="line" smooth="yes"/>
      <point x="21" y="688"/>
      <point x="16" y="698"/>
      <point x="0" y="698" type="curve" smooth="yes"/>
      <point x="-16" y="698"/>
      <point x="-21" y="688"/>
      <point x="-21" y="678" type="curve" smooth="yes"/>
      <point x="-21" y="673" type="line" smooth="yes"/>
      <point x="-21" y="663"/>
      <point x="-16" y="653"/>
    </contour>
    <contour>
      <point x="0.0" y="506.0" type="move" name="_topright_hebr"/>
    </contour>
  </outline>
</glyph>
<glyph name="alef-hb" format="1">
  <advance width="609"/>
  <unicode hex="05D0"/>
  <outline>
    <contour>
      <point x="100" y="0" type="line" name="hr00"/>
      <point x="122" y="0" type="line"/>
      <point x="122" y="276" type="line"/>
      <point x="260" y="343" type="line"/>
      <point x="504" y="0" type="line"/>
      <point x="529" y="0" type="line"/>
      <point x="361" y="236" type="line"/>
      <point x="489" y="298" type="line" smooth="yes"/>
      <point x="504" y="305"/>
      <point x="509" y="316"/>
      <point x="509" y="329" type="curve" smooth="yes"/>
      <point x="509" y="596" type="line"/>
      <point x="487" y="596" type="line"/>
      <point x="487" y="320" type="line"/>
      <point x="349" y="253" type="line"/>
      <point x="105" y="596" type="line"/>
      <point x="80" y="596" type="line"/>
      <point x="248" y="360" type="line"/>
      <point x="120" y="298" type="line" smooth="yes"/>
      <point x="105" y="291"/>
      <point x="100" y="280"/>
      <point x="100" y="267" type="curve" smooth="yes"/>
    </contour>
    <contour>
      <point x="313.0" y="0.0" type="move" name="bottom_hebr"/>
    </contour>
    <contour>
      <point x="270.0" y="142.0" type="move" name="center_hebr"/>
    </contour>
    <contour>
      <point x="27.0" y="506.0" type="move" name="topleft_hebr"/>
    </contour>
  </outline>
</glyph>
<glyph name="bet-hb" format="1">
  <advance width="561"/>
  <unicode hex="05D1"/>
  <outline>
    <contour>
      <point x="50" y="0" type="line" name="hr00"/>
      <point x="518" y="0" type="line"/>
      <point x="518" y="20" type="line"/>
      <point x="433" y="20" type="line"/>
      <point x="433" y="567" type="line" smooth="yes"/>
      <point x="433" y="587"/>
      <point x="424" y="596"/>
      <point x="404" y="596" type="curve" smooth="yes"/>
      <point x="58" y="596" type="line"/>
      <point x="58" y="576" type="line"/>
      <point x="411" y="576" type="line"/>
      <point x="411" y="20" type="line"/>
      <point x="50" y="20" type="line"/>
    </contour>
    <contour>
      <point x="284.0" y="0.0" type="move" name="bottom_hebr"/>
    </contour>
    <contour>
      <point x="231.0" y="297.0" type="move" name="center_hebr"/>
    </contour>
    <contour>
      <point x="235.0" y="506.0" type="move" name="top_hebr"/>
    </contour>
    <contour>
      <point x="0.0" y="506.0" type="move" name="topleft_hebr"/>
    </contour>
  </outline>
</glyph>
<glyph name="gimel-hb" format="1">
  <advance width="390"/>
  <unicode hex="05D2"/>
  <outline>
    <contour>
      <point x="289" y="0" type="line"/>
      <point x="310" y="0" type="line"/>
      <point x="254" y="562" type="line" smooth="yes"/>
      <point x="252" y="585"/>
      <point x="243" y="596"/>
      <point x="217" y="596" type="curve" smooth="yes"/>
      <point x="77" y="596" type="line"/>
      <point x="77" y="576" type="line"/>
      <point x="231" y="576" type="line"/>
      <point x="265" y="246" type="line" smooth="yes"/>
      <point x="277" y="127"/>
      <point x="165" y="20"/>
      <point x="50" y="20" type="curve" name="hr01"/>
      <point x="50" y="-3" type="line"/>
      <point x="162" y="-3"/>
      <point x="252" y="87"/>
      <point x="270" y="166" type="curve" name="hr02"/>
      <point x="273" y="166" type="line"/>
    </contour>
    <contour>
      <point x="213.0" y="0.0" type="move" name="bottom_hebr"/>
    </contour>
    <contour>
      <point x="149.0" y="297.0" type="move" name="center_hebr"/>
    </contour>
    <contour>
      <point x="31.0" y="506.0" type="move" name="topleft_hebr"/>
    </contour>
  </outline>
</glyph>
<glyph name="dalet-hb" format="1">
  <advance width="550"/>
  <unicode hex="05D3"/>
  <outline>
    <contour>
      <point x="400" y="0" type="line" name="hr00"/>
      <point x="422" y="0" type="line"/>
      <point x="422" y="576" type="line"/>
      <point x="507" y="576" type="line"/>
      <point x="507" y="596" type="line"/>
      <point x="39" y="596" type="line"/>
      <point x="39" y="576" type="line"/>
      <point x="400" y="576" type="line"/>
    </contour>
    <contour>
      <point x="411.0" y="0.0" type="move" name="bottom_hebr"/>
    </contour>
    <contour>
      <point x="220.0" y="297.0" type="move" name="center_hebr"/>
    </contour>
    <contour>
      <point x="-19.0" y="506.0" type="move" name="topleft_hebr"/>
    </contour>
  </outline>
</glyph>
<glyph name="he-hb" format="1">
  <advance width="638"/>
  <unicode hex="05D4"/>
  <outline>
    <contour>
      <point x="518" y="0" type="line" name="hr00"/>
      <point x="540" y="0" type="line"/>
      <point x="540" y="408" type="line" smooth="yes"/>
      <point x="540" y="522"/>
      <point x="480" y="596"/>
      <point x="366" y="596" type="curve" smooth="yes"/>
      <point x="106" y="596" type="line"/>
      <point x="106" y="576" type="line"/>
      <point x="366" y="576" type="line" smooth="yes"/>
      <point x="467" y="576"/>
      <point x="518" y="507"/>
      <point x="518" y="409" type="curve" smooth="yes"/>
    </contour>
    <contour>
      <point x="106" y="0" type="line"/>
      <point x="128" y="0" type="line"/>
      <point x="128" y="330" type="line"/>
      <point x="106" y="330" type="line"/>
    </contour>
    <contour>
      <point x="323.0" y="0.0" type="move" name="bottom_hebr"/>
    </contour>
    <contour>
      <point x="323.0" y="297.0" type="move" name="center_hebr"/>
    </contour>
    <contour>
      <point x="0.0" y="506.0" type="move" name="topleft_hebr"/>
    </contour>
  </outline>
</glyph>
<glyph name="vav-hb" format="1">
  <advance width="234"/>
  <unicode hex="05D5"/>
  <outline>
    <contour>
      <point x="106" y="0" type="line" name="hr00"/>
      <point x="128" y="0" type="line"/>
      <point x="128" y="596" type="line"/>
      <point x="106" y="596" type="line"/>
    </contour>
    <contour>
      <point x="117.0" y="0.0" type="move" name="bottom_hebr"/>
    </contour>
    <contour>
      <point x="42.0" y="297.0" type="move" name="center_hebr"/>
    </contour>
    <contour>
      <point x="0.0" y="506.0" type="move" name="topleft_hebr"/>
    </contour>
  </outline>
</glyph>
<glyph name="zayin-hb" format="1">
  <advance width="362"/>
  <unicode hex="05D6"/>
  <outline>
    <contour>
      <point x="50" y="576" type="line" name="hr00"/>
      <point x="190" y="576" type="line"/>
      <point x="190" y="573" type="line"/>
      <point x="160" y="527"/>
      <point x="144" y="479"/>
      <point x="144" y="411" type="curve" smooth="yes"/>
      <point x="144" y="372"/>
      <point x="150" y="320"/>
      <point x="161" y="258" type="curve" smooth="yes"/>
      <point x="207" y="0" type="line"/>
      <point x="229" y="0" type="line"/>
      <point x="182" y="258" type="line" smooth="yes"/>
      <point x="171" y="320"/>
      <point x="165" y="371"/>
      <point x="165" y="410" type="curve" smooth="yes"/>
      <point x="165" y="482"/>
      <point x="182" y="530"/>
      <point x="209" y="576" type="curve"/>
      <point x="319" y="576" type="line"/>
      <point x="319" y="596" type="line"/>
      <point x="50" y="596" type="line"/>
    </contour>
    <contour>
      <point x="218.0" y="0.0" type="move" name="bottom_hebr"/>
    </contour>
    <contour>
      <point x="74.0" y="297.0" type="move" name="center_hebr"/>
    </contour>
    <contour>
      <point x="13.0" y="506.0" type="move" name="topleft_hebr"/>
    </contour>
  </outline>
</glyph>
<glyph name="het-hb" format="1">
  <advance width="658"/>
  <unicode hex="05D7"/>
  <outline>
    <contour>
      <point x="106" y="0" type="line" name="hr00"/>
      <point x="128" y="0" type="line"/>
      <point x="128" y="576" type="line"/>
      <point x="386" y="576" type="line" smooth="yes"/>
      <point x="487" y="576"/>
      <point x="538" y="507"/>
      <point x="538" y="409" type="curve" smooth="yes"/>
      <point x="538" y="0" type="line"/>
      <point x="560" y="0" type="line"/>
      <point x="560" y="408" type="line" smooth="yes"/>
      <point x="560" y="522"/>
      <point x="500" y="596"/>
      <point x="386" y="596" type="curve" smooth="yes"/>
      <point x="106" y="596" type="line"/>
    </contour>
    <contour>
      <point x="333.0" y="0.0" type="move" name="bottom_hebr"/>
    </contour>
    <contour>
      <point x="0.0" y="506.0" type="move" name="topleft_hebr"/>
    </contour>
  </outline>
</glyph>
<glyph name="tet-hb" format="1">
  <advance width="625"/>
  <unicode hex="05D8"/>
  <outline>
    <contour>
      <point x="315" y="-12" type="curve" smooth="yes" name="hr00"/>
      <point x="483" y="-12"/>
      <point x="543" y="63"/>
      <point x="543" y="270" type="curve" smooth="yes"/>
      <point x="543" y="450" type="line" smooth="yes"/>
      <point x="543" y="538"/>
      <point x="489" y="596"/>
      <point x="387" y="596" type="curve" smooth="yes"/>
      <point x="307" y="596" type="line"/>
      <point x="307" y="576" type="line"/>
      <point x="388" y="576" type="line" smooth="yes"/>
      <point x="479" y="576"/>
      <point x="521" y="522"/>
      <point x="521" y="462" type="curve" smooth="yes"/>
      <point x="521" y="268" type="line" smooth="yes"/>
      <point x="521" y="78"/>
      <point x="471" y="8"/>
      <point x="315" y="8" type="curve" smooth="yes"/>
      <point x="159" y="8"/>
      <point x="109" y="78"/>
      <point x="109" y="268" type="curve" smooth="yes"/>
      <point x="109" y="596" type="line"/>
      <point x="87" y="596" type="line"/>
      <point x="87" y="270" type="line" smooth="yes"/>
      <point x="87" y="63"/>
      <point x="147" y="-12"/>
    </contour>
    <contour>
      <point x="315.0" y="0.0" type="move" name="bottom_hebr"/>
    </contour>
    <contour>
      <point x="315.0" y="297.0" type="move" name="center_hebr"/>
    </contour>
    <contour>
      <point x="0.0" y="506.0" type="move" name="topleft_hebr"/>
    </contour>
  </outline>
</glyph>
<glyph name="yod-hb" format="1">
  <advance width="214"/>
  <unicode hex="05D9"/>
  <outline>
    <contour>
      <point x="96" y="276" type="line" name="hr00"/>
      <point x="118" y="276" type="line"/>
      <point x="118" y="596" type="line"/>
      <point x="96" y="596" type="line"/>
    </contour>
    <contour>
      <point x="107.0" y="0.0" type="move" name="bottom_hebr"/>
    </contour>
    <contour>
      <point x="31.0" y="417.0" type="move" name="center_hebr"/>
    </contour>
    <contour>
      <point x="0.0" y="506.0" type="move" name="topleft_hebr"/>
    </contour>
  </outline>
</glyph>
<glyph name="finalkaf-hb" format="1">
  <advance width="500"/>
  <unicode hex="05DA"/>
  <outline>
    <contour>
      <point x="385" y="-201" type="line" name="hr00"/>
      <point x="407" y="-201" type="line"/>
      <point x="407" y="323" type="line" smooth="yes"/>
      <point x="407" y="506"/>
      <point x="317" y="596"/>
      <point x="163" y="596" type="curve" smooth="yes"/>
      <point x="23" y="596" type="line"/>
      <point x="23" y="576" type="line"/>
      <point x="163" y="576" type="line" smooth="yes"/>
      <point x="317" y="576"/>
      <point x="385" y="474"/>
      <point x="385" y="325" type="curve" smooth="yes"/>
    </contour>
    <contour>
      <point x="194.0" y="374.0" type="move" name="bottom_hebr"/>
    </contour>
    <contour>
      <point x="195.0" y="297.0" type="move" name="center_hebr"/>
    </contour>
  </outline>
</glyph>
<glyph name="kaf-hb" format="1">
  <advance width="529"/>
  <unicode hex="05DB"/>
  <outline>
    <contour>
      <point x="50" y="0" type="line" name="hr00"/>
      <point x="219" y="0" type="line" smooth="yes"/>
      <point x="373" y="0"/>
      <point x="464" y="105"/>
      <point x="464" y="298" type="curve" smooth="yes"/>
      <point x="464" y="491"/>
      <point x="373" y="596"/>
      <point x="219" y="596" type="curve" smooth="yes"/>
      <point x="50" y="596" type="line"/>
      <point x="50" y="576" type="line"/>
      <point x="219" y="576" type="line" smooth="yes"/>
      <point x="360" y="576"/>
      <point x="441" y="474"/>
      <point x="441" y="325" type="curve" smooth="yes"/>
      <point x="441" y="271" type="line" smooth="yes"/>
      <point x="441" y="122"/>
      <point x="360" y="20"/>
      <point x="219" y="20" type="curve" smooth="yes"/>
      <point x="50" y="20" type="line"/>
    </contour>
    <contour>
      <point x="197.0" y="0.0" type="move" name="bottom_hebr"/>
    </contour>
    <contour>
      <point x="231.0" y="297.0" type="move" name="center_hebr"/>
    </contour>
    <contour>
      <point x="191.0" y="506.0" type="move" name="top_hebr"/>
    </contour>
    <contour>
      <point x="0.0" y="506.0" type="move" name="topleft_hebr"/>
    </contour>
  </outline>
</glyph>
<glyph name="lamed-hb" format="1">
  <advance width="481"/>
  <unicode hex="05DC"/>
  <outline>
    <contour>
      <point x="205" y="0" type="line" name="hr00"/>
      <point x="228" y="0" type="line"/>
      <point x="448" y="576" type="line"/>
      <point x="448" y="596" type="line"/>
      <point x="58" y="596" type="line"/>
      <point x="58" y="742" type="line"/>
      <point x="36" y="742" type="line"/>
      <point x="36" y="576" type="line"/>
      <point x="425" y="576" type="line"/>
    </contour>
    <contour>
      <point x="216.0" y="0.0" type="move" name="bottom_hebr"/>
    </contour>
    <contour>
      <point x="160.0" y="297.0" type="move" name="center_hebr"/>
    </contour>
    <contour>
      <point x="-11.0" y="506.0" type="move" name="topleft_hebr"/>
    </contour>
  </outline>
</glyph>
<glyph name="finalmem-hb" format="1">
  <advance width="658"/>
  <unicode hex="05DD"/>
  <outline>
    <contour>
      <point x="106" y="0" type="line" name="hr00"/>
      <point x="560" y="0" type="line"/>
      <point x="560" y="408" type="line" smooth="yes"/>
      <point x="560" y="522"/>
      <point x="500" y="596"/>
      <point x="386" y="596" type="curve" smooth="yes"/>
      <point x="106" y="596" type="line"/>
    </contour>
    <contour>
      <point x="128" y="20" type="line"/>
      <point x="128" y="576" type="line"/>
      <point x="386" y="576" type="line" smooth="yes"/>
      <point x="487" y="576"/>
      <point x="538" y="507"/>
      <point x="538" y="409" type="curve" smooth="yes"/>
      <point x="538" y="20" type="line"/>
    </contour>
  </outline>
</glyph>
<glyph name="mem-hb" format="1">
  <advance width="636"/>
  <unicode hex="05DE"/>
  <outline>
    <contour>
      <point x="65" y="0" type="line"/>
      <point x="87" y="0" type="line"/>
      <point x="144" y="368" type="line" smooth="yes"/>
      <point x="154" y="433"/>
      <point x="191" y="588"/>
      <point x="351" y="588" type="curve" smooth="yes"/>
      <point x="513" y="588"/>
      <point x="516" y="437"/>
      <point x="516" y="371" type="curve" smooth="yes"/>
      <point x="516" y="20" type="line"/>
      <point x="294" y="20" type="line"/>
      <point x="294" y="0" type="line"/>
      <point x="538" y="0" type="line"/>
      <point x="538" y="371" type="line" smooth="yes"/>
      <point x="538" y="548"/>
      <point x="465" y="608"/>
      <point x="351" y="608" type="curve" smooth="yes"/>
      <point x="237" y="608"/>
      <point x="170" y="535"/>
      <point x="145" y="439" type="curve"/>
      <point x="142" y="439" type="line"/>
      <point x="117" y="596" type="line" name="hr01"/>
      <point x="95" y="596" type="line"/>
      <point x="127" y="401" type="line"/>
    </contour>
    <contour>
      <point x="330.0" y="0.0" type="move" name="bottom_hebr"/>
    </contour>
    <contour>
      <point x="332.0" y="297.0" type="move" name="center_hebr"/>
    </contour>
    <contour>
      <point x="28.0" y="506.0" type="move" name="topleft_hebr"/>
    </contour>
  </outline>
</glyph>
<glyph name="finalnun-hb" format="1">
  <advance width="234"/>
  <unicode hex="05DF"/>
  <outline>
    <contour>
      <point x="106" y="-200" type="line" name="hr00"/>
      <point x="128" y="-200" type="line"/>
      <point x="128" y="596" type="line"/>
      <point x="106" y="596" type="line"/>
    </contour>
  </outline>
</glyph>
<glyph name="nun-hb" format="1">
  <advance width="338"/>
  <unicode hex="05E0"/>
  <outline>
    <contour>
      <point x="50" y="0" type="line" name="hr00"/>
      <point x="240" y="0" type="line"/>
      <point x="240" y="478" type="line" smooth="yes"/>
      <point x="240" y="550"/>
      <point x="212" y="596"/>
      <point x="97" y="596" type="curve" smooth="yes"/>
      <point x="58" y="596" type="line"/>
      <point x="58" y="576" type="line"/>
      <point x="94" y="576" type="line" smooth="yes"/>
      <point x="202" y="576"/>
      <point x="218" y="539"/>
      <point x="218" y="478" type="curve" smooth="yes"/>
      <point x="218" y="20" type="line"/>
      <point x="50" y="20" type="line"/>
    </contour>
    <contour>
      <point x="145.0" y="0.0" type="move" name="bottom_hebr"/>
    </contour>
    <contour>
      <point x="138.0" y="297.0" type="move" name="center_hebr"/>
    </contour>
    <contour>
      <point x="0.0" y="506.0" type="move" name="topleft_hebr"/>
    </contour>
  </outline>
</glyph>
<glyph name="samekh-hb" format="1">
  <advance width="629"/>
  <unicode hex="05E1"/>
  <outline>
    <contour>
      <point x="65" y="576" type="line" name="hr00"/>
      <point x="200" y="576" type="line"/>
      <point x="200" y="573" type="line"/>
      <point x="132" y="532"/>
      <point x="73" y="437"/>
      <point x="73" y="298" type="curve" smooth="yes"/>
      <point x="73" y="93"/>
      <point x="164" y="-12"/>
      <point x="319" y="-12" type="curve" smooth="yes"/>
      <point x="473" y="-12"/>
      <point x="564" y="93"/>
      <point x="564" y="298" type="curve" smooth="yes"/>
      <point x="564" y="491"/>
      <point x="473" y="596"/>
      <point x="319" y="596" type="curve" smooth="yes"/>
      <point x="65" y="596" type="line"/>
    </contour>
    <contour>
      <point x="319" y="8" type="curve" smooth="yes"/>
      <point x="177" y="8"/>
      <point x="97" y="110"/>
      <point x="97" y="271" type="curve" smooth="yes"/>
      <point x="97" y="325" type="line" smooth="yes"/>
      <point x="97" y="437"/>
      <point x="157" y="538"/>
      <point x="229" y="576" type="curve"/>
      <point x="319" y="576" type="line" smooth="yes"/>
      <point x="460" y="576"/>
      <point x="541" y="474"/>
      <point x="541" y="325" type="curve" smooth="yes"/>
      <point x="541" y="271" type="line" smooth="yes"/>
      <point x="541" y="110"/>
      <point x="460" y="8"/>
    </contour>
    <contour>
      <point x="319.0" y="0.0" type="move" name="bottom_hebr"/>
    </contour>
    <contour>
      <point x="319.0" y="297.0" type="move" name="center_hebr"/>
    </contour>
    <contour>
      <point x="5.0" y="506.0" type="move" name="topleft_hebr"/>
    </contour>
  </outline>
</glyph>
<glyph name="ayin-hb" format="1">
  <advance width="590"/>
  <unicode hex="05E2"/>
  <outline>
    <contour>
      <point x="48" y="-12" type="line" name="hr00"/>
      <point x="236" y="18" type="line" smooth="yes"/>
      <point x="431" y="49"/>
      <point x="508" y="153"/>
      <point x="508" y="388" type="curve" smooth="yes"/>
      <point x="508" y="596" type="line"/>
      <point x="486" y="596" type="line"/>
      <point x="486" y="378" type="line" smooth="yes"/>
      <point x="486" y="191"/>
      <point x="428" y="92"/>
      <point x="295" y="51" type="curve"/>
      <point x="239" y="216" type="line"/>
      <point x="102" y="596" type="line"/>
      <point x="80" y="596" type="line"/>
      <point x="278" y="47" type="line"/>
      <point x="263" y="43"/>
      <point x="247" y="40"/>
      <point x="231" y="37" type="curve" smooth="yes"/>
      <point x="48" y="8" type="line"/>
    </contour>
    <contour>
      <point x="305.0" y="0.0" type="move" name="bottom_hebr"/>
    </contour>
    <contour>
      <point x="13.0" y="506.0" type="move" name="topleft_hebr"/>
    </contour>
  </outline>
</glyph>
<glyph name="finalpe-hb" format="1">
  <advance width="626"/>
  <unicode hex="05E3"/>
  <outline>
    <contour>
      <point x="506" y="-201" type="line" name="hr00"/>
      <point x="528" y="-201" type="line"/>
      <point x="528" y="323" type="line" smooth="yes"/>
      <point x="528" y="506"/>
      <point x="438" y="596"/>
      <point x="284" y="596" type="curve" smooth="yes"/>
      <point x="86" y="596" type="line"/>
      <point x="86" y="287" type="line" smooth="yes"/>
      <point x="86" y="267"/>
      <point x="95" y="258"/>
      <point x="115" y="258" type="curve" smooth="yes"/>
      <point x="267" y="258" type="line"/>
      <point x="267" y="278" type="line"/>
      <point x="108" y="278" type="line"/>
      <point x="108" y="576" type="line"/>
      <point x="284" y="576" type="line" smooth="yes"/>
      <point x="438" y="576"/>
      <point x="506" y="474"/>
      <point x="506" y="325" type="curve" smooth="yes"/>
    </contour>
    <contour>
      <point x="387.0" y="297.0" type="move" name="center_hebr"/>
    </contour>
  </outline>
</glyph>
<glyph name="pe-hb" format="1">
  <advance width="620"/>
  <unicode hex="05E4"/>
  <outline>
    <contour>
      <point x="106" y="0" type="line" name="hr00"/>
      <point x="310" y="0" type="line" smooth="yes"/>
      <point x="464" y="0"/>
      <point x="555" y="105"/>
      <point x="555" y="298" type="curve" smooth="yes"/>
      <point x="555" y="491"/>
      <point x="464" y="596"/>
      <point x="310" y="596" type="curve" smooth="yes"/>
      <point x="106" y="596" type="line"/>
      <point x="106" y="304" type="line" smooth="yes"/>
      <point x="106" y="284"/>
      <point x="115" y="275"/>
      <point x="135" y="275" type="curve" smooth="yes"/>
      <point x="293" y="275" type="line"/>
      <point x="293" y="295" type="line"/>
      <point x="128" y="295" type="line"/>
      <point x="128" y="576" type="line"/>
      <point x="310" y="576" type="line" smooth="yes"/>
      <point x="451" y="576"/>
      <point x="532" y="474"/>
      <point x="532" y="325" type="curve" smooth="yes"/>
      <point x="532" y="271" type="line" smooth="yes"/>
      <point x="532" y="122"/>
      <point x="451" y="20"/>
      <point x="310" y="20" type="curve" smooth="yes"/>
      <point x="106" y="20" type="line"/>
    </contour>
    <contour>
      <point x="280.0" y="0.0" type="move" name="bottom_hebr"/>
    </contour>
    <contour>
      <point x="413.0" y="297.0" type="move" name="center_hebr"/>
    </contour>
    <contour>
      <point x="280.0" y="506.0" type="move" name="top_hebr"/>
    </contour>
    <contour>
      <point x="42.0" y="506.0" type="move" name="topleft_hebr"/>
    </contour>
  </outline>
</glyph>
<glyph name="finaltsadi-hb" format="1">
  <advance width="482"/>
  <unicode hex="05E5"/>
  <outline>
    <contour>
      <point x="285" y="-200" type="line" name="hr00"/>
      <point x="308" y="-200" type="line"/>
      <point x="187" y="169" type="line"/>
      <point x="387" y="266" type="line" smooth="yes"/>
      <point x="402" y="273"/>
      <point x="407" y="284"/>
      <point x="407" y="297" type="curve" smooth="yes"/>
      <point x="407" y="596" type="line"/>
      <point x="385" y="596" type="line"/>
      <point x="385" y="288" type="line"/>
      <point x="180" y="189" type="line"/>
      <point x="46" y="596" type="line"/>
      <point x="23" y="596" type="line"/>
    </contour>
  </outline>
</glyph>
<glyph name="tsadi-hb" format="1">
  <advance width="541"/>
  <unicode hex="05E6"/>
  <outline>
    <contour>
      <point x="52" y="0" type="line" name="hr00"/>
      <point x="461" y="0" type="line"/>
      <point x="461" y="20" type="line"/>
      <point x="307" y="244" type="line"/>
      <point x="427" y="303" type="line" smooth="yes"/>
      <point x="442" y="310"/>
      <point x="447" y="321"/>
      <point x="447" y="334" type="curve" smooth="yes"/>
      <point x="447" y="596" type="line"/>
      <point x="425" y="596" type="line"/>
      <point x="425" y="325" type="line"/>
      <point x="295" y="261" type="line"/>
      <point x="65" y="596" type="line"/>
      <point x="40" y="596" type="line"/>
      <point x="265" y="269" type="line"/>
      <point x="438" y="20" type="line"/>
      <point x="52" y="20" type="line"/>
    </contour>
    <contour>
      <point x="257.0" y="0.0" type="move" name="bottom_hebr"/>
    </contour>
    <contour>
      <point x="177.0" y="165.0" type="move" name="center_hebr"/>
    </contour>
    <contour>
      <point x="6.0" y="506.0" type="move" name="topleft_hebr"/>
    </contour>
  </outline>
</glyph>
<glyph name="qof-hb" format="1">
  <advance width="591"/>
  <unicode hex="05E7"/>
  <outline>
    <contour>
      <point x="315" y="0" type="line" name="hr00"/>
      <point x="338" y="0" type="line"/>
      <point x="558" y="576" type="line"/>
      <point x="558" y="596" type="line"/>
      <point x="106" y="596" type="line"/>
      <point x="106" y="576" type="line"/>
      <point x="535" y="576" type="line"/>
    </contour>
    <contour>
      <point x="106" y="-200" type="line"/>
      <point x="128" y="-200" type="line"/>
      <point x="128" y="330" type="line"/>
      <point x="106" y="330" type="line"/>
    </contour>
    <contour>
      <point x="327.0" y="0.0" type="move" name="bottom_hebr"/>
    </contour>
    <contour>
      <point x="276.0" y="297.0" type="move" name="center_hebr"/>
    </contour>
    <contour>
      <point x="0.0" y="506.0" type="move" name="topleft_hebr"/>
    </contour>
  </outline>
</glyph>
<glyph name="resh-hb" format="1">
  <advance width="520"/>
  <unicode hex="05E8"/>
  <outline>
    <contour>
      <point x="400" y="0" type="line" name="hr00"/>
      <point x="422" y="0" type="line"/>
      <point x="422" y="430" type="line" smooth="yes"/>
      <point x="422" y="537"/>
      <point x="367" y="596"/>
      <point x="257" y="596" type="curve" smooth="yes"/>
      <point x="39" y="596" type="line"/>
      <point x="39" y="576" type="line"/>
      <point x="256" y="576" type="line" smooth="yes"/>
      <point x="350" y="576"/>
      <point x="400" y="530"/>
      <point x="400" y="426" type="curve" smooth="yes"/>
    </contour>
    <contour>
      <point x="411.0" y="0.0" type="move" name="bottom_hebr"/>
    </contour>
    <contour>
      <point x="220.0" y="297.0" type="move" name="center_hebr"/>
    </contour>
    <contour>
      <point x="0.0" y="506.0" type="move" name="topleft_hebr"/>
    </contour>
  </outline>
</glyph>
<glyph name="shin-hb" format="1">
  <advance width="706"/>
  <unicode hex="05E9"/>
  <outline>
    <contour>
      <point x="353" y="-12" type="curve" smooth="yes" name="hr00"/>
      <point x="540" y="-12"/>
      <point x="619" y="84"/>
      <point x="619" y="270" type="curve" smooth="yes"/>
      <point x="619" y="596" type="line"/>
      <point x="597" y="596" type="line"/>
      <point x="597" y="268" type="line" smooth="yes"/>
      <point x="597" y="99"/>
      <point x="528" y="8"/>
      <point x="353" y="8" type="curve" smooth="yes"/>
      <point x="181" y="8"/>
      <point x="112" y="95"/>
      <point x="109" y="258" type="curve"/>
      <point x="335" y="258" type="line" smooth="yes"/>
      <point x="355" y="258"/>
      <point x="364" y="267"/>
      <point x="364" y="287" type="curve" smooth="yes"/>
      <point x="364" y="596" type="line"/>
      <point x="342" y="596" type="line"/>
      <point x="342" y="278" type="line"/>
      <point x="109" y="278" type="line"/>
      <point x="109" y="596" type="line"/>
      <point x="87" y="596" type="line"/>
      <point x="87" y="270" type="line" smooth="yes"/>
      <point x="87" y="84"/>
      <point x="166" y="-12"/>
    </contour>
    <contour>
      <point x="353.0" y="0.0" type="move" name="bottom_hebr"/>
    </contour>
    <contour>
      <point x="481.0" y="297.0" type="move" name="center_hebr"/>
    </contour>
    <contour>
      <point x="98.0" y="506.0" type="move" name="top_hebr"/>
    </contour>
    <contour>
      <point x="7.0" y="506.0" type="move" name="topleft_hebr"/>
    </contour>
    <contour>
      <point x="608.0" y="506.0" type="move" name="topright_hebr"/>
    </contour>
  </outline>
</glyph>
<glyph name="tav-hb" format="1">
  <advance width="656"/>
  <unicode hex="05EA"/>
  <outline>
    <contour>
      <point x="66" y="0" type="line" name="hr00"/>
      <point x="204" y="0" type="line"/>
      <point x="178" y="264" type="line" smooth="yes"/>
      <point x="175" y="292"/>
      <point x="174" y="317"/>
      <point x="174" y="341" type="curve" smooth="yes"/>
      <point x="174" y="459"/>
      <point x="203" y="524"/>
      <point x="222" y="559" type="curve" smooth="yes"/>
      <point x="231" y="576" type="line"/>
      <point x="392" y="576" type="line" smooth="yes"/>
      <point x="486" y="576"/>
      <point x="536" y="530"/>
      <point x="536" y="426" type="curve" smooth="yes"/>
      <point x="536" y="0" type="line"/>
      <point x="558" y="0" type="line"/>
      <point x="558" y="430" type="line" smooth="yes"/>
      <point x="558" y="537"/>
      <point x="503" y="596"/>
      <point x="393" y="596" type="curve" smooth="yes"/>
      <point x="74" y="596" type="line"/>
      <point x="74" y="576" type="line"/>
      <point x="212" y="576" type="line"/>
      <point x="212" y="573" type="line"/>
      <point x="199" y="549" type="line" smooth="yes"/>
      <point x="184" y="521"/>
      <point x="151" y="445"/>
      <point x="151" y="334" type="curve" smooth="yes"/>
      <point x="151" y="316"/>
      <point x="152" y="297"/>
      <point x="154" y="277" type="curve" smooth="yes"/>
      <point x="180" y="20" type="line"/>
      <point x="66" y="20" type="line"/>
    </contour>
    <contour>
      <point x="370.0" y="0.0" type="move" name="bottom_hebr"/>
    </contour>
    <contour>
      <point x="358.0" y="297.0" type="move" name="center_hebr"/>
    </contour>
    <contour>
      <point x="8.0" y="506.0" type="move" name="topleft_hebr"/>
    </contour>
  </outline>
</glyph>
<glyph name="geresh-hb" format="1">
  <advance width="240"/>
  <unicode hex="05F3"/>
  <outline>
    <contour>
      <point x="129" y="648" type="curve" smooth="yes" name="hr00"/>
      <point x="109" y="648"/>
      <point x="101" y="637"/>
      <point x="101" y="622" type="curve" smooth="yes"/>
      <point x="101" y="613" type="line" smooth="yes"/>
      <point x="101" y="601"/>
      <point x="109" y="590"/>
      <point x="133" y="590" type="curve"/>
      <point x="129" y="553"/>
      <point x="110" y="498"/>
      <point x="59" y="448" type="curve"/>
      <point x="78" y="448" type="line"/>
      <point x="121" y="488"/>
      <point x="155" y="555"/>
      <point x="155" y="610" type="curve" smooth="yes"/>
      <point x="155" y="622" type="line" smooth="yes"/>
      <point x="155" y="637"/>
      <point x="147" y="648"/>
    </contour>
  </outline>
</glyph>
<glyph name="gershayim-hb" format="1">
  <advance width="400"/>
  <unicode hex="05F4"/>
  <outline>
    <contour>
      <point x="129" y="648" type="curve" smooth="yes" name="hr00"/>
      <point x="109" y="648"/>
      <point x="101" y="637"/>
      <point x="101" y="622" type="curve" smooth="yes"/>
      <point x="101" y="613" type="line" smooth="yes"/>
      <point x="101" y="601"/>
      <point x="109" y="590"/>
      <point x="133" y="590" type="curve"/>
      <point x="129" y="553"/>
      <point x="110" y="498"/>
      <point x="59" y="448" type="curve"/>
      <point x="78" y="448" type="line"/>
      <point x="121" y="488"/>
      <point x="155" y="555"/>
      <point x="155" y="610" type="curve" smooth="yes"/>
      <point x="155" y="622" type="line" smooth="yes"/>
      <point x="155" y="637"/>
      <point x="147" y="648"/>
    </contour>
    <contour>
      <point x="289" y="648" type="curve" smooth="yes"/>
      <point x="269" y="648"/>
      <point x="261" y="637"/>
      <point x="261" y="622" type="curve" smooth="yes"/>
      <point x="261" y="613" type="line" smooth="yes"/>
      <point x="261" y="601"/>
      <point x="269" y="590"/>
      <point x="293" y="590" type="curve"/>
      <point x="289" y="553"/>
      <point x="270" y="498"/>
      <point x="219" y="448" type="curve"/>
      <point x="238" y="448" type="line"/>
      <point x="281" y="488"/>
      <point x="315" y="555"/>
      <point x="315" y="610" type="curve" smooth="yes"/>
      <point x="315" y="622" type="line" smooth="yes"/>
      <point x="315" y="637"/>
      <point x="307" y="648"/>
    </contour>
  </outline>
</glyph>
<glyph name="endash" format="1">
  <advance width="588"/>
  <unicode hex="2013"/>
  <outline>
    <contour>
      <point x="552" y="296" type="line" name="hr00"/>
      <point x="552" y="314" type="line"/>
      <point x="36" y="314" type="line"/>
      <point x="36" y="296" type="line"/>
    </contour>
  </outline>
</glyph>
<glyph name="quoteleft" format="1">
  <advance width="240"/>
  <unicode hex="2018"/>
  <outline>
    <contour>
      <point x="115" y="540" type="curve" smooth="yes" name="hr00"/>
      <point x="135" y="540"/>
      <point x="143" y="551"/>
      <point x="143" y="566" type="curve" smooth="yes"/>
      <point x="143" y="575" type="line" smooth="yes"/>
      <point x="143" y="587"/>
      <point x="135" y="598"/>
      <point x="111" y="598" type="curve"/>
      <point x="115" y="635"/>
      <point x="134" y="690"/>
      <point x="185" y="740" type="curve"/>
      <point x="166" y="740" type="line"/>
      <point x="123" y="700"/>
      <point x="89" y="633"/>
      <point x="89" y="578" type="curve" smooth="yes"/>
      <point x="89" y="566" type="line" smooth="yes"/>
      <point x="89" y="551"/>
      <point x="97" y="540"/>
    </contour>
  </outline>
</glyph>
<glyph name="quoteright" format="1">
  <advance width="240"/>
  <unicode hex="2019"/>
  <outline>
    <contour>
      <point x="129" y="750" type="curve" smooth="yes" name="hr00"/>
      <point x="109" y="750"/>
      <point x="101" y="739"/>
      <point x="101" y="724" type="curve" smooth="yes"/>
      <point x="101" y="715" type="line" smooth="yes"/>
      <point x="101" y="703"/>
      <point x="109" y="692"/>
      <point x="133" y="692" type="curve"/>
      <point x="129" y="655"/>
      <point x="110" y="600"/>
      <point x="59" y="550" type="curve"/>
      <point x="78" y="550" type="line"/>
      <point x="121" y="590"/>
      <point x="155" y="657"/>
      <point x="155" y="712" type="curve" smooth="yes"/>
      <point x="155" y="724" type="line" smooth="yes"/>
      <point x="155" y="739"/>
      <point x="147" y="750"/>
    </contour>
  </outline>
</glyph>
<glyph name="quotesinglbase" format="1">
  <advance width="240"/>
  <unicode hex="201A"/>
  <outline>
    <contour>
      <point x="122" y="66" type="curve" smooth="yes" name="hr00"/>
      <point x="102" y="66"/>
      <point x="94" y="55"/>
      <point x="94" y="40" type="curve" smooth="yes"/>
      <point x="94" y="31" type="line" smooth="yes"/>
      <point x="94" y="19"/>
      <point x="102" y="8"/>
      <point x="126" y="8" type="curve"/>
      <point x="122" y="-29"/>
      <point x="103" y="-84"/>
      <point x="52" y="-134" type="curve"/>
      <point x="71" y="-134" type="line"/>
      <point x="114" y="-94"/>
      <point x="148" y="-27"/>
      <point x="148" y="28" type="curve" smooth="yes"/>
      <point x="148" y="40" type="line" smooth="yes"/>
      <point x="148" y="55"/>
      <point x="140" y="66"/>
    </contour>
  </outline>
</glyph>
<glyph name="dagger" format="1">
  <advance width="561"/>
  <unicode hex="2020"/>
  <outline>
    <contour>
      <point x="291" y="-200" type="line" name="hr00"/>
      <point x="291" y="487" type="line"/>
      <point x="503" y="487" type="line"/>
      <point x="503" y="506" type="line"/>
      <point x="291" y="506" type="line"/>
      <point x="291" y="740" type="line"/>
      <point x="270" y="740" type="line"/>
      <point x="270" y="506" type="line"/>
      <point x="58" y="506" type="line"/>
      <point x="58" y="487" type="line"/>
      <point x="270" y="487" type="line"/>
      <point x="270" y="-200" type="line"/>
    </contour>
  </outline>
</glyph>
<glyph name="daggerdbl" format="1">
  <advance width="561"/>
  <unicode hex="2021"/>
  <outline>
    <contour>
      <point x="291" y="-200" type="line" name="hr00"/>
      <point x="291" y="34" type="line"/>
      <point x="503" y="34" type="line"/>
      <point x="503" y="53" type="line"/>
      <point x="291" y="53" type="line"/>
      <point x="291" y="487" type="line"/>
      <point x="503" y="487" type="line"/>
      <point x="503" y="506" type="line"/>
      <point x="291" y="506" type="line"/>
      <point x="291" y="740" type="line"/>
      <point x="270" y="740" type="line"/>
      <point x="270" y="506" type="line"/>
      <point x="58" y="506" type="line"/>
      <point x="58" y="487" type="line"/>
      <point x="270" y="487" type="line"/>
      <point x="270" y="53" type="line"/>
      <point x="58" y="53" type="line"/>
      <point x="58" y="34" type="line"/>
      <point x="270" y="34" type="line"/>
      <point x="270" y="-200" type="line"/>
    </contour>
  </outline>
</glyph>
<glyph name="bullet" format="1">
  <advance width="336"/>
  <unicode hex="2022"/>
  <outline>
    <contour>
      <point x="168" y="218" type="curve" smooth="yes" name="hr00"/>
      <point x="230" y="218"/>
      <point x="254" y="251"/>
      <point x="254" y="293" type="curve" smooth="yes"/>
      <point x="254" y="315" type="line" smooth="yes"/>
      <point x="254" y="357"/>
      <point x="230" y="390"/>
      <point x="168" y="390" type="curve" smooth="yes"/>
      <point x="106" y="390"/>
      <point x="82" y="357"/>
      <point x="82" y="315" type="curve" smooth="yes"/>
      <point x="82" y="293" type="line" smooth="yes"/>
      <point x="82" y="251"/>
      <point x="106" y="218"/>
    </contour>
  </outline>
</glyph>
<glyph name="perthousand" format="1">
  <advance width="1240"/>
  <unicode hex="2030"/>
  <outline>
    <contour>
      <point x="210" y="0" type="line"/>
      <point x="694" y="698" type="line"/>
      <point x="671" y="698" type="line"/>
      <point x="187" y="0" type="line"/>
    </contour>
    <contour>
      <point x="217" y="326" type="curve" smooth="yes"/>
      <point x="294" y="326"/>
      <point x="359" y="381"/>
      <point x="359" y="518" type="curve" smooth="yes"/>
      <point x="359" y="655"/>
      <point x="294" y="710"/>
      <point x="217" y="710" type="curve" smooth="yes" name="hr01"/>
      <point x="140" y="710"/>
      <point x="75" y="655"/>
      <point x="75" y="518" type="curve" smooth="yes"/>
      <point x="75" y="381"/>
      <point x="140" y="326"/>
    </contour>
    <contour>
      <point x="217" y="343" type="curve" smooth="yes"/>
      <point x="155" y="343"/>
      <point x="97" y="388"/>
      <point x="97" y="502" type="curve" smooth="yes"/>
      <point x="97" y="534" type="line" smooth="yes"/>
      <point x="97" y="648"/>
      <point x="155" y="693"/>
      <point x="217" y="693" type="curve" smooth="yes"/>
      <point x="279" y="693"/>
      <point x="337" y="648"/>
      <point x="337" y="534" type="curve" smooth="yes"/>
      <point x="337" y="502" type="line" smooth="yes"/>
      <point x="337" y="388"/>
      <point x="279" y="343"/>
    </contour>
    <contour>
      <point x="665" y="-12" type="curve" smooth="yes"/>
      <point x="742" y="-12"/>
      <point x="807" y="43"/>
      <point x="807" y="180" type="curve" smooth="yes"/>
      <point x="807" y="317"/>
      <point x="742" y="372"/>
      <point x="665" y="372" type="curve" smooth="yes"/>
      <point x="588" y="372"/>
      <point x="523" y="317"/>
      <point x="523" y="180" type="curve" smooth="yes"/>
      <point x="523" y="43"/>
      <point x="588" y="-12"/>
    </contour>
    <contour>
      <point x="665" y="5" type="curve" smooth="yes"/>
      <point x="603" y="5"/>
      <point x="545" y="50"/>
      <point x="545" y="164" type="curve" smooth="yes"/>
      <point x="545" y="196" type="line" smooth="yes"/>
      <point x="545" y="310"/>
      <point x="603" y="355"/>
      <point x="665" y="355" type="curve" smooth="yes"/>
      <point x="727" y="355"/>
      <point x="785" y="310"/>
      <point x="785" y="196" type="curve" smooth="yes"/>
      <point x="785" y="164" type="line" smooth="yes"/>
      <point x="785" y="50"/>
      <point x="727" y="5"/>
    </contour>
    <contour>
      <point x="1023" y="-12" type="curve" smooth="yes"/>
      <point x="1100" y="-12"/>
      <point x="1165" y="43"/>
      <point x="1165" y="180" type="curve" smooth="yes"/>
      <point x="1165" y="317"/>
      <point x="1100" y="372"/>
      <point x="1023" y="372" type="curve" smooth="yes"/>
      <point x="946" y="372"/>
      <point x="881" y="317"/>
      <point x="881" y="180" type="curve" smooth="yes"/>
      <point x="881" y="43"/>
      <point x="946" y="-12"/>
    </contour>
    <contour>
      <point x="1023" y="5" type="curve" smooth="yes"/>
      <point x="961" y="5"/>
      <point x="903" y="50"/>
      <point x="903" y="164" type="curve" smooth="yes"/>
      <point x="903" y="196" type="line" smooth="yes"/>
      <point x="903" y="310"/>
      <point x="961" y="355"/>
      <point x="1023" y="355" type="curve" smooth="yes"/>
      <point x="1085" y="355"/>
      <point x="1143" y="310"/>
      <point x="1143" y="196" type="curve" smooth="yes"/>
      <point x="1143" y="164" type="line" smooth="yes"/>
      <point x="1143" y="50"/>
      <point x="1085" y="5"/>
    </contour>
  </outline>
</glyph>
<glyph name="guilsinglleft" format="1">
  <advance width="292"/>
  <unicode hex="2039"/>
  <outline>
    <contour>
      <point x="241" y="121" type="line" name="hr00"/>
      <point x="57" y="294" type="line"/>
      <point x="241" y="467" type="line"/>
      <point x="232" y="482" type="line"/>
      <point x="34" y="304" type="line"/>
      <point x="34" y="284" type="line"/>
      <point x="232" y="106" type="line"/>
    </contour>
  </outline>
</glyph>
<glyph name="guilsinglright" format="1">
  <advance width="292"/>
  <unicode hex="203A"/>
  <outline>
    <contour>
      <point x="60" y="106" type="line" name="hr00"/>
      <point x="258" y="284" type="line"/>
      <point x="258" y="304" type="line"/>
      <point x="60" y="482" type="line"/>
      <point x="51" y="467" type="line"/>
      <point x="235" y="294" type="line"/>
      <point x="51" y="121" type="line"/>
    </contour>
  </outline>
</glyph>
<glyph name="fraction" format="1">
  <advance width="147"/>
  <unicode hex="2044"/>
  <outline>
    <contour>
      <point x="-138" y="0" type="line" name="hr00"/>
      <point x="309" y="698" type="line"/>
      <point x="287" y="698" type="line"/>
      <point x="-160" y="0" type="line"/>
    </contour>
  </outline>
</glyph>
<glyph name="zerosuperior" format="1">
  <advance width="384"/>
  <unicode hex="2070"/>
  <outline>
    <contour>
      <point x="192" y="323" type="curve" smooth="yes" name="hr00"/>
      <point x="285" y="323"/>
      <point x="323" y="390"/>
      <point x="323" y="514" type="curve" smooth="yes"/>
      <point x="323" y="637"/>
      <point x="285" y="704"/>
      <point x="192" y="704" type="curve" smooth="yes"/>
      <point x="99" y="704"/>
      <point x="61" y="637"/>
      <point x="61" y="514" type="curve" smooth="yes"/>
      <point x="61" y="390"/>
      <point x="99" y="323"/>
    </contour>
    <contour>
      <point x="192" y="340" type="curve" smooth="yes"/>
      <point x="113" y="340"/>
      <point x="81" y="398"/>
      <point x="81" y="493" type="curve" smooth="yes"/>
      <point x="81" y="534" type="line" smooth="yes"/>
      <point x="81" y="629"/>
      <point x="113" y="687"/>
      <point x="192" y="687" type="curve" smooth="yes"/>
      <point x="271" y="687"/>
      <point x="303" y="629"/>
      <point x="303" y="534" type="curve" smooth="yes"/>
      <point x="303" y="493" type="line" smooth="yes"/>
      <point x="303" y="398"/>
      <point x="271" y="340"/>
    </contour>
  </outline>
</glyph>
<glyph name="foursuperior" format="1">
  <advance width="346"/>
  <unicode hex="2074"/>
  <outline>
    <contour>
      <point x="252" y="329" type="line" name="hr00"/>
      <point x="252" y="418" type="line"/>
      <point x="318" y="418" type="line"/>
      <point x="318" y="435" type="line"/>
      <point x="252" y="435" type="line"/>
      <point x="252" y="698" type="line"/>
      <point x="224" y="698" type="line"/>
      <point x="20" y="437" type="line"/>
      <point x="20" y="418" type="line"/>
      <point x="233" y="418" type="line"/>
      <point x="233" y="329" type="line"/>
    </contour>
    <contour>
      <point x="233" y="435" type="line"/>
      <point x="40" y="435" type="line"/>
      <point x="230" y="679" type="line"/>
      <point x="233" y="679" type="line"/>
    </contour>
  </outline>
</glyph>
<glyph name="sevensuperior" format="1">
  <advance width="344"/>
  <unicode hex="2077"/>
  <outline>
    <contour>
      <point x="144" y="329" type="line" name="hr00"/>
      <point x="298" y="679" type="line"/>
      <point x="298" y="698" type="line"/>
      <point x="46" y="698" type="line"/>
      <point x="46" y="591" type="line"/>
      <point x="64" y="591" type="line"/>
      <point x="64" y="681" type="line"/>
      <point x="280" y="681" type="line"/>
      <point x="124" y="329" type="line"/>
    </contour>
  </outline>
</glyph>
<glyph name="eightsuperior" format="1">
  <advance width="396"/>
  <unicode hex="2078"/>
  <outline>
    <contour>
      <point x="198" y="323" type="curve" smooth="yes"/>
      <point x="289" y="323"/>
      <point x="335" y="364"/>
      <point x="335" y="426" type="curve" smooth="yes"/>
      <point x="335" y="480"/>
      <point x="300" y="507"/>
      <point x="248" y="518" type="curve"/>
      <point x="248" y="521" type="line"/>
      <point x="303" y="535"/>
      <point x="321" y="573"/>
      <point x="321" y="610" type="curve" smooth="yes" name="hr01"/>
      <point x="321" y="669"/>
      <point x="275" y="704"/>
      <point x="198" y="704" type="curve" smooth="yes"/>
      <point x="121" y="704"/>
      <point x="75" y="669"/>
      <point x="75" y="610" type="curve" smooth="yes"/>
      <point x="75" y="573"/>
      <point x="93" y="535"/>
      <point x="148" y="521" type="curve"/>
      <point x="148" y="518" type="line"/>
      <point x="96" y="507"/>
      <point x="61" y="480"/>
      <point x="61" y="426" type="curve" smooth="yes" name="hr02"/>
      <point x="61" y="364"/>
      <point x="107" y="323"/>
    </contour>
    <contour>
      <point x="198" y="528" type="curve" smooth="yes"/>
      <point x="127" y="528"/>
      <point x="95" y="558"/>
      <point x="95" y="604" type="curve" smooth="yes" name="hr03"/>
      <point x="95" y="611" type="line" smooth="yes"/>
      <point x="95" y="657"/>
      <point x="127" y="687"/>
      <point x="198" y="687" type="curve" smooth="yes"/>
      <point x="269" y="687"/>
      <point x="301" y="657"/>
      <point x="301" y="611" type="curve" smooth="yes"/>
      <point x="301" y="604" type="line" smooth="yes"/>
      <point x="301" y="558"/>
      <point x="269" y="528"/>
    </contour>
    <contour>
      <point x="198" y="340" type="curve" smooth="yes"/>
      <point x="122" y="340"/>
      <point x="81" y="370"/>
      <point x="81" y="421" type="curve" smooth="yes" name="hr04"/>
      <point x="81" y="430" type="line" smooth="yes"/>
      <point x="81" y="481"/>
      <point x="122" y="511"/>
      <point x="198" y="511" type="curve" smooth="yes"/>
      <point x="274" y="511"/>
      <point x="315" y="481"/>
      <point x="315" y="430" type="curve" smooth="yes"/>
      <point x="315" y="421" type="line" smooth="yes"/>
      <point x="315" y="370"/>
      <point x="274" y="340"/>
    </contour>
  </outline>
</glyph>
<glyph name="ninesuperior" format="1">
  <advance width="362"/>
  <unicode hex="2079"/>
  <outline>
    <contour>
      <point x="302" y="576" type="curve" smooth="yes" name="hr00"/>
      <point x="302" y="664"/>
      <point x="255" y="704"/>
      <point x="180" y="704" type="curve" smooth="yes"/>
      <point x="102" y="704"/>
      <point x="54" y="661"/>
      <point x="54" y="590" type="curve" smooth="yes"/>
      <point x="54" y="519"/>
      <point x="101" y="476"/>
      <point x="176" y="476" type="curve" smooth="yes"/>
      <point x="220" y="476"/>
      <point x="257" y="492"/>
      <point x="278" y="528" type="curve"/>
      <point x="280" y="527" type="line"/>
      <point x="255" y="438"/>
      <point x="204" y="378"/>
      <point x="128" y="329" type="curve"/>
      <point x="157" y="329" type="line"/>
      <point x="214" y="369"/>
      <point x="302" y="460"/>
    </contour>
    <contour>
      <point x="178" y="493" type="curve" smooth="yes"/>
      <point x="119" y="493"/>
      <point x="75" y="521"/>
      <point x="75" y="584" type="curve" smooth="yes"/>
      <point x="75" y="596" type="line" smooth="yes"/>
      <point x="75" y="659"/>
      <point x="119" y="687"/>
      <point x="178" y="687" type="curve" smooth="yes"/>
      <point x="237" y="687"/>
      <point x="281" y="659"/>
      <point x="281" y="596" type="curve" smooth="yes"/>
      <point x="281" y="584" type="line" smooth="yes"/>
      <point x="281" y="521"/>
      <point x="237" y="493"/>
    </contour>
  </outline>
</glyph>
<glyph name="zeroinferior" format="1">
  <advance width="384"/>
  <unicode hex="2080"/>
  <outline>
    <contour>
      <point x="192" y="-6" type="curve" smooth="yes" name="hr00"/>
      <point x="285" y="-6"/>
      <point x="323" y="61"/>
      <point x="323" y="185" type="curve" smooth="yes"/>
      <point x="323" y="308"/>
      <point x="285" y="375"/>
      <point x="192" y="375" type="curve" smooth="yes"/>
      <point x="99" y="375"/>
      <point x="61" y="308"/>
      <point x="61" y="185" type="curve" smooth="yes"/>
      <point x="61" y="61"/>
      <point x="99" y="-6"/>
    </contour>
    <contour>
      <point x="192" y="11" type="curve" smooth="yes"/>
      <point x="113" y="11"/>
      <point x="81" y="69"/>
      <point x="81" y="164" type="curve" smooth="yes"/>
      <point x="81" y="205" type="line" smooth="yes"/>
      <point x="81" y="300"/>
      <point x="113" y="358"/>
      <point x="192" y="358" type="curve" smooth="yes"/>
      <point x="271" y="358"/>
      <point x="303" y="300"/>
      <point x="303" y="205" type="curve" smooth="yes"/>
      <point x="303" y="164" type="line" smooth="yes"/>
      <point x="303" y="69"/>
      <point x="271" y="11"/>
    </contour>
  </outline>
</glyph>
<glyph name="oneinferior" format="1">
  <advance width="373"/>
  <unicode hex="2081"/>
  <outline>
    <contour>
      <point x="326" y="0" type="line" name="hr00"/>
      <point x="326" y="17" type="line"/>
      <point x="208" y="17" type="line"/>
      <point x="208" y="369" type="line"/>
      <point x="176" y="369" type="line"/>
      <point x="49" y="262" type="line"/>
      <point x="60" y="249" type="line"/>
      <point x="185" y="354" type="line"/>
      <point x="189" y="354" type="line"/>
      <point x="189" y="17" type="line"/>
      <point x="60" y="17" type="line"/>
      <point x="60" y="0" type="line"/>
    </contour>
  </outline>
</glyph>
<glyph name="fourinferior" format="1">
  <advance width="346"/>
  <unicode hex="2084"/>
  <outline>
    <contour>
      <point x="252" y="0" type="line" name="hr00"/>
      <point x="252" y="89" type="line"/>
      <point x="318" y="89" type="line"/>
      <point x="318" y="106" type="line"/>
      <point x="252" y="106" type="line"/>
      <point x="252" y="369" type="line"/>
      <point x="224" y="369" type="line"/>
      <point x="20" y="108" type="line"/>
      <point x="20" y="89" type="line"/>
      <point x="233" y="89" type="line"/>
      <point x="233" y="0" type="line"/>
    </contour>
    <contour>
      <point x="233" y="106" type="line"/>
      <point x="40" y="106" type="line"/>
      <point x="230" y="350" type="line"/>
      <point x="233" y="350" type="line"/>
    </contour>
  </outline>
</glyph>
<glyph name="sixinferior" format="1">
  <advance width="362"/>
  <unicode hex="2086"/>
  <outline>
    <contour>
      <point x="182" y="-6" type="curve" smooth="yes" name="hr00"/>
      <point x="260" y="-6"/>
      <point x="308" y="37"/>
      <point x="308" y="108" type="curve" smooth="yes"/>
      <point x="308" y="179"/>
      <point x="261" y="222"/>
      <point x="186" y="222" type="curve" smooth="yes"/>
      <point x="142" y="222"/>
      <point x="105" y="206"/>
      <point x="84" y="170" type="curve"/>
      <point x="82" y="171" type="line"/>
      <point x="107" y="260"/>
      <point x="158" y="320"/>
      <point x="234" y="369" type="curve"/>
      <point x="205" y="369" type="line"/>
      <point x="148" y="329"/>
      <point x="60" y="238"/>
      <point x="60" y="122" type="curve" smooth="yes"/>
      <point x="60" y="33"/>
      <point x="110" y="-6"/>
    </contour>
    <contour>
      <point x="184" y="11" type="curve" smooth="yes"/>
      <point x="125" y="11"/>
      <point x="81" y="39"/>
      <point x="81" y="102" type="curve" smooth="yes"/>
      <point x="81" y="114" type="line" smooth="yes"/>
      <point x="81" y="177"/>
      <point x="125" y="205"/>
      <point x="184" y="205" type="curve" smooth="yes"/>
      <point x="243" y="205"/>
      <point x="287" y="177"/>
      <point x="287" y="114" type="curve" smooth="yes"/>
      <point x="287" y="102" type="line" smooth="yes"/>
      <point x="287" y="39"/>
      <point x="243" y="11"/>
    </contour>
  </outline>
</glyph>
<glyph name="seveninferior" format="1">
  <advance width="344"/>
  <unicode hex="2087"/>
  <outline>
    <contour>
      <point x="144" y="0" type="line" name="hr00"/>
      <point x="298" y="350" type="line"/>
      <point x="298" y="369" type="line"/>
      <point x="46" y="369" type="line"/>
      <point x="46" y="262" type="line"/>
      <point x="64" y="262" type="line"/>
      <point x="64" y="352" type="line"/>
      <point x="280" y="352" type="line"/>
      <point x="124" y="0" type="line"/>
    </contour>
  </outline>
</glyph>
<glyph name="eightinferior" format="1">
  <advance width="396"/>
  <unicode hex="2088"/>
  <outline>
    <contour>
      <point x="198" y="-6" type="curve" smooth="yes"/>
      <point x="289" y="-6"/>
      <point x="335" y="35"/>
      <point x="335" y="97" type="curve" smooth="yes"/>
      <point x="335" y="151"/>
      <point x="300" y="178"/>
      <point x="248" y="189" type="curve"/>
      <point x="248" y="192" type="line"/>
      <point x="303" y="206"/>
      <point x="321" y="244"/>
      <point x="321" y="281" type="curve" smooth="yes" name="hr01"/>
      <point x="321" y="340"/>
      <point x="275" y="375"/>
      <point x="198" y="375" type="curve" smooth="yes"/>
      <point x="121" y="375"/>
      <point x="75" y="340"/>
      <point x="75" y="281" type="curve" smooth="yes"/>
      <point x="75" y="244"/>
      <point x="93" y="206"/>
      <point x="148" y="192" type="curve"/>
      <point x="148" y="189" type="line"/>
      <point x="96" y="178"/>
      <point x="61" y="151"/>
      <point x="61" y="97" type="curve" smooth="yes" name="hr02"/>
      <point x="61" y="35"/>
      <point x="107" y="-6"/>
    </contour>
    <contour>
      <point x="198" y="11" type="curve" smooth="yes"/>
      <point x="122" y="11"/>
      <point x="81" y="41"/>
      <point x="81" y="92" type="curve" smooth="yes"/>
      <point x="81" y="101" type="line" smooth="yes"/>
      <point x="81" y="152"/>
      <point x="122" y="182"/>
      <point x="198" y="182" type="curve" smooth="yes"/>
      <point x="274" y="182"/>
      <point x="315" y="152"/>
      <point x="315" y="101" type="curve" smooth="yes"/>
      <point x="315" y="92" type="line" smooth="yes"/>
      <point x="315" y="41"/>
      <point x="274" y="11"/>
    </contour>
    <contour>
      <point x="198" y="199" type="curve" smooth="yes"/>
      <point x="127" y="199"/>
      <point x="95" y="229"/>
      <point x="95" y="275" type="curve" smooth="yes" name="hr03"/>
      <point x="95" y="282" type="line" smooth="yes"/>
      <point x="95" y="328"/>
      <point x="127" y="358"/>
      <point x="198" y="358" type="curve" smooth="yes"/>
      <point x="269" y="358"/>
      <point x="301" y="328"/>
      <point x="301" y="282" type="curve" smooth="yes"/>
      <point x="301" y="275" type="line" smooth="yes"/>
      <point x="301" y="229"/>
      <point x="269" y="199"/>
    </contour>
  </outline>
</glyph>
<glyph name="nineinferior" format="1">
  <advance width="362"/>
  <unicode hex="2089"/>
  <outline>
    <contour>
      <point x="302" y="247" type="curve" smooth="yes" name="hr00"/>
      <point x="302" y="335"/>
      <point x="255" y="375"/>
      <point x="180" y="375" type="curve" smooth="yes"/>
      <point x="102" y="375"/>
      <point x="54" y="332"/>
      <point x="54" y="261" type="curve" smooth="yes"/>
      <point x="54" y="190"/>
      <point x="101" y="147"/>
      <point x="176" y="147" type="curve" smooth="yes"/>
      <point x="220" y="147"/>
      <point x="257" y="163"/>
      <point x="278" y="199" type="curve"/>
      <point x="280" y="198" type="line"/>
      <point x="255" y="109"/>
      <point x="204" y="49"/>
      <point x="128" y="0" type="curve"/>
      <point x="157" y="0" type="line"/>
      <point x="214" y="40"/>
      <point x="302" y="131"/>
    </contour>
    <contour>
      <point x="178" y="164" type="curve" smooth="yes"/>
      <point x="119" y="164"/>
      <point x="75" y="192"/>
      <point x="75" y="255" type="curve" smooth="yes"/>
      <point x="75" y="267" type="line" smooth="yes"/>
      <point x="75" y="330"/>
      <point x="119" y="358"/>
      <point x="178" y="358" type="curve" smooth="yes"/>
      <point x="237" y="358"/>
      <point x="281" y="330"/>
      <point x="281" y="267" type="curve" smooth="yes"/>
      <point x="281" y="255" type="line" smooth="yes"/>
      <point x="281" y="192"/>
      <point x="237" y="164"/>
    </contour>
  </outline>
</glyph>
<glyph name="coloncurrency" format="1">
  <advance width="610"/>
  <unicode hex="20A1"/>
  <outline>
    <contour>
      <point x="314" y="-82" type="line" name="hr00"/>
      <point x="333" y="-82" type="line"/>
      <point x="343" y="-2" type="line"/>
      <point x="443" y="3"/>
      <point x="516" y="63"/>
      <point x="550" y="150" type="curve"/>
      <point x="531" y="158" type="line"/>
      <point x="499" y="76"/>
      <point x="436" y="24"/>
      <point x="345" y="19" type="curve"/>
      <point x="424" y="659" type="line"/>
      <point x="469" y="637"/>
      <point x="504" y="598"/>
      <point x="526" y="548" type="curve"/>
      <point x="545" y="557" type="line"/>
      <point x="520" y="612"/>
      <point x="480" y="656"/>
      <point x="427" y="680" type="curve"/>
      <point x="439" y="780" type="line"/>
      <point x="420" y="780" type="line"/>
      <point x="409" y="687" type="line"/>
      <point x="384" y="695"/>
      <point x="358" y="700"/>
      <point x="329" y="700" type="curve" smooth="yes"/>
      <point x="317" y="700"/>
      <point x="305" y="699"/>
      <point x="294" y="698" type="curve"/>
      <point x="304" y="780" type="line"/>
      <point x="285" y="780" type="line"/>
      <point x="275" y="696" type="line"/>
      <point x="144" y="673"/>
      <point x="70" y="561"/>
      <point x="70" y="349" type="curve" smooth="yes"/>
      <point x="70" y="186"/>
      <point x="113" y="82"/>
      <point x="193" y="33" type="curve"/>
      <point x="179" y="-82" type="line"/>
      <point x="198" y="-82" type="line"/>
      <point x="211" y="23" type="line"/>
      <point x="243" y="7"/>
      <point x="281" y="-1"/>
      <point x="324" y="-2" type="curve"/>
    </contour>
    <contour>
      <point x="329" y="680" type="curve" smooth="yes"/>
      <point x="357" y="680"/>
      <point x="383" y="675"/>
      <point x="406" y="667" type="curve"/>
      <point x="326" y="18" type="line"/>
      <point x="285" y="18"/>
      <point x="246" y="27"/>
      <point x="214" y="44" type="curve"/>
      <point x="291" y="678" type="line"/>
      <point x="303" y="679"/>
      <point x="316" y="680"/>
    </contour>
    <contour>
      <point x="94" y="328" type="curve" smooth="yes"/>
      <point x="94" y="370" type="line" smooth="yes"/>
      <point x="94" y="555"/>
      <point x="160" y="652"/>
      <point x="272" y="675" type="curve"/>
      <point x="196" y="55" type="line"/>
      <point x="131" y="101"/>
      <point x="94" y="190"/>
    </contour>
  </outline>
</glyph>
<glyph name="naira" format="1">
  <advance width="665"/>
  <unicode hex="20A6"/>
  <outline>
    <contour>
      <point x="17" y="418" type="line" name="hr00"/>
      <point x="111" y="418" type="line"/>
      <point x="111" y="280" type="line"/>
      <point x="16" y="280" type="line"/>
      <point x="16" y="261" type="line"/>
      <point x="111" y="261" type="line"/>
      <point x="111" y="0" type="line"/>
      <point x="131" y="0" type="line"/>
      <point x="131" y="261" type="line"/>
      <point x="372" y="261" type="line"/>
      <point x="524" y="0" type="line"/>
      <point x="554" y="0" type="line"/>
      <point x="554" y="261" type="line"/>
      <point x="649" y="261" type="line"/>
      <point x="649" y="280" type="line"/>
      <point x="554" y="280" type="line"/>
      <point x="554" y="418" type="line"/>
      <point x="649" y="418" type="line"/>
      <point x="649" y="437" type="line"/>
      <point x="554" y="437" type="line"/>
      <point x="554" y="698" type="line"/>
      <point x="534" y="698" type="line"/>
      <point x="534" y="437" type="line"/>
      <point x="293" y="437" type="line"/>
      <point x="141" y="698" type="line"/>
      <point x="111" y="698" type="line"/>
      <point x="111" y="437" type="line"/>
      <point x="17" y="437" type="line"/>
    </contour>
    <contour>
      <point x="131" y="280" type="line"/>
      <point x="131" y="418" type="line"/>
      <point x="280" y="418" type="line"/>
      <point x="361" y="280" type="line"/>
    </contour>
    <contour>
      <point x="304" y="418" type="line"/>
      <point x="534" y="418" type="line"/>
      <point x="534" y="280" type="line"/>
      <point x="384" y="280" type="line"/>
    </contour>
    <contour>
      <point x="131" y="670" type="line"/>
      <point x="134" y="670" type="line"/>
      <point x="269" y="437" type="line"/>
      <point x="131" y="437" type="line"/>
    </contour>
    <contour>
      <point x="531" y="28" type="line"/>
      <point x="395" y="261" type="line"/>
      <point x="534" y="261" type="line"/>
      <point x="534" y="28" type="line"/>
    </contour>
  </outline>
</glyph>
<glyph name="rupee" format="1">
  <advance width="719"/>
  <unicode hex="20A8"/>
  <outline>
    <contour>
      <point x="679" y="105" type="curve" smooth="yes"/>
      <point x="679" y="155"/>
      <point x="658" y="184"/>
      <point x="605" y="224" type="curve" smooth="yes"/>
      <point x="565" y="254" type="line" smooth="yes"/>
      <point x="511" y="294"/>
      <point x="486" y="326"/>
      <point x="486" y="375" type="curve" smooth="yes"/>
      <point x="486" y="419"/>
      <point x="515" y="453"/>
      <point x="573" y="453" type="curve" smooth="yes"/>
      <point x="608" y="453"/>
      <point x="633" y="442"/>
      <point x="656" y="421" type="curve"/>
      <point x="670" y="437" type="line"/>
      <point x="644" y="461"/>
      <point x="610" y="473"/>
      <point x="572" y="473" type="curve" smooth="yes"/>
      <point x="497" y="473"/>
      <point x="464" y="423"/>
      <point x="464" y="375" type="curve" smooth="yes"/>
      <point x="464" y="318"/>
      <point x="492" y="283"/>
      <point x="552" y="238" type="curve" smooth="yes"/>
      <point x="592" y="208" type="line" smooth="yes"/>
      <point x="643" y="170"/>
      <point x="657" y="148"/>
      <point x="657" y="105" type="curve" smooth="yes"/>
      <point x="657" y="50"/>
      <point x="611" y="8"/>
      <point x="551" y="8" type="curve" smooth="yes"/>
      <point x="482" y="8"/>
      <point x="440" y="37"/>
      <point x="409" y="93" type="curve" smooth="yes"/>
      <point x="275" y="337" type="line"/>
      <point x="358" y="355"/>
      <point x="395" y="419"/>
      <point x="395" y="515" type="curve" smooth="yes"/>
      <point x="395" y="629"/>
      <point x="343" y="698"/>
      <point x="222" y="698" type="curve" smooth="yes"/>
      <point x="108" y="698" type="line"/>
      <point x="108" y="0" type="line" name="hr01"/>
      <point x="130" y="0" type="line"/>
      <point x="130" y="332" type="line"/>
      <point x="222" y="332" type="line" smooth="yes"/>
      <point x="233" y="332"/>
      <point x="243" y="333"/>
      <point x="252" y="334" type="curve"/>
      <point x="392" y="79" type="line" smooth="yes"/>
      <point x="427" y="16"/>
      <point x="476" y="-12"/>
      <point x="551" y="-12" type="curve" smooth="yes" name="hr02"/>
      <point x="624" y="-12"/>
      <point x="679" y="38"/>
    </contour>
    <contour>
      <point x="130" y="678" type="line"/>
      <point x="222" y="678" type="line" smooth="yes"/>
      <point x="317" y="678"/>
      <point x="371" y="629"/>
      <point x="371" y="537" type="curve" smooth="yes"/>
      <point x="371" y="493" type="line" smooth="yes"/>
      <point x="371" y="401"/>
      <point x="317" y="352"/>
      <point x="222" y="352" type="curve" smooth="yes"/>
      <point x="130" y="352" type="line"/>
    </contour>
  </outline>
</glyph>
<glyph name="sheqel" format="1">
  <advance width="766"/>
  <unicode hex="20AA"/>
  <outline>
    <contour>
      <point x="284" y="0" type="line" name="hr00"/>
      <point x="527" y="0" type="line" smooth="yes"/>
      <point x="610" y="0"/>
      <point x="658" y="50"/>
      <point x="658" y="156" type="curve" smooth="yes"/>
      <point x="658" y="698" type="line"/>
      <point x="636" y="698" type="line"/>
      <point x="636" y="156" type="line" smooth="yes"/>
      <point x="636" y="51"/>
      <point x="584" y="20"/>
      <point x="527" y="20" type="curve" smooth="yes"/>
      <point x="306" y="20" type="line"/>
      <point x="306" y="572" type="line"/>
      <point x="284" y="572" type="line"/>
    </contour>
    <contour>
      <point x="130" y="0" type="line"/>
      <point x="130" y="678" type="line"/>
      <point x="341" y="678" type="line" smooth="yes"/>
      <point x="398" y="678"/>
      <point x="460" y="647"/>
      <point x="460" y="542" type="curve" smooth="yes"/>
      <point x="460" y="126" type="line"/>
      <point x="482" y="126" type="line"/>
      <point x="482" y="542" type="line" smooth="yes"/>
      <point x="482" y="648"/>
      <point x="424" y="698"/>
      <point x="341" y="698" type="curve" smooth="yes"/>
      <point x="108" y="698" type="line"/>
      <point x="108" y="0" type="line"/>
    </contour>
  </outline>
</glyph>
<glyph name="dong" format="1">
  <advance width="562"/>
  <unicode hex="20AB"/>
  <outline>
    <contour>
      <point x="429" y="110" type="line" name="hr00"/>
      <point x="450" y="110" type="line"/>
      <point x="450" y="645" type="line"/>
      <point x="522" y="645" type="line"/>
      <point x="522" y="664" type="line"/>
      <point x="450" y="664" type="line"/>
      <point x="450" y="740" type="line"/>
      <point x="429" y="740" type="line"/>
      <point x="429" y="664" type="line"/>
      <point x="264" y="664" type="line"/>
      <point x="264" y="645" type="line"/>
      <point x="429" y="645" type="line"/>
      <point x="429" y="462" type="line"/>
      <point x="426" y="462" type="line"/>
      <point x="407" y="504"/>
      <point x="355" y="548"/>
      <point x="269" y="548" type="curve" smooth="yes"/>
      <point x="143" y="548"/>
      <point x="69" y="471"/>
      <point x="69" y="323" type="curve" smooth="yes"/>
      <point x="69" y="175"/>
      <point x="143" y="98"/>
      <point x="269" y="98" type="curve" smooth="yes"/>
      <point x="355" y="98"/>
      <point x="407" y="141"/>
      <point x="426" y="183" type="curve"/>
      <point x="429" y="183" type="line"/>
    </contour>
    <contour>
      <point x="271" y="117" type="curve" smooth="yes"/>
      <point x="158" y="117"/>
      <point x="92" y="187"/>
      <point x="92" y="298" type="curve" smooth="yes"/>
      <point x="92" y="348" type="line" smooth="yes"/>
      <point x="92" y="459"/>
      <point x="158" y="529"/>
      <point x="271" y="529" type="curve" smooth="yes"/>
      <point x="355" y="529"/>
      <point x="429" y="476"/>
      <point x="429" y="397" type="curve" smooth="yes"/>
      <point x="429" y="248" type="line" smooth="yes"/>
      <point x="429" y="170"/>
      <point x="355" y="117"/>
    </contour>
    <contour>
      <point x="485" y="0" type="line"/>
      <point x="485" y="20" type="line"/>
      <point x="69" y="20" type="line"/>
      <point x="69" y="0" type="line"/>
    </contour>
  </outline>
</glyph>
<glyph name="kip" format="1">
  <advance width="569"/>
  <unicode hex="20AD"/>
  <outline>
    <contour>
      <point x="133" y="358" type="line" name="hr00"/>
      <point x="229" y="358" type="line"/>
      <point x="510" y="0" type="line"/>
      <point x="536" y="0" type="line"/>
      <point x="257" y="358" type="line"/>
      <point x="507" y="358" type="line"/>
      <point x="507" y="378" type="line"/>
      <point x="256" y="378" type="line"/>
      <point x="520" y="698" type="line"/>
      <point x="494" y="698" type="line"/>
      <point x="229" y="378" type="line"/>
      <point x="133" y="378" type="line"/>
      <point x="133" y="698" type="line"/>
      <point x="111" y="698" type="line"/>
      <point x="111" y="378" type="line"/>
      <point x="16" y="378" type="line"/>
      <point x="16" y="358" type="line"/>
      <point x="111" y="358" type="line"/>
      <point x="111" y="0" type="line"/>
      <point x="133" y="0" type="line"/>
    </contour>
  </outline>
</glyph>
<glyph name="tugrik" format="1">
  <advance width="580"/>
  <unicode hex="20AE"/>
  <outline>
    <contour>
      <point x="457" y="329" type="line" name="hr00"/>
      <point x="457" y="350" type="line"/>
      <point x="301" y="274" type="line"/>
      <point x="301" y="402" type="line"/>
      <point x="457" y="478" type="line"/>
      <point x="457" y="499" type="line"/>
      <point x="301" y="423" type="line"/>
      <point x="301" y="678" type="line"/>
      <point x="553" y="678" type="line"/>
      <point x="553" y="698" type="line"/>
      <point x="27" y="698" type="line"/>
      <point x="27" y="678" type="line"/>
      <point x="279" y="678" type="line"/>
      <point x="279" y="414" type="line"/>
      <point x="123" y="338" type="line"/>
      <point x="123" y="317" type="line"/>
      <point x="279" y="393" type="line"/>
      <point x="279" y="265" type="line"/>
      <point x="123" y="189" type="line"/>
      <point x="123" y="168" type="line"/>
      <point x="279" y="244" type="line"/>
      <point x="279" y="0" type="line"/>
      <point x="301" y="0" type="line"/>
      <point x="301" y="253" type="line"/>
    </contour>
  </outline>
</glyph>
<glyph name="peso" format="1">
  <advance width="607"/>
  <unicode hex="20B1"/>
  <outline>
    <contour>
      <point x="133" y="257" type="line" name="hr00"/>
      <point x="335" y="257" type="line" smooth="yes"/>
      <point x="430" y="257"/>
      <point x="488" y="309"/>
      <point x="504" y="393" type="curve"/>
      <point x="591" y="393" type="line"/>
      <point x="591" y="412" type="line"/>
      <point x="506" y="412" type="line"/>
      <point x="506" y="477" type="line"/>
      <point x="506" y="543" type="line"/>
      <point x="591" y="543" type="line"/>
      <point x="591" y="562" type="line"/>
      <point x="504" y="562" type="line"/>
      <point x="488" y="646"/>
      <point x="430" y="698"/>
      <point x="335" y="698" type="curve" smooth="yes"/>
      <point x="111" y="698" type="line"/>
      <point x="111" y="562" type="line"/>
      <point x="16" y="562" type="line"/>
      <point x="16" y="543" type="line"/>
      <point x="111" y="543" type="line"/>
      <point x="111" y="412" type="line"/>
      <point x="16" y="412" type="line"/>
      <point x="16" y="393" type="line"/>
      <point x="111" y="393" type="line"/>
      <point x="111" y="0" type="line"/>
      <point x="133" y="0" type="line"/>
    </contour>
    <contour>
      <point x="133" y="678" type="line"/>
      <point x="335" y="678" type="line" smooth="yes"/>
      <point x="423" y="678"/>
      <point x="471" y="625"/>
      <point x="482" y="562" type="curve"/>
      <point x="133" y="562" type="line"/>
    </contour>
    <contour>
      <point x="133" y="412" type="line"/>
      <point x="133" y="543" type="line"/>
      <point x="484" y="543" type="line"/>
      <point x="484" y="412" type="line"/>
    </contour>
    <contour>
      <point x="133" y="277" type="line"/>
      <point x="133" y="393" type="line"/>
      <point x="482" y="393" type="line"/>
      <point x="471" y="330"/>
      <point x="423" y="277"/>
      <point x="335" y="277" type="curve" smooth="yes"/>
    </contour>
  </outline>
</glyph>
<glyph name="tenge" format="1">
  <advance width="602"/>
  <unicode hex="20B8"/>
  <outline>
    <contour>
      <point x="564" y="678" type="line" name="hr00"/>
      <point x="564" y="698" type="line"/>
      <point x="38" y="698" type="line"/>
      <point x="38" y="678" type="line"/>
    </contour>
    <contour>
      <point x="564" y="529" type="line"/>
      <point x="564" y="549" type="line"/>
      <point x="38" y="549" type="line"/>
      <point x="38" y="529" type="line"/>
      <point x="290" y="529" type="line"/>
      <point x="290" y="0" type="line"/>
      <point x="312" y="0" type="line"/>
      <point x="312" y="529" type="line"/>
    </contour>
  </outline>
</glyph>
<glyph name="rupeeindian" format="1">
  <advance width="611"/>
  <unicode hex="20B9"/>
  <outline>
    <contour>
      <point x="515" y="0" type="line" name="hr00"/>
      <point x="269" y="322" type="line"/>
      <point x="292" y="322" type="line" smooth="yes"/>
      <point x="404" y="322"/>
      <point x="466" y="396"/>
      <point x="466" y="502" type="curve" smooth="yes"/>
      <point x="466" y="509" type="line"/>
      <point x="580" y="509" type="line"/>
      <point x="580" y="529" type="line"/>
      <point x="466" y="529" type="line"/>
      <point x="462" y="605"/>
      <point x="429" y="654"/>
      <point x="373" y="676" type="curve"/>
      <point x="373" y="678" type="line"/>
      <point x="580" y="678" type="line"/>
      <point x="580" y="698" type="line"/>
      <point x="70" y="698" type="line"/>
      <point x="70" y="678" type="line"/>
      <point x="295" y="678" type="line" smooth="yes"/>
      <point x="391" y="678"/>
      <point x="442" y="614"/>
      <point x="443" y="529" type="curve"/>
      <point x="70" y="529" type="line"/>
      <point x="70" y="509" type="line"/>
      <point x="443" y="509" type="line"/>
      <point x="443" y="497" type="line" smooth="yes"/>
      <point x="443" y="409"/>
      <point x="395" y="342"/>
      <point x="293" y="342" type="curve" smooth="yes"/>
      <point x="70" y="342" type="line"/>
      <point x="70" y="322" type="line"/>
      <point x="244" y="322" type="line"/>
      <point x="489" y="0" type="line"/>
    </contour>
  </outline>
</glyph>
<glyph name="liraturkish" format="1">
  <advance width="611"/>
  <unicode hex="20BA"/>
  <outline>
    <contour>
      <point x="154" y="0" type="line" name="hr00"/>
      <point x="314" y="0" type="line" smooth="yes"/>
      <point x="470" y="0"/>
      <point x="556" y="133"/>
      <point x="556" y="305" type="curve"/>
      <point x="534" y="305" type="line"/>
      <point x="534" y="145"/>
      <point x="454" y="20"/>
      <point x="311" y="20" type="curve" smooth="yes"/>
      <point x="176" y="20" type="line"/>
      <point x="176" y="313" type="line"/>
      <point x="384" y="414" type="line"/>
      <point x="384" y="435" type="line"/>
      <point x="176" y="334" type="line"/>
      <point x="176" y="462" type="line"/>
      <point x="384" y="563" type="line"/>
      <point x="384" y="584" type="line"/>
      <point x="176" y="483" type="line"/>
      <point x="176" y="698" type="line"/>
      <point x="154" y="698" type="line"/>
      <point x="154" y="474" type="line"/>
      <point x="23" y="411" type="line"/>
      <point x="23" y="390" type="line"/>
      <point x="154" y="453" type="line"/>
      <point x="154" y="325" type="line"/>
      <point x="23" y="262" type="line"/>
      <point x="23" y="241" type="line"/>
      <point x="154" y="304" type="line"/>
    </contour>
  </outline>
</glyph>
<glyph name="ruble" format="1">
  <advance width="597"/>
  <unicode hex="20BD"/>
  <outline>
    <contour>
      <point x="380" y="173" type="line" name="hr00"/>
      <point x="380" y="193" type="line"/>
      <point x="133" y="193" type="line"/>
      <point x="133" y="322" type="line"/>
      <point x="379" y="322" type="line" smooth="yes"/>
      <point x="493" y="322"/>
      <point x="553" y="396"/>
      <point x="553" y="510" type="curve" smooth="yes"/>
      <point x="553" y="624"/>
      <point x="493" y="698"/>
      <point x="379" y="698" type="curve" smooth="yes"/>
      <point x="111" y="698" type="line"/>
      <point x="111" y="342" type="line"/>
      <point x="16" y="342" type="line"/>
      <point x="16" y="322" type="line"/>
      <point x="111" y="322" type="line"/>
      <point x="111" y="193" type="line"/>
      <point x="16" y="193" type="line"/>
      <point x="16" y="173" type="line"/>
      <point x="111" y="173" type="line"/>
      <point x="111" y="0" type="line"/>
      <point x="133" y="0" type="line"/>
      <point x="133" y="173" type="line"/>
    </contour>
    <contour>
      <point x="133" y="678" type="line"/>
      <point x="379" y="678" type="line" smooth="yes"/>
      <point x="482" y="678"/>
      <point x="529" y="607"/>
      <point x="529" y="531" type="curve" smooth="yes"/>
      <point x="529" y="489" type="line" smooth="yes"/>
      <point x="529" y="413"/>
      <point x="482" y="342"/>
      <point x="379" y="342" type="curve" smooth="yes"/>
      <point x="133" y="342" type="line"/>
    </contour>
  </outline>
</glyph>
<glyph name="numerosign" format="1">
  <advance width="1010"/>
  <unicode hex="2116"/>
  <outline>
    <contour>
      <point x="833" y="366" type="curve" smooth="yes"/>
      <point x="925" y="366"/>
      <point x="980" y="432"/>
      <point x="980" y="540" type="curve" smooth="yes"/>
      <point x="980" y="644"/>
      <point x="925" y="710"/>
      <point x="833" y="710" type="curve" smooth="yes"/>
      <point x="741" y="710"/>
      <point x="686" y="644"/>
      <point x="686" y="540" type="curve" smooth="yes"/>
      <point x="686" y="432"/>
      <point x="740" y="366"/>
    </contour>
    <contour>
      <point x="129" y="0" type="line"/>
      <point x="129" y="671" type="line"/>
      <point x="132" y="671" type="line"/>
      <point x="552" y="0" type="line"/>
      <point x="584" y="0" type="line"/>
      <point x="584" y="698" type="line" name="hr01"/>
      <point x="563" y="698" type="line"/>
      <point x="563" y="27" type="line"/>
      <point x="560" y="27" type="line"/>
      <point x="140" y="698" type="line"/>
      <point x="108" y="698" type="line"/>
      <point x="108" y="0" type="line"/>
    </contour>
    <contour>
      <point x="833" y="383" type="curve" smooth="yes"/>
      <point x="750" y="383"/>
      <point x="707" y="446"/>
      <point x="707" y="522" type="curve" smooth="yes"/>
      <point x="707" y="556" type="line" smooth="yes"/>
      <point x="707" y="629"/>
      <point x="750" y="693"/>
      <point x="833" y="693" type="curve" smooth="yes" name="hr02"/>
      <point x="916" y="693"/>
      <point x="959" y="629"/>
      <point x="959" y="556" type="curve" smooth="yes"/>
      <point x="959" y="522" type="line" smooth="yes"/>
      <point x="959" y="446"/>
      <point x="916" y="383"/>
    </contour>
    <contour>
      <point x="971" y="285" type="line"/>
      <point x="971" y="304" type="line"/>
      <point x="696" y="304" type="line"/>
      <point x="696" y="285" type="line"/>
    </contour>
  </outline>
</glyph>
<glyph name="trademark" format="1">
  <advance width="638"/>
  <unicode hex="2122"/>
  <outline>
    <contour>
      <point x="148" y="430" type="line" name="hr00"/>
      <point x="148" y="682" type="line"/>
      <point x="254" y="682" type="line"/>
      <point x="254" y="698" type="line"/>
      <point x="23" y="698" type="line"/>
      <point x="23" y="682" type="line"/>
      <point x="129" y="682" type="line"/>
      <point x="129" y="430" type="line"/>
    </contour>
    <contour>
      <point x="342" y="430" type="line"/>
      <point x="342" y="670" type="line"/>
      <point x="344" y="670" type="line"/>
      <point x="437" y="494" type="line"/>
      <point x="530" y="670" type="line"/>
      <point x="532" y="670" type="line"/>
      <point x="532" y="430" type="line"/>
      <point x="549" y="430" type="line"/>
      <point x="549" y="698" type="line"/>
      <point x="527" y="698" type="line"/>
      <point x="438" y="529" type="line"/>
      <point x="436" y="529" type="line"/>
      <point x="348" y="698" type="line"/>
      <point x="325" y="698" type="line"/>
      <point x="325" y="430" type="line"/>
    </contour>
  </outline>
</glyph>
<glyph name="Omega" format="1">
  <advance width="698"/>
  <unicode hex="2126"/>
  <outline>
    <contour>
      <point x="82" y="0" type="line" name="hr00"/>
      <point x="279" y="0" type="line"/>
      <point x="279" y="49" type="line"/>
      <point x="203" y="85"/>
      <point x="99" y="174"/>
      <point x="99" y="347" type="curve" smooth="yes"/>
      <point x="99" y="411" type="line" smooth="yes"/>
      <point x="99" y="582"/>
      <point x="197" y="690"/>
      <point x="349" y="690" type="curve" smooth="yes"/>
      <point x="501" y="690"/>
      <point x="599" y="582"/>
      <point x="599" y="411" type="curve" smooth="yes"/>
      <point x="599" y="347" type="line" smooth="yes"/>
      <point x="599" y="174"/>
      <point x="495" y="85"/>
      <point x="419" y="49" type="curve"/>
      <point x="419" y="0" type="line"/>
      <point x="616" y="0" type="line"/>
      <point x="616" y="20" type="line"/>
      <point x="439" y="20" type="line"/>
      <point x="439" y="37" type="line"/>
      <point x="575" y="115"/>
      <point x="623" y="211"/>
      <point x="623" y="379" type="curve" smooth="yes"/>
      <point x="623" y="592"/>
      <point x="525" y="710"/>
      <point x="349" y="710" type="curve" smooth="yes"/>
      <point x="173" y="710"/>
      <point x="75" y="592"/>
      <point x="75" y="379" type="curve" smooth="yes"/>
      <point x="75" y="211"/>
      <point x="123" y="115"/>
      <point x="259" y="37" type="curve"/>
      <point x="259" y="20" type="line"/>
      <point x="82" y="20" type="line"/>
    </contour>
  </outline>
</glyph>
<glyph name="arrowupdown" format="1">
  <advance width="746"/>
  <unicode hex="2195"/>
  <outline>
    <contour>
      <point x="373" y="-12" type="line" name="hr00"/>
      <point x="560" y="175" type="line"/>
      <point x="545" y="190" type="line"/>
      <point x="434" y="79" type="line"/>
      <point x="384" y="25" type="line"/>
      <point x="382" y="26" type="line"/>
      <point x="383" y="134" type="line"/>
      <point x="383" y="564" type="line"/>
      <point x="382" y="672" type="line"/>
      <point x="384" y="673" type="line"/>
      <point x="434" y="619" type="line"/>
      <point x="545" y="508" type="line"/>
      <point x="560" y="523" type="line"/>
      <point x="373" y="710" type="line"/>
      <point x="186" y="523" type="line"/>
      <point x="201" y="508" type="line"/>
      <point x="312" y="619" type="line"/>
      <point x="362" y="673" type="line"/>
      <point x="364" y="672" type="line"/>
      <point x="363" y="564" type="line"/>
      <point x="363" y="134" type="line"/>
      <point x="364" y="26" type="line"/>
      <point x="362" y="25" type="line"/>
      <point x="312" y="79" type="line"/>
      <point x="201" y="190" type="line"/>
      <point x="186" y="175" type="line"/>
    </contour>
  </outline>
</glyph>
<glyph name="arrowupright" format="1">
  <advance width="746"/>
  <unicode hex="2197"/>
  <outline>
    <contour>
      <point x="613" y="614" type="line" name="hr00"/>
      <point x="349" y="614" type="line"/>
      <point x="349" y="593" type="line"/>
      <point x="506" y="593" type="line"/>
      <point x="579" y="596" type="line"/>
      <point x="580" y="594" type="line"/>
      <point x="503" y="518" type="line"/>
      <point x="104" y="119" type="line"/>
      <point x="118" y="105" type="line"/>
      <point x="517" y="504" type="line"/>
      <point x="593" y="581" type="line"/>
      <point x="595" y="580" type="line"/>
      <point x="592" y="507" type="line"/>
      <point x="592" y="350" type="line"/>
      <point x="613" y="350" type="line"/>
    </contour>
  </outline>
</glyph>
<glyph name="arrowdownleft" format="1">
  <advance width="746"/>
  <unicode hex="2199"/>
  <outline>
    <contour>
      <point x="133" y="101" type="line" name="hr00"/>
      <point x="397" y="101" type="line"/>
      <point x="397" y="122" type="line"/>
      <point x="240" y="122" type="line"/>
      <point x="167" y="119" type="line"/>
      <point x="166" y="121" type="line"/>
      <point x="243" y="197" type="line"/>
      <point x="642" y="596" type="line"/>
      <point x="628" y="610" type="line"/>
      <point x="229" y="211" type="line"/>
      <point x="153" y="134" type="line"/>
      <point x="151" y="135" type="line"/>
      <point x="154" y="208" type="line"/>
      <point x="154" y="365" type="line"/>
      <point x="133" y="365" type="line"/>
    </contour>
  </outline>
</glyph>
<glyph name="arrowupleftcorner" format="1">
  <advance width="746"/>
  <unicode hex="21B0"/>
  <outline>
    <contour>
      <point x="92" y="523" type="line" name="hr00"/>
      <point x="279" y="336" type="line"/>
      <point x="294" y="351" type="line"/>
      <point x="183" y="462" type="line"/>
      <point x="129" y="512" type="line"/>
      <point x="130" y="514" type="line"/>
      <point x="238" y="513" type="line"/>
      <point x="546" y="513" type="line"/>
      <point x="546" y="0" type="line"/>
      <point x="566" y="0" type="line"/>
      <point x="566" y="533" type="line"/>
      <point x="238" y="533" type="line"/>
      <point x="130" y="532" type="line"/>
      <point x="129" y="534" type="line"/>
      <point x="183" y="584" type="line"/>
      <point x="294" y="695" type="line"/>
      <point x="279" y="710" type="line"/>
    </contour>
  </outline>
</glyph>
<glyph name="arrowuprightcorner" format="1">
  <advance width="746"/>
  <unicode hex="21B1"/>
  <outline>
    <contour>
      <point x="654" y="523" type="line" name="hr00"/>
      <point x="467" y="710" type="line"/>
      <point x="452" y="695" type="line"/>
      <point x="563" y="584" type="line"/>
      <point x="617" y="534" type="line"/>
      <point x="616" y="532" type="line"/>
      <point x="508" y="533" type="line"/>
      <point x="180" y="533" type="line"/>
      <point x="180" y="0" type="line"/>
      <point x="200" y="0" type="line"/>
      <point x="200" y="513" type="line"/>
      <point x="508" y="513" type="line"/>
      <point x="616" y="514" type="line"/>
      <point x="617" y="512" type="line"/>
      <point x="563" y="462" type="line"/>
      <point x="452" y="351" type="line"/>
      <point x="467" y="336" type="line"/>
    </contour>
  </outline>
</glyph>
<glyph name="arrowdownleftcorner" format="1">
  <advance width="746"/>
  <unicode hex="21B2"/>
  <outline>
    <contour>
      <point x="92" y="175" type="line" name="hr00"/>
      <point x="279" y="-12" type="line"/>
      <point x="294" y="3" type="line"/>
      <point x="183" y="114" type="line"/>
      <point x="129" y="164" type="line"/>
      <point x="130" y="166" type="line"/>
      <point x="238" y="165" type="line"/>
      <point x="566" y="165" type="line"/>
      <point x="566" y="698" type="line"/>
      <point x="546" y="698" type="line"/>
      <point x="546" y="185" type="line"/>
      <point x="238" y="185" type="line"/>
      <point x="130" y="184" type="line"/>
      <point x="129" y="186" type="line"/>
      <point x="183" y="236" type="line"/>
      <point x="294" y="347" type="line"/>
      <point x="279" y="362" type="line"/>
    </contour>
  </outline>
</glyph>
<glyph name="arrowdownrightcorner" format="1">
  <advance width="746"/>
  <unicode hex="21B3"/>
  <outline>
    <contour>
      <point x="654" y="175" type="line" name="hr00"/>
      <point x="467" y="362" type="line"/>
      <point x="452" y="347" type="line"/>
      <point x="563" y="236" type="line"/>
      <point x="617" y="186" type="line"/>
      <point x="616" y="184" type="line"/>
      <point x="508" y="185" type="line"/>
      <point x="200" y="185" type="line"/>
      <point x="200" y="698" type="line"/>
      <point x="180" y="698" type="line"/>
      <point x="180" y="165" type="line"/>
      <point x="508" y="165" type="line"/>
      <point x="616" y="166" type="line"/>
      <point x="617" y="164" type="line"/>
      <point x="563" y="114" type="line"/>
      <point x="452" y="3" type="line"/>
      <point x="467" y="-12" type="line"/>
    </contour>
  </outline>
</glyph>
<glyph name="arrowdowncounterclockhalf" format="1">
  <advance width="806"/>
  <unicode hex="21B6"/>
  <outline>
    <contour>
      <point x="214" y="47" type="line" name="hr00"/>
      <point x="401" y="234" type="line"/>
      <point x="386" y="249" type="line"/>
      <point x="275" y="138" type="line"/>
      <point x="225" y="84" type="line"/>
      <point x="223" y="85" type="line"/>
      <point x="224" y="193" type="line"/>
      <point x="224" y="357" type="line" smooth="yes"/>
      <point x="224" y="527"/>
      <point x="331" y="640"/>
      <point x="491" y="640" type="curve" smooth="yes"/>
      <point x="651" y="640"/>
      <point x="758" y="527"/>
      <point x="758" y="357" type="curve"/>
      <point x="779" y="357" type="line"/>
      <point x="779" y="539"/>
      <point x="664" y="660"/>
      <point x="491" y="660" type="curve" smooth="yes"/>
      <point x="319" y="660"/>
      <point x="204" y="539"/>
      <point x="204" y="357" type="curve" smooth="yes"/>
      <point x="204" y="193" type="line"/>
      <point x="205" y="85" type="line"/>
      <point x="203" y="84" type="line"/>
      <point x="153" y="138" type="line"/>
      <point x="42" y="249" type="line"/>
      <point x="27" y="234" type="line"/>
    </contour>
  </outline>
</glyph>
<glyph name="arrowupleftcounterclock" format="1">
  <advance width="774"/>
  <unicode hex="21BA"/>
  <outline>
    <contour>
      <point x="407" y="698" type="line" name="hr00"/>
      <point x="407" y="434" type="line"/>
      <point x="428" y="434" type="line"/>
      <point x="428" y="591" type="line"/>
      <point x="425" y="664" type="line"/>
      <point x="427" y="665" type="line"/>
      <point x="489" y="610" type="line" smooth="yes"/>
      <point x="589" y="521"/>
      <point x="685" y="454"/>
      <point x="685" y="302" type="curve" smooth="yes"/>
      <point x="685" y="140"/>
      <point x="570" y="8"/>
      <point x="387" y="8" type="curve" smooth="yes"/>
      <point x="204" y="8"/>
      <point x="89" y="141"/>
      <point x="89" y="301" type="curve" smooth="yes"/>
      <point x="89" y="416"/>
      <point x="146" y="517"/>
      <point x="243" y="565" type="curve"/>
      <point x="232" y="582" type="line"/>
      <point x="127" y="530"/>
      <point x="68" y="421"/>
      <point x="68" y="301" type="curve" smooth="yes"/>
      <point x="68" y="133"/>
      <point x="188" y="-12"/>
      <point x="387" y="-12" type="curve" smooth="yes"/>
      <point x="586" y="-12"/>
      <point x="706" y="133"/>
      <point x="706" y="302" type="curve" smooth="yes"/>
      <point x="706" y="468"/>
      <point x="596" y="540"/>
      <point x="502" y="623" type="curve" smooth="yes"/>
      <point x="440" y="678" type="line"/>
      <point x="441" y="680" type="line"/>
      <point x="514" y="677" type="line"/>
      <point x="671" y="677" type="line"/>
      <point x="671" y="698" type="line"/>
    </contour>
  </outline>
</glyph>
<glyph name="arrowuprightclock" format="1">
  <advance width="774"/>
  <unicode hex="21BB"/>
  <outline>
    <contour>
      <point x="367" y="698" type="line" name="hr00"/>
      <point x="103" y="698" type="line"/>
      <point x="103" y="677" type="line"/>
      <point x="260" y="677" type="line"/>
      <point x="333" y="680" type="line"/>
      <point x="334" y="678" type="line"/>
      <point x="272" y="623" type="line" smooth="yes"/>
      <point x="178" y="540"/>
      <point x="68" y="468"/>
      <point x="68" y="302" type="curve" smooth="yes"/>
      <point x="68" y="133"/>
      <point x="188" y="-12"/>
      <point x="387" y="-12" type="curve" smooth="yes"/>
      <point x="586" y="-12"/>
      <point x="706" y="133"/>
      <point x="706" y="301" type="curve" smooth="yes"/>
      <point x="706" y="421"/>
      <point x="647" y="530"/>
      <point x="542" y="582" type="curve"/>
      <point x="531" y="565" type="line"/>
      <point x="628" y="517"/>
      <point x="685" y="416"/>
      <point x="685" y="301" type="curve" smooth="yes"/>
      <point x="685" y="141"/>
      <point x="570" y="8"/>
      <point x="387" y="8" type="curve" smooth="yes"/>
      <point x="204" y="8"/>
      <point x="89" y="140"/>
      <point x="89" y="302" type="curve" smooth="yes"/>
      <point x="89" y="454"/>
      <point x="185" y="521"/>
      <point x="285" y="610" type="curve" smooth="yes"/>
      <point x="347" y="665" type="line"/>
      <point x="349" y="664" type="line"/>
      <point x="346" y="591" type="line"/>
      <point x="346" y="434" type="line"/>
      <point x="367" y="434" type="line"/>
    </contour>
  </outline>
</glyph>
